<svg width="20" height="20" viewBox="0 0 20 20" fill="none" xmlns="http://www.w3.org/2000/svg">
<path d="M1.66797 15.8334V2.50002C1.66797 2.03978 2.04106 1.66669 2.5013 1.66669C2.96154 1.66669 3.33464 2.03978 3.33464 2.50002V15.8334C3.33464 16.0544 3.4225 16.2663 3.57878 16.4225C3.73506 16.5788 3.94696 16.6667 4.16797 16.6667H17.5013C17.9615 16.6667 18.3346 17.0398 18.3346 17.5C18.3346 17.9603 17.9615 18.3334 17.5013 18.3334H4.16797C3.50493 18.3334 2.86923 18.0698 2.40039 17.6009C1.93155 17.1321 1.66797 16.4964 1.66797 15.8334ZM15.2454 6.91083C15.5709 6.58539 16.0984 6.58539 16.4238 6.91083C16.7493 7.23626 16.7493 7.76378 16.4238 8.08921L12.2572 12.2559C11.9317 12.5813 11.4042 12.5813 11.0788 12.2559L8.33464 9.51174L6.42383 11.4225C6.09839 11.748 5.57088 11.748 5.24544 11.4225C4.92001 11.0971 4.92001 10.5696 5.24544 10.2442L7.74544 7.74416L7.80892 7.68719C8.13623 7.42024 8.61873 7.43906 8.92383 7.74416L11.668 10.4883L15.2454 6.91083Z" fill="#7F8A94"/>
</svg>
