<svg width="24" height="24" viewBox="0 0 24 24" fill="none" xmlns="http://www.w3.org/2000/svg">
<path d="M16.2929 14.293C16.6834 13.9025 17.3164 13.9025 17.707 14.293C18.0975 14.6836 18.0975 15.3166 17.707 15.7071L12.707 20.7071C12.3164 21.0976 11.6834 21.0976 11.2929 20.7071L6.29289 15.7071C5.90237 15.3166 5.90237 14.6836 6.29289 14.293C6.68342 13.9025 7.31643 13.9025 7.70696 14.293L11.9999 18.586L16.2929 14.293ZM11.3686 3.22418C11.7614 2.90378 12.3408 2.92689 12.707 3.29303L17.707 8.29303C18.0975 8.68355 18.0975 9.31657 17.707 9.70709C17.3164 10.0976 16.6834 10.0976 16.2929 9.70709L11.9999 5.41412L7.70696 9.70709C7.31643 10.0976 6.68342 10.0976 6.29289 9.70709C5.90237 9.31657 5.90237 8.68355 6.29289 8.29303L11.2929 3.29303L11.3686 3.22418Z" fill="currentColor"/>
</svg>
