<svg width="24" height="24" viewBox="0 0 24 24" fill="none" xmlns="http://www.w3.org/2000/svg">
<path d="M21 12C21 7.02944 16.9706 3 12 3C7.02944 3 3 7.02944 3 12C3 16.9706 7.02944 21 12 21C16.9706 21 21 16.9706 21 12ZM12.0098 16C12.5621 16 13.0098 16.4477 13.0098 17C13.0098 17.5523 12.5621 18 12.0098 18H12C11.4477 18 11 17.5523 11 17C11 16.4477 11.4477 16 12 16H12.0098ZM9.89307 6.54688C10.7075 6.06825 11.6652 5.89353 12.5962 6.05322C13.5272 6.21291 14.3716 6.69683 14.98 7.41943C15.588 8.14173 15.921 9.05589 15.9199 10C15.9199 11.5309 14.785 12.5418 13.9746 13.082C13.539 13.3724 13.1106 13.5858 12.7949 13.7261C12.6357 13.7969 12.5014 13.8509 12.4048 13.8877C12.3564 13.9061 12.3171 13.9205 12.2886 13.9307C12.2744 13.9357 12.2627 13.9399 12.2539 13.9429C12.2496 13.9444 12.2456 13.9453 12.2427 13.9463C12.2413 13.9468 12.2398 13.9474 12.2388 13.9478L12.2373 13.9482L12.2368 13.9487C12.2365 13.9487 12.233 13.9394 11.9199 13L12.2363 13.9487C11.7124 14.1234 11.1459 13.8403 10.9712 13.3164C10.7967 12.7929 11.0794 12.2269 11.6025 12.0518L11.603 12.0513C11.6056 12.0504 11.611 12.0486 11.6187 12.0459C11.634 12.0404 11.6593 12.0314 11.6929 12.0186C11.7603 11.9929 11.8605 11.9531 11.9824 11.8989C12.2292 11.7892 12.5509 11.6275 12.8652 11.418C13.5548 10.9582 13.9199 10.4691 13.9199 10V9.99854C13.9206 9.52625 13.7543 9.06884 13.4502 8.70752C13.1461 8.34623 12.7237 8.1043 12.2583 8.02441C11.7928 7.94456 11.3139 8.03217 10.9067 8.27148C10.4995 8.5108 10.1899 8.88648 10.0332 9.33203C9.84987 9.85284 9.27918 10.1265 8.7583 9.94336C8.23731 9.76009 7.96321 9.18896 8.14648 8.66797C8.45996 7.77694 9.07874 7.02549 9.89307 6.54688ZM23 12C23 18.0751 18.0751 23 12 23C5.92487 23 1 18.0751 1 12C1 5.92487 5.92487 1 12 1C18.0751 1 23 5.92487 23 12Z" fill="currentColor"/>
</svg>
