<svg width="24" height="24" viewBox="0 0 24 24" fill="none" xmlns="http://www.w3.org/2000/svg">
<path d="M12 1C18.0751 1 23 5.92487 23 12C23 18.0751 18.0751 23 12 23C5.92487 23 1 18.0751 1 12C1 5.92487 5.92487 1 12 1ZM11.9961 16C11.4441 16.0001 10.9964 16.448 10.9961 17C10.9961 17.5522 11.4439 17.9999 11.9961 18H12.0059C12.5581 18 13.0059 17.5523 13.0059 17C13.0056 16.4479 12.558 16 12.0059 16H11.9961ZM12.5928 6.05371C11.6619 5.89404 10.704 6.06842 9.88965 6.54688C9.07543 7.02543 8.45609 7.7771 8.14258 8.66797C7.95931 9.18896 8.23389 9.76009 8.75488 9.94336C9.27575 10.1265 9.84597 9.85282 10.0293 9.33203C10.1861 8.88664 10.4962 8.51074 10.9033 8.27148C11.3104 8.03234 11.7895 7.94459 12.2549 8.02441C12.7202 8.10431 13.1422 8.34683 13.4463 8.70801C13.7504 9.06933 13.9167 9.52673 13.916 9.99902V10C13.916 10.4691 13.5509 10.9582 12.8613 11.418C12.547 11.6275 12.2253 11.7897 11.9785 11.8994C11.8569 11.9534 11.7568 11.9929 11.6895 12.0186C11.6561 12.0313 11.6306 12.0404 11.6152 12.0459L11.5986 12.0518C11.0757 12.2269 10.7935 12.793 10.9678 13.3164C11.1424 13.8402 11.7262 14.1178 12.25 13.9434L12.2852 13.9307C12.3137 13.9205 12.3532 13.906 12.4014 13.8877C12.4979 13.8509 12.6321 13.7972 12.791 13.7266C13.1067 13.5863 13.5351 13.3724 13.9707 13.082C14.7811 12.5418 15.916 11.5308 15.916 10C15.917 9.05611 15.5844 8.14207 14.9766 7.41992C14.3683 6.69737 13.5237 6.21344 12.5928 6.05371Z" fill="currentColor"/>
</svg>
