<svg width="24" height="24" viewBox="0 0 24 24" fill="none" xmlns="http://www.w3.org/2000/svg">
<path d="M12 1C18.0751 1 23 5.92487 23 12C23 18.0751 18.0751 23 12 23C5.92487 23 1 18.0751 1 12C1 5.92487 5.92487 1 12 1ZM12 15.0039C11.4477 15.0039 11 15.4516 11 16.0039C11 16.5562 11.4477 17.0039 12 17.0039H12.0098C12.5621 17.0039 13.0098 16.5562 13.0098 16.0039C13.0098 15.4516 12.5621 15.0039 12.0098 15.0039H12ZM12 7.00391C11.4477 7.00391 11 7.45162 11 8.00391V12.0039C11 12.5562 11.4477 13.0039 12 13.0039C12.5523 13.0039 13 12.5562 13 12.0039V8.00391C13 7.45162 12.5523 7.00391 12 7.00391Z" fill="currentColor"/>
</svg>
