<svg width="24" height="24" viewBox="0 0 24 24" fill="none" xmlns="http://www.w3.org/2000/svg">
<path d="M15 11C15 9.34315 13.6569 8 12 8C10.3431 8 9 9.34315 9 11C9 12.6497 10.3316 13.9875 11.9785 13.999H12.02C13.6677 13.9883 15 12.6502 15 11ZM12 16C11.9928 16 11.9857 15.9991 11.9785 15.999C10.7959 16.004 9.65321 16.4282 8.75342 17.1963C8.00571 17.8346 7.46658 18.6759 7.19629 19.6118C8.58634 20.4909 10.2337 21 12 21C13.7658 21 15.4125 20.4909 16.8022 19.6123C16.5319 18.676 15.9932 17.8342 15.2451 17.1958C14.3452 16.4279 13.2025 16.0039 12.02 15.999C12.0133 15.999 12.0067 16 12 16ZM23 12C23 15.6261 21.245 18.8418 18.5386 20.8457C18.5328 20.8502 18.5264 20.854 18.5205 20.8584C16.6957 22.2038 14.4411 23 12 23C9.57506 23 7.33397 22.2145 5.51562 20.8853C5.49284 20.8699 5.47055 20.854 5.44922 20.8369C2.74964 18.8324 1 15.6207 1 12C1 5.92487 5.92487 1 12 1C18.0751 1 23 5.92487 23 12ZM17 11C17 12.5208 16.3199 13.8818 15.2485 14.7988C15.7084 15.0398 16.1431 15.3327 16.5435 15.6743C17.3784 16.3868 18.0264 17.2807 18.4473 18.2778C20.0264 16.6563 21 14.4422 21 12C21 7.02944 16.9706 3 12 3C7.02944 3 3 7.02944 3 12C3 14.4418 3.97303 16.6559 5.55176 18.2773C5.97242 17.2808 6.62029 16.3875 7.45459 15.6753C7.85525 15.3333 8.29064 15.04 8.75098 14.7988C7.67976 13.8818 7 12.5207 7 11C7 8.23858 9.23858 6 12 6C14.7614 6 17 8.23858 17 11Z" fill="currentColor"/>
</svg>
