<svg width="24" height="24" viewBox="0 0 24 24" fill="none" xmlns="http://www.w3.org/2000/svg">
<path d="M10.9986 20.9989V15.413L8.70564 17.7059C8.31518 18.0964 7.68211 18.0963 7.29158 17.7059C6.90106 17.3154 6.90106 16.6819 7.29158 16.2914L11.2916 12.2914L11.3673 12.223C11.76 11.9026 12.3395 11.9253 12.7056 12.2914L16.7056 16.2914C17.0962 16.6819 17.0962 17.3154 16.7056 17.7059C16.3152 18.0964 15.6821 18.0963 15.2916 17.7059L12.9986 15.413V20.9989C12.9985 21.551 12.5508 21.9988 11.9986 21.9989C11.4464 21.9989 10.9987 21.5511 10.9986 20.9989ZM8.36873 2.02625C9.57878 1.93031 10.795 2.11097 11.9249 2.55457C13.0547 2.99818 14.0687 3.69327 14.8902 4.5868C15.5406 5.29427 16.0564 6.11193 16.4156 6.99891H17.4986C18.6786 6.99883 19.8272 7.3781 20.775 8.08094C21.7229 8.78386 22.4198 9.77296 22.7623 10.9022C23.1048 12.0315 23.0749 13.2409 22.6773 14.3519C22.2797 15.463 21.5351 16.4167 20.5538 17.0721C20.0946 17.3788 19.4739 17.2554 19.1671 16.7963C18.8603 16.337 18.9837 15.7158 19.4429 15.4091C20.0674 14.992 20.5415 14.3851 20.7945 13.6781C21.0475 12.9711 21.0662 12.2014 20.8482 11.4828C20.6302 10.7642 20.1868 10.1347 19.5836 9.68738C18.9804 9.24014 18.2495 8.99883 17.4986 8.99891H15.7086C15.2665 8.99891 14.8766 8.70817 14.7501 8.28455C14.4896 7.41228 14.0342 6.61047 13.418 5.94031C12.8019 5.27018 12.0413 4.74909 11.1939 4.41639C10.3466 4.0837 9.43443 3.94797 8.52693 4.0199C7.61941 4.09188 6.74002 4.36982 5.95564 4.83192C5.17125 5.29405 4.50193 5.92844 3.9991 6.68738C3.4963 7.4463 3.17302 8.30983 3.0533 9.21229C2.9336 10.1148 3.02058 11.033 3.30818 11.8969C3.59577 12.7606 4.07622 13.5475 4.71297 14.1981C5.09927 14.5928 5.09251 15.2259 4.69783 15.6122C4.30314 15.9985 3.67008 15.9917 3.28377 15.5971C2.43475 14.7296 1.79418 13.6803 1.41072 12.5287C1.02727 11.377 0.910805 10.1529 1.07039 8.94959C1.23 7.74623 1.66166 6.59485 2.33211 5.58289C3.00251 4.57104 3.89425 3.72493 4.94002 3.10877C5.9859 2.49258 7.15863 2.12222 8.36873 2.02625Z" fill="currentColor"/>
</svg>
