<svg width="24" height="24" viewBox="0 0 24 24" fill="none" xmlns="http://www.w3.org/2000/svg">
<path d="M11.9995 16.2434L9.62256 18.6194V18.6199L11.9995 20.9958L14.377 18.6199V18.6194L11.9995 16.2434ZM5.38086 7.62329C5.87794 7.62333 6.35585 7.80838 6.72266 8.14038L6.79492 8.20874L9.17188 10.5857V10.5862C9.54671 10.9612 9.75728 11.4695 9.75732 11.9998C9.75732 12.4969 9.57232 12.9752 9.24023 13.342L9.17188 13.4138L6.79492 15.7913C6.41991 16.1662 5.91113 16.3767 5.38086 16.3767C4.85058 16.3767 4.34184 16.1661 3.9668 15.7913L1.58936 13.4138C1.21449 13.0388 1.00391 12.53 1.00391 11.9998C1.00395 11.4695 1.21446 10.9607 1.58936 10.5857L3.9668 8.20874L4.03857 8.14038C4.40543 7.8083 4.88368 7.62329 5.38086 7.62329ZM18.6187 7.62329C19.1159 7.62329 19.5941 7.80826 19.9609 8.14038L20.0327 8.20874L22.4097 10.5857V10.5862C22.7846 10.9612 22.9956 11.4695 22.9956 11.9998C22.9956 12.5301 22.7846 13.0388 22.4097 13.4138L20.0327 15.7913C19.6577 16.1662 19.149 16.3767 18.6187 16.3767C18.0883 16.3767 17.5796 16.1662 17.2046 15.7913V15.7908L14.8286 13.4138C14.4537 13.0388 14.2427 12.5301 14.2427 11.9998C14.2427 11.4695 14.4537 10.9612 14.8286 10.5862L17.2046 8.20874L17.2764 8.14038C17.6432 7.80824 18.1214 7.6233 18.6187 7.62329ZM3.00391 11.9998L5.38037 14.3762L7.75732 11.9998L5.38037 9.6228L3.00391 11.9998ZM11.9995 1.00415C12.5298 1.00415 13.0385 1.21473 13.4136 1.5896L15.791 3.96704C16.1659 4.34209 16.3765 4.85083 16.3765 5.3811C16.3764 5.91137 16.1659 6.42015 15.791 6.79517H15.7905L13.4136 9.17114C13.0385 9.54605 12.5298 9.75659 11.9995 9.75659C11.4693 9.75654 10.9609 9.54597 10.5859 9.17114L8.2085 6.79517C7.83359 6.42015 7.62309 5.91137 7.62305 5.3811C7.62305 4.8508 7.83358 4.34209 8.2085 3.96704L10.5854 1.5896H10.5859C10.9609 1.21482 11.4693 1.0042 11.9995 1.00415ZM9.62256 5.38062L11.9995 7.75659L14.3765 5.3811L11.9995 3.00415L9.62256 5.38062ZM16.377 18.6194C16.377 18.8822 16.3253 19.1427 16.2246 19.3855C16.1366 19.5979 16.0125 19.7932 15.8584 19.9631L15.7905 20.0344L13.4136 22.4104C13.0385 22.7852 12.5298 22.9958 11.9995 22.9958C11.4692 22.9958 10.9609 22.7848 10.5859 22.4099V22.4104L8.2085 20.0344V20.0339C8.02282 19.8483 7.87546 19.628 7.7749 19.3855C7.67425 19.1427 7.62256 18.8822 7.62256 18.6194C7.62257 18.3566 7.6743 18.0965 7.7749 17.8538C7.87555 17.611 8.02304 17.3901 8.20898 17.2043L10.5859 14.8289C10.9609 14.454 11.4693 14.243 11.9995 14.2429C12.5298 14.2429 13.0385 14.4539 13.4136 14.8289L15.79 17.2043C15.976 17.3901 16.124 17.611 16.2246 17.8538C16.3252 18.0965 16.3769 18.3566 16.377 18.6194ZM18.6187 14.3767L20.9951 11.9998L18.6187 9.6228L16.2432 11.9998L18.6187 14.3767Z" fill="currentColor"/>
</svg>
