<svg width="24" height="24" viewBox="0 0 24 24" fill="none" xmlns="http://www.w3.org/2000/svg">
<path fill-rule="evenodd" clip-rule="evenodd" d="M11.9982 19.4524C12.2352 19.4524 12.464 19.5394 12.6412 19.697C12.8183 19.8545 12.9315 20.0715 12.9592 20.3069L12.966 20.4202V21.388C12.9657 21.6346 12.8712 21.8719 12.7019 22.0512C12.5326 22.2306 12.3011 22.3385 12.0549 22.353C11.8087 22.3675 11.5662 22.2873 11.377 22.129C11.1879 21.9707 11.0663 21.7461 11.0372 21.5012L11.0304 21.388V20.4202C11.0304 20.1635 11.1324 19.9173 11.3139 19.7358C11.4953 19.5543 11.7415 19.4524 11.9982 19.4524ZM7.20764 17.4684C7.38907 17.6499 7.49099 17.896 7.49099 18.1526C7.49099 18.4093 7.38907 18.6554 7.20764 18.8369L6.52341 19.5211C6.43414 19.6135 6.32735 19.6873 6.20927 19.738C6.0912 19.7887 5.9642 19.8154 5.8357 19.8165C5.7072 19.8176 5.57976 19.7931 5.46083 19.7445C5.34189 19.6958 5.23383 19.624 5.14296 19.5331C5.0521 19.4422 4.98024 19.3342 4.93157 19.2152C4.88291 19.0963 4.85843 18.9689 4.85954 18.8403C4.86066 18.7118 4.88736 18.5849 4.93808 18.4668C4.9888 18.3487 5.06253 18.2419 5.15496 18.1526L5.83919 17.4684C6.02067 17.287 6.26679 17.1851 6.52341 17.1851C6.78003 17.1851 7.02615 17.287 7.20764 17.4684ZM18.1572 17.4684L18.8414 18.1526C19.0177 18.3352 19.1152 18.5796 19.113 18.8334C19.1108 19.0871 19.0091 19.3299 18.8296 19.5093C18.6502 19.6887 18.4074 19.7905 18.1537 19.7927C17.8999 19.7949 17.6555 19.6974 17.473 19.5211L16.7887 18.8369C16.6124 18.6543 16.5149 18.4099 16.5171 18.1561C16.5193 17.9024 16.6211 17.6596 16.8005 17.4802C16.98 17.3008 17.2227 17.199 17.4764 17.1968C17.7302 17.1946 17.9747 17.2921 18.1572 17.4684ZM12.5953 3C13.0672 2.9999 13.5228 3.17216 13.8766 3.4844C14.2303 3.79664 14.4579 4.22735 14.5164 4.69556L14.8841 7.63763C15.9948 8.27378 16.8642 9.2591 17.3571 10.4404C17.85 11.6216 17.9388 12.9327 17.6096 14.1696C17.2805 15.4065 16.5519 16.5001 15.5371 17.2801C14.5223 18.0602 13.2782 18.4831 11.9982 18.4831C10.7182 18.4831 9.47409 18.0602 8.45929 17.2801C7.44449 16.5001 6.71587 15.4065 6.38673 14.1696C6.05758 12.9327 6.14636 11.6216 6.63926 10.4404C7.13215 9.2591 8.00154 8.27378 9.11224 7.63763L9.48 4.69556C9.53851 4.22735 9.76603 3.79664 10.1198 3.4844C10.4736 3.17216 10.9292 2.9999 11.4011 3H12.5953ZM11.9982 8.80672C10.9715 8.80672 9.98685 9.21457 9.26087 9.94055C8.53489 10.6665 8.12703 11.6512 8.12703 12.6779C8.12703 13.7046 8.53489 14.6892 9.26087 15.4152C9.98685 16.1412 10.9715 16.549 11.9982 16.549C13.0249 16.549 14.0095 16.1412 14.7355 15.4152C15.4615 14.6892 15.8693 13.7046 15.8693 12.6779C15.8693 11.6512 15.4615 10.6665 14.7355 9.94055C14.0095 9.21457 13.0249 8.80672 11.9982 8.80672ZM4.25589 11.7101C4.51256 11.7101 4.75872 11.812 4.94021 11.9935C5.12171 12.175 5.22367 12.4212 5.22367 12.6779C5.22367 12.9345 5.12171 13.1807 4.94021 13.3622C4.75872 13.5437 4.51256 13.6457 4.25589 13.6457H3.2881C3.03143 13.6457 2.78527 13.5437 2.60377 13.3622C2.42228 13.1807 2.32031 12.9345 2.32031 12.6779C2.32031 12.4212 2.42228 12.175 2.60377 11.9935C2.78527 11.812 3.03143 11.7101 3.2881 11.7101H4.25589ZM20.7083 11.7101C20.9649 11.7101 21.2111 11.812 21.3926 11.9935C21.5741 12.175 21.6761 12.4212 21.6761 12.6779C21.6761 12.9345 21.5741 13.1807 21.3926 13.3622C21.2111 13.5437 20.9649 13.6457 20.7083 13.6457H19.7405C19.4838 13.6457 19.2376 13.5437 19.0561 13.3622C18.8747 13.1807 18.7727 12.9345 18.7727 12.6779C18.7727 12.4212 18.8747 12.175 19.0561 11.9935C19.2376 11.812 19.4838 11.7101 19.7405 11.7101H20.7083ZM18.8414 5.83562C19.0228 6.0171 19.1248 6.26322 19.1248 6.51984C19.1248 6.77646 19.0228 7.02258 18.8414 7.20407L18.1572 7.88829C18.0679 7.98073 17.9611 8.05445 17.843 8.10517C17.725 8.15589 17.598 8.18259 17.4695 8.18371C17.341 8.18483 17.2135 8.16034 17.0946 8.11168C16.9757 8.06302 16.8676 7.99116 16.7767 7.90029C16.6859 7.80942 16.614 7.70136 16.5653 7.58243C16.5167 7.46349 16.4922 7.33605 16.4933 7.20755C16.4944 7.07905 16.5211 6.95205 16.5718 6.83398C16.6226 6.71591 16.6963 6.60912 16.7887 6.51984L17.473 5.83562C17.6544 5.65418 17.9006 5.55226 18.1572 5.55226C18.4138 5.55226 18.6599 5.65418 18.8414 5.83562ZM6.52341 5.83562L7.20764 6.51984C7.37957 6.70319 7.47342 6.94624 7.46934 7.19755C7.46526 7.44887 7.36356 7.68874 7.18577 7.86641C7.00798 8.04408 6.76803 8.14561 6.51671 8.14951C6.26539 8.15341 6.02241 8.05939 5.83919 7.88732L5.15496 7.2031C4.98303 7.01975 4.88917 6.7767 4.89325 6.52539C4.89733 6.27407 4.99903 6.0342 5.17683 5.85653C5.35462 5.67886 5.59456 5.57733 5.84588 5.57343C6.0972 5.56953 6.34018 5.66355 6.52341 5.83562ZM12.5953 4.93557H11.4011L11.1591 6.87115H12.8373L12.5953 4.93557Z" fill="currentColor"/>
</svg>
