<svg width="24" height="24" viewBox="0 0 24 24" fill="none" xmlns="http://www.w3.org/2000/svg">
<path fill-rule="evenodd" clip-rule="evenodd" d="M16.4423 1.0498C17.2244 1.04999 17.9752 1.36104 18.5282 1.91406L21.3564 5.74219C21.8403 6.22603 22.1387 6.86109 22.206 7.53613L22.2206 7.82812V20C22.2206 20.7823 21.9095 21.5328 21.3564 22.0859C20.8033 22.6389 20.0526 22.9501 19.2704 22.9502H7.52043C6.73827 22.95 5.98754 22.639 5.43449 22.0859C4.88148 21.5328 4.5703 20.7822 4.57024 20V18.5C4.57024 17.9755 4.99595 17.55 5.52043 17.5498C6.04507 17.5498 6.47063 17.9754 6.47063 18.5V20C6.47069 20.2783 6.58151 20.5453 6.77824 20.7422C6.85929 20.8232 7.02069 20.9035 7.22356 20.9629C7.42072 21.0206 7.62667 21.0497 7.77043 21.0498H8.26555V19.7686C8.26555 19.0006 8.26317 18.3285 8.34465 17.791C8.43166 17.2174 8.62904 16.6791 9.10832 16.2539C9.57309 15.8417 10.1364 15.6843 10.7314 15.6133C11.3112 15.5441 12.0438 15.5459 12.9189 15.5459H13.8691C14.7441 15.5459 15.4768 15.5441 16.0566 15.6133C16.6515 15.6843 17.2148 15.8418 17.6796 16.2539C18.1589 16.6791 18.3563 17.2174 18.4433 17.791C18.5248 18.3285 18.5224 19.0006 18.5224 19.7686V21.0498H19.2704C19.5487 21.0497 19.8158 20.9389 20.0126 20.7422C20.1849 20.5699 20.2915 20.3439 20.3154 20.1035L20.3202 20V7.82812C20.3202 7.54977 20.2094 7.28277 20.0126 7.08594L17.1845 3.25781C17.0135 3.08694 16.7896 2.98007 16.5517 2.95508L16.4325 2.9502H11.2187V6.0498H16.7685C17.2602 6.05 17.6652 6.42428 17.7138 6.90332L17.7187 7C17.7185 7.5244 17.2929 7.94999 16.7685 7.9502H10.2685C9.74424 7.9498 9.31845 7.52429 9.31828 7V2.9502H7.52043C7.24222 2.95037 6.97501 3.06107 6.77824 3.25781C6.58151 3.45466 6.47069 3.72172 6.47063 4V5.5C6.47063 6.02464 6.04507 6.45015 5.52043 6.4502C4.99595 6.44997 4.57024 6.02453 4.57024 5.5V4C4.5703 3.21777 4.88148 2.46719 5.43449 1.91406C5.98754 1.36104 6.73827 1.04998 7.52043 1.0498H16.4423ZM5.52043 17.75C5.10641 17.7502 4.77043 18.0859 4.77043 18.5V20C4.77049 20.7292 5.06056 21.4287 5.57609 21.9443C6.09166 22.4599 6.79134 22.7498 7.52043 22.75H7.52336C6.79424 22.7498 6.09461 22.4599 5.57902 21.9443C5.06346 21.4287 4.77342 20.7292 4.77336 20V18.5C4.77336 18.0866 5.10825 17.7512 5.52141 17.75H5.52043ZM16.5663 2.75586C16.8521 2.78442 17.1212 2.91141 17.3261 3.11621L20.1542 6.94434C20.3885 7.17868 20.5203 7.49672 20.5204 7.82812V20C20.5204 20.3314 20.3886 20.6494 20.1542 20.8838C19.9199 21.118 19.6017 21.2499 19.2704 21.25H19.2734C19.6047 21.2499 19.9228 21.118 20.1571 20.8838C20.3915 20.6494 20.5233 20.3314 20.5234 20V7.82812C20.5233 7.49672 20.3915 7.17868 20.1571 6.94434L17.329 3.11621C17.1241 2.91139 16.855 2.78443 16.5693 2.75586L16.4452 2.75H16.4423L16.5663 2.75586ZM12.9189 17.2451C12.001 17.2451 11.3881 17.2474 10.9325 17.3018C10.4925 17.3543 10.3286 17.4435 10.2363 17.5254C10.1586 17.5943 10.0776 17.7015 10.0253 18.0459C9.96762 18.4266 9.96477 18.9466 9.96477 19.7686V21.0498H16.8232V19.7686C16.8232 18.9466 16.8203 18.4266 16.7626 18.0459C16.7104 17.7014 16.6294 17.5943 16.5517 17.5254C16.4593 17.4435 16.2954 17.3543 15.8554 17.3018C15.3998 17.2474 14.7869 17.2451 13.8691 17.2451H12.9189ZM5.4882 8.29297C5.87873 7.90249 6.51176 7.90246 6.90227 8.29297C7.29266 8.68349 7.29271 9.31654 6.90227 9.70703L5.6093 11H13.1952C13.7474 11.0001 14.1952 11.4478 14.1952 12C14.1952 12.5522 13.7474 12.9999 13.1952 13H5.6093L6.90227 14.293C7.29266 14.6835 7.29271 15.3165 6.90227 15.707C6.51178 16.0975 5.87874 16.0974 5.4882 15.707L2.4882 12.707C2.09768 12.3165 2.09768 11.6835 2.4882 11.293L5.4882 8.29297ZM9.51848 7C9.51861 7.41388 9.85465 7.74964 10.2685 7.75H10.2714C9.85754 7.74969 9.52154 7.41391 9.52141 7V2.75H9.51848V7ZM7.52043 1.25C6.79134 1.25018 6.09166 1.54012 5.57609 2.05566C5.06056 2.57131 4.77049 3.27084 4.77043 4V5.5C4.77043 5.91407 5.10641 6.24977 5.52043 6.25L5.52141 6.24902C5.10825 6.24779 4.77336 5.91345 4.77336 5.5V4C4.77342 3.27082 5.06346 2.57132 5.57902 2.05566C6.09461 1.5401 6.79424 1.25015 7.52336 1.25H7.52043Z" fill="currentColor"/>
</svg>
