<svg width="24" height="24" viewBox="0 0 24 24" fill="none" xmlns="http://www.w3.org/2000/svg">
<path d="M1.4707 1.46967C1.7636 1.17678 2.23836 1.17678 2.53125 1.46967L22.5311 21.4695C22.824 21.7624 22.824 22.2372 22.5311 22.5301C22.2382 22.823 21.7635 22.823 21.4706 22.5301L19.901 20.9605C19.1962 21.3536 18.3928 21.543 17.4342 21.6406C16.3518 21.7507 14.9903 21.7501 13.251 21.7501H12.0011C9.66529 21.7501 7.83775 21.7516 6.41455 21.5604C4.96989 21.3662 3.82983 20.961 2.93481 20.0666L2.93445 20.0659C2.04021 19.1704 1.63486 18.0305 1.44067 16.5858C1.24941 15.1627 1.25098 13.3357 1.25098 10.9999V7.94391C1.25098 7.04934 1.25045 6.32972 1.30151 5.74994C1.35345 5.16029 1.46333 4.6444 1.72595 4.17304L1.72632 4.17231C1.8886 3.88172 2.08776 3.61466 2.31885 3.37836L1.4707 2.53022C1.17781 2.23732 1.17781 1.76256 1.4707 1.46967ZM21.2509 12.2498C21.2509 11.1803 21.25 10.4351 21.1915 9.86066C21.1343 9.299 21.0283 8.98398 20.8711 8.74848V8.74811C20.7071 8.50292 20.4963 8.29241 20.2511 8.12848C20.0163 7.97158 19.7014 7.86561 19.1397 7.80842C18.5652 7.74994 17.8199 7.74909 16.7509 7.74909H12.0245C12.0054 7.74968 11.9864 7.74996 11.9674 7.74909H11.001C10.5868 7.74909 10.2511 7.41324 10.251 6.99909C10.251 6.65418 10.484 6.36412 10.801 6.27656L10.697 6.06818C10.1345 4.94305 9.7719 4.20638 8.93665 3.89325L8.93591 3.89289C8.69411 3.80192 8.40392 3.76523 7.78345 3.75409L7.49634 3.7508H7.00086C6.5867 3.75073 6.25086 3.41497 6.25086 3.0008C6.25093 2.58669 6.58675 2.25086 7.00086 2.2508H7.50549C8.2978 2.2557 8.90038 2.27684 9.46399 2.48883H9.46362C10.9541 3.04778 11.5515 4.42297 12.0388 5.39765L12.4644 6.24909H16.7509C17.7887 6.24909 18.6236 6.2481 19.2916 6.31611C19.9723 6.3854 20.5624 6.53249 21.0846 6.88154C21.4936 7.15492 21.845 7.50599 22.1184 7.91498L22.1188 7.91572C22.4675 8.43816 22.6145 9.02796 22.6838 9.70868C22.7519 10.3767 22.7509 11.2115 22.7509 12.2498C22.7509 14.361 22.7537 15.9267 22.5505 17.1252C22.4813 17.5336 22.0939 17.8085 21.6855 17.7393C21.2773 17.6701 21.0023 17.283 21.0714 16.8747C21.2483 15.8312 21.2509 14.4186 21.2509 12.2498ZM2.75098 10.9999C2.75098 13.3781 2.7524 15.0862 2.92712 16.3862C3.09888 17.6639 3.42567 18.4349 3.995 19.0053C4.56494 19.5749 5.33602 19.9017 6.6145 20.0736C7.91456 20.2483 9.62291 20.2501 12.0011 20.2501H13.251C15.0216 20.2501 16.2937 20.2489 17.2826 20.1483C17.9071 20.0847 18.3842 19.9836 18.7745 19.834L3.38049 4.44001C3.24678 4.57879 3.13052 4.73419 3.03589 4.90363C2.91872 5.11417 2.83867 5.39311 2.79565 5.88141C2.75173 6.38012 2.75098 7.02254 2.75098 7.94391V10.9999Z" fill="currentColor"/>
</svg>
