<svg width="24" height="24" viewBox="0 0 24 24" fill="none" xmlns="http://www.w3.org/2000/svg">
<path d="M1.29298 1.29289C1.6835 0.902369 2.31749 0.902369 2.70802 1.29289L22.708 21.2929C23.0982 21.6834 23.0982 22.3165 22.708 22.707C22.3175 23.0975 21.6835 23.0975 21.293 22.707L17.3135 18.7275C16.0435 19.3714 14.6662 19.7821 13.2461 19.9335C11.5704 20.1121 9.87566 19.9284 8.27735 19.3945C6.67907 18.8604 5.21422 17.9887 3.98243 16.8388C2.75065 15.6888 1.78013 14.2873 1.13771 12.7294C1.13321 12.7185 1.12912 12.7073 1.12501 12.6962C0.95833 12.2472 0.95833 11.7527 1.12501 11.3036L1.13771 11.2704C1.94472 9.31344 3.26335 7.61964 4.94337 6.35735L1.29298 2.70696C0.902792 2.3165 0.902792 1.68335 1.29298 1.29289ZM6.37403 7.78801C4.88012 8.84372 3.70853 10.3014 3.00099 11.9989C3.53408 13.2787 4.33318 14.4306 5.34669 15.3769C6.36883 16.3311 7.58486 17.0539 8.91114 17.497C10.2374 17.9401 11.6437 18.0934 13.0342 17.9452C13.992 17.8431 14.9253 17.596 15.8076 17.2216L14.0303 15.4443C13.4098 15.81 12.6977 16.0062 11.9658 15.9999C10.917 15.9908 9.91352 15.5697 9.17189 14.828C8.43047 14.0865 8.01017 13.0837 8.00099 12.0351C7.99463 11.303 8.1888 10.5894 8.5547 9.96867L6.37403 7.78801ZM10.6152 4.08293C13.1613 3.77953 15.7368 4.31757 17.9483 5.61516C20.0216 6.83177 21.6682 8.65364 22.6709 10.83L22.8633 11.2695L22.876 11.3027C23.0427 11.7517 23.0427 12.2462 22.876 12.6952C22.8719 12.7063 22.8678 12.7175 22.8633 12.7284C22.4616 13.7023 21.93 14.6178 21.2842 15.4501C20.9456 15.8861 20.3181 15.9652 19.8818 15.6269C19.4455 15.2883 19.3656 14.6599 19.7041 14.2236C20.2325 13.5426 20.6674 12.7944 20.999 11.9989C20.1861 10.0468 18.7609 8.41137 16.9365 7.34074C15.1016 6.26402 12.9641 5.8175 10.8516 6.06926C10.3033 6.13443 9.80559 5.74256 9.74024 5.19426C9.67491 4.64587 10.0669 4.14829 10.6152 4.08293ZM10.0693 11.4833C10.0231 11.6561 9.99843 11.8356 10 12.0175C10.0046 12.5418 10.2153 13.0432 10.5859 13.414C10.9568 13.7848 11.459 13.9954 11.9834 13.9999C12.1651 14.0015 12.3441 13.9767 12.5166 13.9306L10.0693 11.4833Z" fill="currentColor"/>
</svg>
