<svg width="24" height="24" viewBox="0 0 24 24" fill="none" xmlns="http://www.w3.org/2000/svg">
<path d="M12.0009 3.99902C14.3278 3.99912 16.6024 4.69017 18.5361 5.98438C20.3489 7.19771 21.7859 8.88995 22.6894 10.8691L22.8632 11.2695L22.8759 11.3027C23.0425 11.7517 23.0425 12.2454 22.8759 12.6943C22.8718 12.7054 22.8677 12.7166 22.8632 12.7275C21.976 14.8787 20.4699 16.7184 18.5361 18.0127C16.6024 19.3069 14.3278 19.998 12.0009 19.998C9.67392 19.998 7.39863 19.307 5.46479 18.0127C3.53099 16.7184 2.02483 14.8787 1.13764 12.7275C1.13313 12.7166 1.12906 12.7054 1.12494 12.6943C0.958324 12.2454 0.95838 11.7517 1.12494 11.3027L1.13764 11.2695C2.02482 9.11838 3.53105 7.27866 5.46479 5.98438C7.39863 4.69008 9.67392 3.99902 12.0009 3.99902ZM12.0009 5.99902C10.07 5.99902 8.18177 6.5725 6.57709 7.64648C4.98265 8.71371 3.73885 10.2276 3.00092 11.998C3.73884 13.7688 4.98241 15.2832 6.57709 16.3506C8.18177 17.4246 10.07 17.998 12.0009 17.998C13.9317 17.998 15.8192 17.4245 17.4238 16.3506C19.0184 15.2833 20.261 13.7687 20.999 11.998C20.261 10.2277 19.0181 8.71364 17.4238 7.64648C15.8192 6.57258 13.9317 5.99912 12.0009 5.99902ZM14.0009 11.998C14.0007 10.8938 13.1052 9.9983 12.0009 9.99805C10.8965 9.99805 10.0011 10.8936 10.0009 11.998C10.0009 13.1026 10.8964 13.998 12.0009 13.998C13.1053 13.9978 14.0009 13.1025 14.0009 11.998ZM16.0009 11.998C16.0009 14.207 14.2098 15.9978 12.0009 15.998C9.79178 15.998 8.00092 14.2072 8.00092 11.998C8.00112 9.78907 9.7919 7.99805 12.0009 7.99805C14.2097 7.9983 16.0007 9.78923 16.0009 11.998Z" fill="currentColor"/>
</svg>
