<svg width="24" height="24" viewBox="0 0 24 24" fill="none" xmlns="http://www.w3.org/2000/svg">
<path d="M8.29297 11.293C8.68349 10.9024 9.31651 10.9024 9.70703 11.293L12.707 14.293C13.0976 14.6835 13.0976 15.3165 12.707 15.707L9.70703 18.707C9.31651 19.0976 8.68349 19.0976 8.29297 18.707C7.90245 18.3165 7.90245 17.6835 8.29297 17.293L9.58594 16H2C1.44772 16 1 15.5523 1 15C1 14.4477 1.44772 14 2 14H9.58594L8.29297 12.707C7.90245 12.3165 7.90245 11.6835 8.29297 11.293ZM3 11V4C3 3.20435 3.3163 2.44151 3.87891 1.87891C4.44151 1.3163 5.20435 1 6 1H14V1.00049C14.4481 0.999712 14.8921 1.08695 15.3062 1.2583C15.7209 1.42996 16.0977 1.68202 16.4146 2H16.4141L19.9995 5.58545C20.3175 5.90229 20.57 6.27908 20.7417 6.69385C20.913 7.1079 21.0008 7.55191 21 8V20C21 20.7956 20.6837 21.5585 20.1211 22.1211C19.5585 22.6837 18.7957 23 18 23H6C5.20435 23 4.44152 22.6837 3.87891 22.1211C3.3163 21.5585 3 20.7956 3 20V19C3 18.4477 3.44772 18 4 18C4.55228 18 5 18.4477 5 19V20C5 20.2652 5.10543 20.5195 5.29297 20.707C5.48051 20.8946 5.73478 21 6 21H18C18.2652 21 18.5195 20.8946 18.707 20.707C18.8946 20.5195 19 20.2652 19 20V9H15C14.4696 9 13.961 8.78913 13.5859 8.41406C13.2109 8.03899 13 7.53043 13 7V3H6C5.73479 3 5.4805 3.10543 5.29297 3.29297C5.10543 3.4805 5 3.73479 5 4V11C5 11.5523 4.55228 12 4 12C3.44772 12 3 11.5523 3 11ZM18.5859 7L15 3.41406V7H18.5859Z" fill="currentColor"/>
</svg>
