<svg width="24" height="24" viewBox="0 0 24 24" fill="none" xmlns="http://www.w3.org/2000/svg">
<path d="M4.29289 10.293C4.68341 9.90245 5.31643 9.90245 5.70695 10.293C6.09748 10.6835 6.09747 11.3165 5.70695 11.707L4.41399 13H11.9999C12.5522 13 12.9999 13.4477 12.9999 14C12.9999 14.5523 12.5522 15 11.9999 15H4.41399L5.70695 16.293C6.09748 16.6835 6.09747 17.3165 5.70695 17.707C5.31643 18.0976 4.68342 18.0976 4.29289 17.707L1.29289 14.707C0.902371 14.3165 0.902368 13.6835 1.29289 13.293L4.29289 10.293ZM2.99992 7.12695V4C2.99992 3.20435 3.31622 2.44151 3.87883 1.87891C4.44144 1.3163 5.20428 1 5.99992 1H13.9999C14.448 0.999224 14.892 1.08695 15.3061 1.2583C15.7208 1.42996 16.0976 1.68202 16.4145 2L19.9994 5.58545C20.3174 5.90229 20.57 6.27908 20.7416 6.69385C20.913 7.1079 21.0007 7.55191 20.9999 8V20C20.9999 20.7956 20.6836 21.5585 20.121 22.1211C19.5584 22.6837 18.7956 23 17.9999 23H5.99992C5.45147 23.0001 4.91332 22.8502 4.44426 22.5659C3.97515 22.2816 3.59299 21.874 3.33928 21.3877C3.08385 20.898 3.27393 20.294 3.76359 20.0386C4.25325 19.7832 4.85729 19.9728 5.11272 20.4624C5.19729 20.6245 5.32449 20.7607 5.48088 20.8555C5.63722 20.9502 5.81664 21.0001 5.99943 21H17.9999C18.2651 21 18.5194 20.8946 18.707 20.707C18.8945 20.5195 18.9999 20.2652 18.9999 20V9H14.9999C14.4695 9 13.9609 8.78913 13.5859 8.41406C13.2108 8.03899 12.9999 7.53043 12.9999 7V3H5.99992C5.73471 3 5.48043 3.10543 5.29289 3.29297C5.10536 3.4805 4.99992 3.73479 4.99992 4V7.12695C4.99992 7.67924 4.55221 8.12695 3.99992 8.12695C3.44764 8.12695 2.99992 7.67924 2.99992 7.12695ZM18.5859 7L14.9999 3.41406V7H18.5859Z" fill="currentColor"/>
</svg>
