<svg width="20" height="20" viewBox="0 0 20 20" fill="none" xmlns="http://www.w3.org/2000/svg">
<path d="M13.3346 18.3333H15.0013C15.4433 18.3333 15.8673 18.1577 16.1798 17.8451C16.4924 17.5326 16.668 17.1087 16.668 16.6666V6.66663M16.668 6.66663C16.6686 6.40256 16.617 6.14097 16.516 5.89696C16.415 5.65295 16.2667 5.43136 16.0796 5.24497L13.0896 2.25497C12.9032 2.0679 12.6816 1.9196 12.4376 1.81862C12.1936 1.71764 11.932 1.66598 11.668 1.66663M16.668 6.66663H12.5013C12.2803 6.66663 12.0683 6.57883 11.912 6.42255C11.7558 6.26627 11.668 6.05431 11.668 5.8333V1.66663M11.668 1.66663H5.0013C4.55927 1.66663 4.13535 1.84223 3.82279 2.15479C3.51023 2.46735 3.33464 2.89127 3.33464 3.3333V5.7083M6.66797 11.6666V13.5L8.0013 14.3333M11.668 13.3333C11.668 16.0947 9.42939 18.3333 6.66797 18.3333C3.90655 18.3333 1.66797 16.0947 1.66797 13.3333C1.66797 10.5719 3.90655 8.3333 6.66797 8.3333C9.42939 8.3333 11.668 10.5719 11.668 13.3333Z" stroke="currentColor" stroke-width="2" stroke-linecap="round" stroke-linejoin="round"/>
</svg>
