<svg width="24" height="24" viewBox="0 0 24 24" fill="none" xmlns="http://www.w3.org/2000/svg">
<path d="M14.1724 15C14.9679 15.0002 15.731 15.3163 16.2935 15.8789H16.293L17.707 17.293C18.1965 17.7825 18.4397 18 19 18C19.5304 18 20.039 17.7891 20.4141 17.4141C20.7891 17.039 21 16.5304 21 16C21 14.5323 20.4083 9.57706 20.3223 8.86133V8.86084C20.3176 8.82567 20.3139 8.79412 20.3115 8.771C20.3082 8.73885 20.3067 8.72486 20.3047 8.70801C20.3041 8.70318 20.3037 8.69819 20.3032 8.69336C20.2273 7.95484 19.8802 7.27042 19.3291 6.77295C18.8125 6.30663 18.1509 6.03564 17.4585 6.00342L17.3198 6H6.68018C5.93791 6.00019 5.22195 6.27565 4.6709 6.77295C4.11993 7.27023 3.77288 7.9541 3.69678 8.69238C3.69636 8.69642 3.69578 8.70056 3.69531 8.70459C3.6951 8.70646 3.68497 8.80017 3.67725 8.86084L3.67773 8.86133C3.59172 9.57704 3 14.5333 3 16C3 16.5304 3.21087 17.039 3.58594 17.4141C3.96101 17.7891 4.46957 18 5 18C5.56032 18 5.80347 17.7825 6.29297 17.293L7.70654 15.8789C8.26899 15.3163 9.03211 15.0002 9.82764 15H14.1724ZM7 13V12H6C5.44772 12 5 11.5523 5 11C5 10.4477 5.44772 10 6 10H7V9C7 8.44772 7.44772 8 8 8C8.55228 8 9 8.44772 9 9V10H10C10.5523 10 11 10.4477 11 11C11 11.5523 10.5523 12 10 12H9V13C9 13.5523 8.55228 14 8 14C7.44772 14 7 13.5523 7 13ZM15.0098 11C15.5621 11 16.0098 11.4477 16.0098 12C16.0098 12.5523 15.5621 13 15.0098 13H15C14.4477 13 14 12.5523 14 12C14 11.4477 14.4477 11 15 11H15.0098ZM18.0098 9C18.562 9 19.0098 9.44772 19.0098 10C19.0098 10.5523 18.562 11 18.0098 11H18C17.4477 11 17 10.5523 17 10C17 9.44772 17.4477 9 18 9H18.0098ZM23 16C23 17.0609 22.5788 18.0785 21.8286 18.8286C21.0785 19.5788 20.0609 20 19 20C17.5603 20 16.8035 19.2175 16.293 18.707L14.8789 17.293C14.7148 17.1288 14.4994 17.0276 14.2705 17.0049L14.1719 17H9.82812C9.56296 17.0001 9.30857 17.1054 9.12109 17.293L7.70703 18.707C7.19653 19.2175 6.43968 20 5 20C3.93913 20 2.92153 19.5788 2.17139 18.8286C1.42124 18.0785 1 17.0609 1 16C1 14.3787 1.61639 9.25493 1.69238 8.62256C1.69305 8.61705 1.69358 8.61146 1.69434 8.60596C1.70035 8.56216 1.69677 8.57724 1.7085 8.47559C1.8378 7.24951 2.41558 6.11427 3.33105 5.28809C4.24948 4.45924 5.44256 4.00031 6.67969 4H17.3203L17.5518 4.00537C18.7057 4.05912 19.8084 4.51129 20.6694 5.28857C21.5879 6.11769 22.1665 7.25794 22.293 8.48877H22.2925L22.3052 8.60352L22.3076 8.62256C22.3836 9.25491 23 14.3777 23 16Z" fill="currentColor"/>
</svg>
