<svg width="24" height="24" viewBox="0 0 24 24" fill="none" xmlns="http://www.w3.org/2000/svg">
<g clip-path="url(#clip0_1426_19536)">
<path d="M2.00294 15.9998C2.55472 16.0014 2.99992 16.45 2.99903 17.0017L11.5918 20.9089C11.7214 20.9676 11.8627 20.9978 12.0049 20.9978C12.1472 20.9978 12.2884 20.9676 12.418 20.9089L14.5322 19.948C15.035 19.7194 15.6278 19.9414 15.8565 20.4441C16.085 20.9467 15.8628 21.5396 15.3604 21.7683L13.2441 22.7302L13.2422 22.7312C12.8535 22.9072 12.4316 22.9978 12.0049 22.9978C11.5782 22.9978 11.1563 22.9072 10.7676 22.7312L10.7666 22.7302L2.16602 18.8201L2.16016 18.8181C1.8131 18.6575 1.51908 18.4003 1.31348 18.0779C1.10791 17.7553 0.999091 17.3803 1.00001 16.9978C1.00137 16.4455 1.45065 15.9984 2.00294 15.9998ZM18 19.9998V17.9998H16C15.4477 17.9998 15 17.552 15 16.9998C15.0002 16.4476 15.4478 15.9998 16 15.9998H18V13.9998C18.0002 13.4476 18.4478 12.9998 19 12.9998C19.5522 12.9998 19.9998 13.4476 20 13.9998V15.9998H22C22.5522 15.9998 22.9998 16.4476 23 16.9998C23 17.552 22.5523 17.9998 22 17.9998H20V19.9998C20 20.552 19.5523 20.9998 19 20.9998C18.4477 20.9998 18 20.552 18 19.9998ZM2.00294 10.9998C2.55472 11.0014 2.99992 11.45 2.99903 12.0017L11.5918 15.9089C11.7214 15.9676 11.8626 15.9978 12.0049 15.9978C12.5571 15.9978 13.0047 16.4456 13.0049 16.9978C13.0049 17.5501 12.5572 17.9978 12.0049 17.9978C11.5782 17.9978 11.1563 17.9072 10.7676 17.7312L10.7666 17.7302L2.16602 13.8201L2.16016 13.8181C1.8131 13.6575 1.51908 13.4003 1.31348 13.0779C1.10791 12.7553 0.999091 12.3803 1.00001 11.9978C1.00137 11.4455 1.45065 10.9984 2.00294 10.9998ZM1.00391 6.99487C1.00396 6.60715 1.11641 6.22789 1.32813 5.90308C1.5378 5.58149 1.83536 5.32658 2.18555 5.16968L10.7549 1.27124C11.1457 1.09296 11.5704 0.999756 12 0.999756C12.4296 0.999756 12.8543 1.09199 13.2451 1.27026L13.2441 1.27124L21.834 5.17847C22.1847 5.33506 22.4823 5.58916 22.6924 5.91089C22.9047 6.23603 23.0176 6.61635 23.0176 7.00464C23.0176 7.39292 22.9047 7.77326 22.6924 8.09839C22.4823 8.41999 22.1836 8.67323 21.833 8.82983L13.2539 12.7292C12.8631 12.9072 12.4392 12.9989 12.0098 12.9988C11.5805 12.9989 11.1563 12.9082 10.7656 12.7302L2.18555 8.82007C1.83567 8.66318 1.53768 8.40898 1.32813 8.08765C1.1163 7.76273 1.00391 7.38274 1.00391 6.99487ZM11.5947 10.9099C11.725 10.9693 11.8666 10.9998 12.0098 10.9998C12.1528 10.9998 12.2956 10.9692 12.4258 10.9099L21.0059 7.00952L21.0176 7.00464L21.0059 6.99976L12.416 3.09058L12.415 3.0896C12.2848 3.0302 12.1432 2.99976 12 2.99976C11.8568 2.99976 11.7152 3.0302 11.585 3.0896L11.584 3.09058L3.00391 6.99487L11.5947 10.9099Z" fill="#7F8A94"/>
</g>
<defs>
<clipPath id="clip0_1426_19536">
<rect width="24" height="24" fill="white"/>
</clipPath>
</defs>
</svg>
