<svg width="24" height="24" viewBox="0 0 24 24" fill="none" xmlns="http://www.w3.org/2000/svg">
<path d="M1 12C1 10.4087 1.63211 8.88254 2.75732 7.75732C3.88254 6.63211 5.4087 6 7 6H9C9.55228 6 10 6.44772 10 7C10 7.55228 9.55228 8 9 8H7C5.93913 8 4.92153 8.42124 4.17139 9.17139C3.42124 9.92153 3 10.9391 3 12C3 13.0609 3.42124 14.0785 4.17139 14.8286C4.92153 15.5788 5.93913 16 7 16H9C9.55228 16 10 16.4477 10 17C10 17.5523 9.55228 18 9 18H7C5.4087 18 3.88254 17.3679 2.75732 16.2427C1.63211 15.1175 1 13.5913 1 12ZM21 12C21 10.9391 20.5788 9.92153 19.8286 9.17139C19.0785 8.42124 18.0609 8 17 8H15C14.4477 8 14 7.55228 14 7C14 6.44772 14.4477 6 15 6H17C18.5913 6 20.1175 6.63211 21.2427 7.75732C22.3679 8.88254 23 10.4087 23 12C23 13.5913 22.3679 15.1175 21.2427 16.2427C20.1175 17.3679 18.5913 18 17 18H15C14.4477 18 14 17.5523 14 17C14 16.4477 14.4477 16 15 16H17C18.0609 16 19.0785 15.5788 19.8286 14.8286C20.5788 14.0785 21 13.0609 21 12ZM16 11C16.5523 11 17 11.4477 17 12C17 12.5523 16.5523 13 16 13H8C7.44772 13 7 12.5523 7 12C7 11.4477 7.44772 11 8 11H16Z" fill="currentColor"/>
</svg>
