<svg width="24" height="24" viewBox="0 0 24 24" fill="none" xmlns="http://www.w3.org/2000/svg">
<path d="M21 4C21.5523 4 22 4.44772 22 5C22 5.55228 21.5523 6 21 6H11C10.4477 6 10 5.55228 10 5C10 4.44772 10.4477 4 11 4H21Z" fill="currentColor"/>
<path d="M21 11C21.5523 11 22 11.4477 22 12C22 12.5523 21.5523 13 21 13H11C10.4477 13 10 12.5523 10 12C10 11.4477 10.4477 11 11 11H21Z" fill="currentColor"/>
<path d="M21 18C21.5523 18 22 18.4477 22 19C22 19.5523 21.5523 20 21 20H11C10.4477 20 10 19.5523 10 19C10 18.4477 10.4477 18 11 18H21Z" fill="currentColor"/>
<path d="M2.29289 7.29289C2.68342 6.90237 3.31643 6.90237 3.70696 7.29289L7.70696 11.2929C8.09748 11.6834 8.09748 12.3164 7.70696 12.707L3.70696 16.707C3.31643 17.0975 2.68342 17.0975 2.29289 16.707C1.90237 16.3164 1.90237 15.6834 2.29289 15.2929L5.58586 11.9999L2.29289 8.70696C1.90237 8.31643 1.90237 7.68342 2.29289 7.29289Z" fill="currentColor"/>
</svg>
