<svg width="24" height="24" viewBox="0 0 24 24" fill="none" xmlns="http://www.w3.org/2000/svg">
<path d="M2 18.5V4.5C2 3.70435 2.3163 2.94152 2.87891 2.37891C3.44152 1.8163 4.20435 1.5 5 1.5H9C9.55228 1.5 10 1.94772 10 2.5C10 3.05228 9.55228 3.5 9 3.5H5C4.73478 3.5 4.4805 3.60543 4.29297 3.79297C4.10543 3.9805 4 4.23478 4 4.5V18.5C4 18.7652 4.10543 19.0195 4.29297 19.207C4.48051 19.3946 4.73478 19.5 5 19.5H9C9.55228 19.5 10 19.9477 10 20.5C10 21.0523 9.55228 21.5 9 21.5H5C4.20435 21.5 3.44152 21.1837 2.87891 20.6211C2.3163 20.0585 2 19.2957 2 18.5ZM15.293 5.79297C15.6835 5.40244 16.3165 5.40244 16.707 5.79297L21.707 10.793C22.0976 11.1835 22.0976 11.8165 21.707 12.207L16.707 17.207C16.3165 17.5976 15.6835 17.5976 15.293 17.207C14.9024 16.8165 14.9024 16.1835 15.293 15.793L18.5859 12.5H9C8.44772 12.5 8 12.0523 8 11.5C8 10.9477 8.44772 10.5 9 10.5H18.5859L15.293 7.20703C14.9024 6.81651 14.9024 6.18349 15.293 5.79297Z" fill="currentColor"/>
</svg>
