<svg width="24" height="24" viewBox="0 0 24 24" fill="none" xmlns="http://www.w3.org/2000/svg">
<path d="M20 18.5V4.5C20 4.23478 19.8946 3.98051 19.707 3.79297C19.5195 3.60543 19.2652 3.5 19 3.5H15C14.4477 3.5 14 3.05228 14 2.5C14 1.94772 14.4477 1.5 15 1.5H19C19.7957 1.5 20.5585 1.8163 21.1211 2.37891C21.6837 2.94152 22 3.70435 22 4.5V18.5C22 19.2957 21.6837 20.0585 21.1211 20.6211C20.5585 21.1837 19.7957 21.5 19 21.5H15C14.4477 21.5 14 21.0523 14 20.5C14 19.9477 14.4477 19.5 15 19.5H19C19.2652 19.5 19.5195 19.3946 19.707 19.207C19.8946 19.0195 20 18.7652 20 18.5ZM9.29297 5.79297C9.68349 5.40244 10.3165 5.40244 10.707 5.79297L15.707 10.793C16.0976 11.1835 16.0976 11.8165 15.707 12.207L10.707 17.207C10.3165 17.5976 9.68349 17.5976 9.29297 17.207C8.90244 16.8165 8.90244 16.1835 9.29297 15.793L12.5859 12.5H3C2.44772 12.5 2 12.0523 2 11.5C2 10.9477 2.44772 10.5 3 10.5H12.5859L9.29297 7.20703C8.90244 6.81651 8.90244 6.18349 9.29297 5.79297Z" fill="currentColor"/>
</svg>
