<svg width="24" height="24" viewBox="0 0 24 24" fill="none" xmlns="http://www.w3.org/2000/svg">
<path d="M21 8.82227L13.5464 13.5703C13.5349 13.5776 13.523 13.5849 13.5112 13.5918C13.0536 13.8576 12.5336 13.9976 12.0044 13.9976C11.4752 13.9975 10.9552 13.8576 10.4976 13.5918C10.486 13.5851 10.4747 13.578 10.4634 13.5708L3 8.82129V18C3 18.5523 3.44772 19 4 19H20C20.5523 19 21 18.5523 21 18V8.82227ZM21 6C21 5.44771 20.5523 5 20 5H4C3.44772 5 3 5.44772 3 6V6.45068L11.5098 11.8662C11.6605 11.9521 11.8308 11.9975 12.0044 11.9976C12.1773 11.9976 12.3472 11.9524 12.4976 11.8672L21 6.45117V6ZM23 18C23 19.6569 21.6569 21 20 21H4C2.34315 21 1 19.6569 1 18V6C1 4.34315 2.34315 3 4 3H20C21.6569 3 23 4.34315 23 6V18Z" fill="currentColor"/>
</svg>
