<svg width="24" height="24" viewBox="0 0 24 24" fill="none" xmlns="http://www.w3.org/2000/svg">
<path d="M5.60595 3.04939C7.7154 1.54248 10.2893 0.828892 12.8735 1.03475C15.4577 1.24061 17.8862 2.35257 19.7305 4.17439C21.5748 5.99629 22.7162 8.41121 22.9536 10.9928C23.191 13.5742 22.5093 16.1566 21.0283 18.2843C19.5473 20.4119 17.3622 21.9484 14.8589 22.6221C12.3735 23.291 9.73295 23.0665 7.39648 21.9898C7.23594 21.9322 7.06363 21.9166 6.8955 21.9444L3.5371 22.9263C3.52914 22.9287 3.52119 22.9311 3.51318 22.9332C3.18396 23.0205 2.83793 23.0224 2.5078 22.9386C2.17762 22.8546 1.87407 22.6877 1.62646 22.4537C1.37892 22.2197 1.19519 21.9265 1.09277 21.6016C0.990328 21.2767 0.972376 20.9309 1.04101 20.5972L1.06933 20.4908L2.11523 17.2589C2.14793 17.0804 2.13143 16.8967 2.06737 16.7266C0.961769 14.4033 0.705231 11.7653 1.34374 9.27156C1.98684 6.76016 3.49649 4.55635 5.60595 3.04939ZM12.7148 3.0284C10.6005 2.85997 8.49446 3.44391 6.76855 4.67684C5.04262 5.9098 3.80742 7.71287 3.28124 9.76766C2.77158 11.7581 2.95873 13.8611 3.8081 15.7276L3.89257 15.9078L3.92138 15.9732C4.14193 16.5296 4.19113 17.1392 4.06249 17.7237C4.05558 17.7551 4.047 17.7864 4.0371 17.817L3.00732 20.9976L6.38915 20.0089L6.47509 19.9879C6.95767 19.8921 7.45529 19.9169 7.92431 20.0582L8.12353 20.1261L8.19189 20.1549C10.1137 21.0523 12.2907 21.2422 14.3389 20.691C16.3871 20.1398 18.1749 18.8825 19.3867 17.1417C20.5984 15.4008 21.1566 13.288 20.9624 11.1759C20.7682 9.06371 19.8341 7.08788 18.3252 5.59725C16.8163 4.10664 14.8292 3.19686 12.7148 3.0284ZM8.00976 10.9996C8.56195 10.9996 9.00966 11.4474 9.00976 11.9996C9.00976 12.5518 8.56201 12.9995 8.00976 12.9996H7.9995C7.4473 12.9995 6.9995 12.5518 6.9995 11.9996C6.9996 11.4474 7.44736 10.9997 7.9995 10.9996H8.00976ZM12.0098 10.9996C12.5619 10.9996 13.0097 11.4474 13.0098 11.9996C13.0098 12.5518 12.562 12.9995 12.0098 12.9996H11.9995C11.4473 12.9995 10.9995 12.5518 10.9995 11.9996C10.9996 11.4474 11.4474 10.9997 11.9995 10.9996H12.0098ZM16.0098 10.9996C16.5619 10.9996 17.0097 11.4474 17.0098 11.9996C17.0098 12.5518 16.562 12.9995 16.0098 12.9996H15.9995C15.4473 12.9995 14.9995 12.5518 14.9995 11.9996C14.9996 11.4474 15.4474 10.9997 15.9995 10.9996H16.0098Z" fill="currentColor"/>
</svg>
