<svg width="24" height="24" viewBox="0 0 24 24" fill="none" xmlns="http://www.w3.org/2000/svg">
<path fill-rule="evenodd" clip-rule="evenodd" d="M5.60641 3.04937C7.71579 1.54251 10.2899 0.828939 12.874 1.03473C15.4582 1.24059 17.8871 2.35255 19.7314 4.17437C21.5756 5.99625 22.7167 8.41127 22.9541 10.9927C23.1914 13.574 22.51 16.1562 21.0293 18.2837C19.5482 20.4114 17.3626 21.9479 14.8593 22.6216C12.3741 23.2905 9.73379 23.0664 7.39742 21.9898C7.23697 21.9322 7.06449 21.9161 6.89645 21.9439L3.53805 22.9263C3.53009 22.9287 3.52165 22.931 3.51363 22.9332C3.18455 23.0204 2.83875 23.0218 2.50875 22.938C2.17857 22.8541 1.87453 22.6877 1.62692 22.4537C1.37941 22.2197 1.19612 21.9259 1.09371 21.6011C0.991357 21.2763 0.97336 20.9308 1.04195 20.5972L1.07027 20.4908L2.11617 17.2584C2.14878 17.08 2.13233 16.896 2.06832 16.7261C0.962801 14.4028 0.706197 11.7647 1.34469 9.27105C1.98782 6.75991 3.49718 4.55624 5.60641 3.04937ZM8.00094 10.9996C7.44889 10.9997 7.00119 11.4476 7.00094 11.9996C7.00094 12.5518 7.44874 12.9995 8.00094 12.9996H8.0107C8.56295 12.9995 9.0107 12.5518 9.0107 11.9996C9.01045 11.4475 8.5628 10.9996 8.0107 10.9996H8.00094ZM12.0009 10.9996C11.4489 10.9997 11.0012 11.4476 11.0009 11.9996C11.0009 12.5518 11.4487 12.9995 12.0009 12.9996H12.0107C12.563 12.9995 13.0107 12.5518 13.0107 11.9996C13.0105 11.4475 12.5628 10.9996 12.0107 10.9996H12.0009ZM16.0009 10.9996C15.4489 10.9997 15.0012 11.4476 15.0009 11.9996C15.0009 12.5518 15.4487 12.9995 16.0009 12.9996H16.0107C16.563 12.9995 17.0107 12.5518 17.0107 11.9996C17.0104 11.4475 16.5628 10.9996 16.0107 10.9996H16.0009Z" fill="currentColor"/>
</svg>
