<svg width="24" height="24" viewBox="0 0 24 24" fill="none" xmlns="http://www.w3.org/2000/svg">
<path d="M5.60595 3.04964C7.7154 1.54273 10.2893 0.829136 12.8735 1.03499C15.4577 1.24085 17.8862 2.35281 19.7305 4.17464C21.5748 5.99654 22.7162 8.41146 22.9536 10.993C23.191 13.5745 22.5093 16.1568 21.0283 18.2845C19.5473 20.4122 17.3622 21.9486 14.8589 22.6224C12.3735 23.2913 9.73295 23.0668 7.39648 21.9901C7.23594 21.9324 7.06363 21.9168 6.8955 21.9447L3.5371 22.9266C3.52914 22.9289 3.52119 22.9313 3.51318 22.9334C3.18396 23.0208 2.83793 23.0227 2.5078 22.9388C2.17762 22.8549 1.87407 22.6879 1.62646 22.4539C1.37892 22.22 1.19519 21.9267 1.09277 21.6019C0.990328 21.277 0.972376 20.9312 1.04101 20.5975L1.06933 20.491L2.11523 17.2591C2.14793 17.0806 2.13143 16.8969 2.06737 16.7269C0.961769 14.4035 0.705231 11.7655 1.34374 9.27181C1.98684 6.7604 3.49649 4.55659 5.60595 3.04964ZM12.7148 3.02864C10.6005 2.86022 8.49446 3.44416 6.76855 4.67708C5.04262 5.91004 3.80742 7.71311 3.28124 9.7679C2.77158 11.7584 2.95873 13.8613 3.8081 15.7279L3.89257 15.908L3.92138 15.9735C4.14193 16.5298 4.19113 17.1395 4.06249 17.724C4.05558 17.7553 4.047 17.7866 4.0371 17.8172L3.00732 20.9979L6.38915 20.0091L6.47509 19.9881C6.95767 19.8924 7.45529 19.9171 7.92431 20.0584L8.12353 20.1263L8.19189 20.1551C10.1137 21.0525 12.2907 21.2424 14.3389 20.6912C16.3871 20.14 18.1749 18.8828 19.3867 17.1419C20.5984 15.4011 21.1566 13.2882 20.9624 11.1761C20.7682 9.06396 19.8341 7.08813 18.3252 5.59749C16.8163 4.10688 14.8292 3.1971 12.7148 3.02864ZM10.9995 15.9998V12.9998H7.9995C7.4473 12.9997 6.9995 12.5521 6.9995 11.9998C6.9996 11.4477 7.44736 10.9999 7.9995 10.9998H10.9995V7.99983C10.9996 7.44769 11.4474 6.99993 11.9995 6.99983C12.5517 6.99983 12.9994 7.44763 12.9995 7.99983V10.9998H15.9995C16.5517 10.9998 16.9994 11.4476 16.9995 11.9998C16.9995 12.5521 16.5518 12.9998 15.9995 12.9998H12.9995V15.9998C12.9995 16.5521 12.5518 16.9998 11.9995 16.9998C11.4473 16.9997 10.9995 16.5521 10.9995 15.9998Z" fill="currentColor"/>
</svg>
