<svg width="24" height="24" viewBox="0 0 24 24" fill="none" xmlns="http://www.w3.org/2000/svg">
<path d="M9.32329 8.00786C9.58131 7.97746 9.84371 8.01426 10.084 8.11626H10.0831L21.0713 12.6114L21.0723 12.6124C21.3295 12.7178 21.5519 12.8921 21.7149 13.1153L21.7803 13.2139L21.8389 13.3165C21.9648 13.5624 22.0206 13.8393 21.9991 14.1163C21.9744 14.4327 21.8499 14.7334 21.6436 14.9747C21.4373 15.2159 21.1594 15.3845 20.8506 15.4581L20.8516 15.459L16.503 16.5L15.4629 20.8438C15.3902 21.1536 15.222 21.4335 14.9805 21.6407C14.739 21.8478 14.4374 21.9723 14.1202 21.9971C13.8029 22.0218 13.4856 21.9456 13.2149 21.7784C12.9441 21.611 12.7332 21.3613 12.6133 21.0665V21.0655L8.11431 10.0684V10.0674C8.0023 9.79627 7.97237 9.49823 8.02837 9.21001L8.05376 9.10161C8.12218 8.85073 8.25472 8.62136 8.4395 8.43657L8.52153 8.3604C8.71845 8.19093 8.95665 8.07526 9.21294 8.02544L9.32329 8.00786ZM13.878 18.875L14.5577 16.0333V16.0323C14.6439 15.6736 14.8279 15.3458 15.0889 15.085C15.35 14.8243 15.6784 14.6406 16.0372 14.5547L18.877 13.8741L10.4161 10.4131L13.878 18.875ZM5.27837 11.3116C5.65871 10.9113 6.29106 10.8952 6.69146 11.2754C7.09171 11.6557 7.10852 12.2881 6.72857 12.6885L4.82817 14.6885C4.4478 15.0889 3.81452 15.106 3.41411 14.7256C3.01375 14.3453 2.99773 13.712 3.37798 13.3116L5.27837 11.3116ZM1.23931 6.93462C1.38615 6.40231 1.93648 6.08968 2.4688 6.23638L5.36919 7.03618C5.90155 7.18308 6.2143 7.73427 6.06743 8.26665C5.92041 8.79882 5.36924 9.11075 4.83696 8.96392L1.93755 8.16411C1.40524 8.01727 1.09261 7.46694 1.23931 6.93462ZM13.3145 3.37505C13.7149 2.9948 14.3482 3.01082 14.7286 3.41118C15.1089 3.81159 15.0919 4.44487 14.6915 4.82525L12.6915 6.72564C12.291 7.10559 11.6586 7.08879 11.2784 6.68853C10.8981 6.28813 10.9142 5.65579 11.3145 5.27544L13.3145 3.37505ZM6.93755 1.23638C7.46987 1.08968 8.0202 1.40231 8.16704 1.93462L8.96685 4.83403C9.11368 5.36631 8.80175 5.91748 8.26958 6.0645C7.7372 6.21137 7.18601 5.89862 7.03911 5.36626L6.23931 2.46587C6.09261 1.93355 6.40524 1.38322 6.93755 1.23638Z" fill="currentColor"/>
</svg>
