<svg width="24" height="24" viewBox="0 0 24 24" fill="none" xmlns="http://www.w3.org/2000/svg">
<path d="M20.9999 4.81885C21 4.33645 20.8082 3.87338 20.4672 3.53223C20.1261 3.19112 19.6634 2.99957 19.181 2.99951C18.6987 2.99945 18.2361 3.19117 17.8949 3.53223L17.8944 3.53174L16.4203 5.00635L18.9926 7.57861L20.4667 6.10498V6.10449C20.8078 5.76349 20.9998 5.30114 20.9999 4.81885ZM20.9999 20C21.5521 20 21.9999 20.4477 21.9999 21C21.9998 21.5522 21.5521 22 20.9999 22H12.9999C12.4476 22 12 21.5522 11.9999 21C11.9999 20.4477 12.4476 20 12.9999 20H20.9999ZM4.54921 16.8809L4.54775 16.8818C4.43238 16.9969 4.34646 17.1384 4.29823 17.2939L3.2499 20.7485L6.70644 19.7007C6.86224 19.6532 7.00398 19.5684 7.11952 19.4536L17.5785 8.99268L15.0062 6.42041L4.54921 16.8809ZM22.9999 4.81885C22.9998 5.76833 22.646 6.68139 22.0116 7.38184L21.8808 7.51904L19.7934 9.60645C19.7668 9.64112 19.7387 9.6753 19.7069 9.70703C19.6752 9.73877 19.641 9.76688 19.6063 9.79346L8.53407 20.8682L8.53261 20.8691C8.18492 21.2157 7.75764 21.4719 7.28798 21.6147H7.287L2.93398 22.9351L2.93154 22.9355C2.67225 23.0135 2.39673 23.0196 2.13417 22.9536C1.87163 22.8876 1.63193 22.7518 1.44032 22.5605C1.24871 22.3692 1.11224 22.1297 1.04579 21.8672C0.979351 21.6047 0.985349 21.3288 1.06288 21.0693L1.06386 21.0654L2.38515 16.7134L2.38564 16.7109C2.52979 16.2408 2.78742 15.8131 3.13564 15.4658L14.2059 4.39258C14.2325 4.35802 14.2612 4.3246 14.2929 4.29297C14.3243 4.26151 14.3576 4.23293 14.392 4.20654L16.4809 2.11768L16.6181 1.9873C17.3187 1.35303 18.232 0.999393 19.1815 0.999512C20.1943 0.999699 21.1657 1.40195 21.8817 2.11816C22.5978 2.83443 23 3.80603 22.9999 4.81885Z" fill="currentColor"/>
</svg>
