<svg width="24" height="24" viewBox="0 0 24 24" fill="none" xmlns="http://www.w3.org/2000/svg">
<path d="M7.01025 2.00002C7.53809 2.00182 8.05631 2.14268 8.51221 2.40871L8.51172 2.4092L20.5088 9.40676H20.5083C20.9617 9.67019 21.3382 10.0477 21.6001 10.502C21.8623 10.9569 22.001 11.473 22.0015 11.9981C22.0019 12.523 21.8644 13.0389 21.603 13.4942C21.3416 13.9495 20.9649 14.3285 20.5112 14.5928L20.5107 14.5923L8.51221 21.5923C8.05631 21.8583 7.53809 21.9992 7.01025 22.001C6.48247 22.0028 5.96352 21.8654 5.50586 21.6026C5.04815 21.3396 4.66768 20.9603 4.40332 20.5034C4.17207 20.1037 4.03649 19.6568 4.00635 19.1978L4 19.0005V5.00051C3.99991 4.47278 4.13903 3.95436 4.40332 3.49758C4.66768 3.04069 5.04815 2.66188 5.50586 2.39894C5.96355 2.13603 6.48242 1.99823 7.01025 2.00002ZM6 19.001C5.99996 19.1769 6.04621 19.3497 6.13428 19.502C6.2224 19.6543 6.34938 19.7805 6.50195 19.8682C6.65452 19.9558 6.82747 20.0016 7.00342 20.001C7.17936 20.0004 7.35194 19.9534 7.50391 19.8648L19.5039 12.8648H19.5044C19.6556 12.7767 19.7815 12.6503 19.8687 12.4986C19.9558 12.3468 20.0016 12.1745 20.0015 11.9995C20.0013 11.8245 19.9551 11.6526 19.8677 11.501C19.7803 11.3494 19.6543 11.2236 19.5029 11.1358L19.501 11.1343L7.50391 4.13625C7.35196 4.04761 7.17932 4.00062 7.00342 4.00002C6.8275 3.99942 6.6545 4.04522 6.50195 4.13283C6.3494 4.22047 6.2224 4.34677 6.13428 4.49904C6.04616 4.65134 5.99995 4.82455 6 5.00051V19.001Z" fill="currentColor"/>
</svg>
