<svg width="24" height="24" viewBox="0 0 24 24" fill="none" xmlns="http://www.w3.org/2000/svg">
<path d="M3 14.4999C3 12.776 3.68433 11.1222 4.90332 9.90324C6.12231 8.68426 7.77609 7.99992 9.5 7.99992H17.5859L14.293 4.70696C13.9024 4.31643 13.9024 3.68342 14.293 3.29289C14.6835 2.90237 15.3165 2.90237 15.707 3.29289L20.707 8.29289C21.0976 8.68342 21.0976 9.31643 20.707 9.70696L15.707 14.707C15.3165 15.0975 14.6835 15.0975 14.293 14.707C13.9024 14.3164 13.9024 13.6834 14.293 13.2929L17.5859 9.99992H9.5C8.30653 9.99992 7.16227 10.4744 6.31836 11.3183C5.47445 12.1622 5 13.3064 5 14.4999C5 15.0908 5.1167 15.6757 5.34277 16.2216C5.56892 16.7676 5.9005 17.2637 6.31836 17.6816C7.16227 18.5255 8.30653 18.9999 9.5 18.9999H13C13.5523 18.9999 14 19.4476 14 19.9999C14 20.5522 13.5523 20.9999 13 20.9999H9.5C7.77609 20.9999 6.12231 20.3156 4.90332 19.0966C4.29974 18.493 3.82177 17.7758 3.49512 16.9872C3.16846 16.1986 3 15.3535 3 14.4999Z" fill="currentColor"/>
</svg>
