<svg width="24" height="24" viewBox="0 0 24 24" fill="none" xmlns="http://www.w3.org/2000/svg">
<path d="M2 21V16C2 15.4477 2.44772 15 3 15H8C8.55228 15 9 15.4477 9 16C9 16.5523 8.55228 17 8 17H5.41455L5.9624 17.5479C7.5846 19.1125 9.74796 19.9906 12.002 19.9995C14.123 19.999 16.1569 19.1566 17.6567 17.6567C19.157 16.1564 20 14.1217 20 12C20 11.4477 20.4477 11 21 11C21.5523 11 22 11.4477 22 12C22 14.6522 20.9467 17.1959 19.0713 19.0713C17.1959 20.9467 14.6522 22 12 22H11.9961C9.22205 21.9895 6.55941 20.9071 4.56494 18.979C4.56089 18.9751 4.55672 18.9713 4.55273 18.9673L4 18.4141V21C4 21.5523 3.55228 22 3 22C2.44772 22 2 21.5523 2 21ZM2 12C2 9.34784 3.05335 6.80407 4.92871 4.92871C6.80407 3.05335 9.34784 2 12 2H12.0039L12.2637 2.00391C14.8573 2.07634 17.3376 3.08494 19.2461 4.84277L19.4351 5.021L19.4473 5.03271L20 5.58545V3C20 2.44772 20.4477 2 21 2C21.5523 2 22 2.44772 22 3V8C22 8.55228 21.5523 9 21 9H16C15.4477 9 15 8.55228 15 8C15 7.44772 15.4477 7 16 7H18.5854L18.0327 6.44727H18.0322C16.4105 4.88567 14.2493 4.00881 11.9976 4C9.87671 4.00065 7.84298 4.84355 6.34326 6.34326C4.84297 7.84355 4 9.87827 4 12C4 12.5523 3.55228 13 3 13C2.44772 13 2 12.5523 2 12Z" fill="currentColor"/>
</svg>
