<svg width="24" height="24" viewBox="0 0 24 24" fill="none" xmlns="http://www.w3.org/2000/svg">
<path d="M11.9998 2C14.6986 2 17.2759 3.03734 19.2444 4.84229L19.4329 5.01904L19.447 5.03271L19.9998 5.58545V3C19.9998 2.44772 20.4475 2 20.9998 2C21.5521 2 21.9998 2.44772 21.9998 3V8C21.9998 8.55228 21.5521 9 20.9998 9H15.9998C15.4475 9 14.9998 8.55228 14.9998 8C14.9998 7.44772 15.4475 7 15.9998 7H18.5852L18.0384 6.45312C16.4102 4.89191 14.2502 4 11.9998 4C10.4176 4 8.871 4.46918 7.55545 5.34814C6.23986 6.22719 5.21417 7.47668 4.60867 8.93848C4.00319 10.4002 3.84495 12.0087 4.15359 13.5605C4.46227 15.1124 5.22423 16.5379 6.34305 17.6567C7.46187 18.7756 8.88739 19.5375 10.4392 19.8462C11.991 20.1548 13.5995 19.9966 15.0613 19.3911C16.5231 18.7856 17.7726 17.7599 18.6516 16.4443C19.5306 15.1288 19.9998 13.5822 19.9998 12C19.9998 11.4477 20.4475 11 20.9998 11C21.5521 11 21.9998 11.4477 21.9998 12C21.9998 13.9778 21.4135 15.9112 20.3147 17.5557C19.2159 19.2002 17.6537 20.4819 15.8264 21.2388C13.9993 21.9956 11.9888 22.1934 10.0491 21.8076C8.10929 21.4218 6.32702 20.4698 4.92849 19.0713C3.52997 17.6728 2.57802 15.8905 2.19217 13.9507C1.80637 12.011 2.00421 10.0005 2.76101 8.17334C3.51788 6.34611 4.79967 4.78436 6.44412 3.68555C8.08861 2.58673 10.022 2 11.9998 2Z" fill="currentColor"/>
</svg>
