<svg width="24" height="24" viewBox="0 0 24 24" fill="none" xmlns="http://www.w3.org/2000/svg">
<path d="M21.0132 1.08376C21.2427 1.0037 21.4876 0.980561 21.7271 1.01638L21.8315 1.03591L21.9341 1.06228C22.1375 1.12305 22.3255 1.22685 22.4858 1.36599L22.564 1.43825L22.6362 1.5154C22.7752 1.67566 22.8782 1.86392 22.939 2.06716L22.9663 2.17067L22.9858 2.27517C23.0215 2.51406 22.9972 2.75814 22.9175 2.98708L22.9185 2.98806L16.4185 21.9881V21.989C16.3192 22.2784 16.1338 22.5307 15.8872 22.7117C15.6405 22.8927 15.3436 22.9939 15.0376 23.0017C14.7318 23.0095 14.4309 22.9237 14.1753 22.7556C13.9196 22.5874 13.7209 22.3444 13.6069 22.0603L10.4273 14.1297L10.3853 14.0379C10.3384 13.9487 10.2781 13.8671 10.2065 13.7957C10.111 13.7003 9.9969 13.6252 9.87159 13.575V13.574L1.94092 10.3943C1.65703 10.2804 1.41476 10.0824 1.24659 9.82692C1.0784 9.57122 0.992656 9.2696 1.00049 8.96364C1.00837 8.65775 1.10951 8.36172 1.29053 8.11501L1.36084 8.02517C1.5344 7.82291 1.75979 7.67066 2.01319 7.58376V7.58278L21.0132 1.08278V1.08376ZM12.2056 13.2078C12.233 13.2652 12.2589 13.3234 12.2827 13.3826L12.2837 13.3845L14.9614 20.0652L19.9595 5.45485L12.2056 13.2078ZM3.93506 9.03884L10.6138 11.7175H10.6148C10.6743 11.7414 10.7328 11.7682 10.7905 11.7957L18.5464 4.03981L3.93506 9.03884Z" fill="currentColor"/>
</svg>
