<svg width="24" height="24" viewBox="0 0 24 24" fill="none" xmlns="http://www.w3.org/2000/svg">
<path fill-rule="evenodd" clip-rule="evenodd" d="M12.2374 1C13.033 1 13.7968 1.31635 14.3594 1.87891C14.9218 2.44148 15.2374 3.20452 15.2374 4V4.17871C15.2376 4.35405 15.2844 4.52691 15.3721 4.67871C15.438 4.79252 15.5253 4.89216 15.629 4.97168L15.7403 5.0459L16.1671 5.29395C16.319 5.38169 16.4926 5.4277 16.668 5.42773C16.8434 5.42767 17.0162 5.3816 17.168 5.29395L17.1973 5.27734L17.3468 5.19727C18.0291 4.8135 18.8347 4.71169 19.5919 4.91406C20.3596 5.11934 21.0148 5.62097 21.4132 6.30859L21.6329 6.68945L21.6339 6.69043C22.0308 7.37867 22.1388 8.19629 21.9337 8.96387C21.7296 9.72681 21.2319 10.3774 20.5509 10.7764L20.5518 10.7773L20.4024 10.8672C20.3977 10.87 20.3925 10.8732 20.3878 10.876C20.2352 10.9641 20.1084 11.0914 20.0206 11.2441C19.9329 11.3968 19.8871 11.57 19.8878 11.7461V12.2539C19.8871 12.43 19.9329 12.6032 20.0206 12.7559C20.107 12.9062 20.2316 13.0312 20.3809 13.1191L20.5079 13.1875C20.5181 13.193 20.5291 13.1992 20.5391 13.2051C21.2266 13.6034 21.7284 14.2579 21.9337 15.0254C22.1381 15.7898 22.0307 16.6035 21.6378 17.29L21.6387 17.291L21.419 17.6816L21.4132 17.6914C21.0148 18.379 20.3596 18.8807 19.5919 19.0859C18.8346 19.2883 18.0292 19.1847 17.3468 18.8008V18.8027L17.1973 18.7227C17.1876 18.7175 17.1776 18.7116 17.168 18.7061C17.0162 18.6184 16.8434 18.5723 16.668 18.5723C16.4927 18.5723 16.3199 18.6184 16.168 18.7061L16.1671 18.7051L15.7403 18.9541L15.629 19.0283C15.5253 19.1078 15.438 19.2075 15.3721 19.3213C15.2844 19.4731 15.2376 19.646 15.2374 19.8213V20C15.2374 20.7955 14.9218 21.5585 14.3594 22.1211C13.7968 22.6836 13.033 23 12.2374 23H11.7979C11.0023 23 10.2384 22.6837 9.67585 22.1211C9.11352 21.5585 8.79792 20.7954 8.79792 20V19.8213L8.78913 19.6904C8.77193 19.5609 8.72899 19.4352 8.66316 19.3213C8.59729 19.2075 8.51001 19.1078 8.40632 19.0283L8.29499 18.9541L7.86726 18.7051C7.71544 18.6176 7.54247 18.5723 7.36726 18.5723C7.19192 18.5724 7.01912 18.6184 6.86726 18.7061C6.85769 18.7116 6.84771 18.7175 6.83796 18.7227L6.68855 18.8027L6.68757 18.8008C6.00529 19.1844 5.20044 19.2883 4.44343 19.0859C3.67577 18.8806 3.02045 18.379 2.62214 17.6914L2.40242 17.3115L2.40144 17.3096C2.0045 16.6214 1.89655 15.8037 2.10163 15.0361C2.30561 14.2733 2.8026 13.6217 3.48347 13.2227L3.64753 13.124C3.80011 13.0359 3.92692 12.9086 4.01472 12.7559C4.10241 12.6032 4.14823 12.43 4.14753 12.2539V11.7461L4.13874 11.6162C4.12107 11.4873 4.07761 11.3622 4.01179 11.249C3.92409 11.0984 3.79848 10.9729 3.64753 10.8857C3.62906 10.8751 3.6106 10.8634 3.59285 10.8516L3.44343 10.752C2.78372 10.351 2.30148 9.71122 2.10163 8.96387C1.89655 8.19633 2.0045 7.37864 2.40144 6.69043L2.40242 6.68848L2.62214 6.30859C3.02045 5.62098 3.67577 5.11938 4.44343 4.91406C5.20028 4.71172 6.00537 4.81485 6.68757 5.19824L6.68855 5.19727L6.83796 5.27734C6.84771 5.28254 6.85769 5.28842 6.86726 5.29395C7.01912 5.38162 7.19192 5.42764 7.36726 5.42773C7.54264 5.42773 7.71534 5.38156 7.86726 5.29395L8.29499 5.0459L8.40632 4.97168C8.51001 4.89217 8.59729 4.79253 8.66316 4.67871C8.7508 4.52709 8.79762 4.3548 8.79792 4.17969V4C8.79792 3.20456 9.11352 2.44147 9.67585 1.87891C10.2384 1.31634 11.0023 1.00005 11.7979 1H12.2374ZM11.7979 3C11.5328 3.00005 11.2784 3.10556 11.0909 3.29297C10.9034 3.4805 10.7979 3.73482 10.7979 4V4.18066C10.7974 4.70675 10.6579 5.22422 10.3946 5.67969C10.1313 6.1349 9.75333 6.51343 9.29792 6.77637L9.29695 6.77539L8.87019 7.02441L8.86726 7.02637C8.41134 7.28946 7.89365 7.42773 7.36726 7.42773C6.84084 7.42764 6.32315 7.28958 5.86726 7.02637L5.74714 6.96191C5.73744 6.95674 5.72737 6.95178 5.71785 6.94629C5.48842 6.81401 5.21588 6.77827 4.96003 6.84668C4.7042 6.91514 4.48535 7.08235 4.35261 7.31152L4.13288 7.69141C4.00143 7.92039 3.96613 8.19212 4.03425 8.44727C4.09413 8.6712 4.22957 8.86674 4.41609 9.00098L4.4991 9.05469L4.55281 9.08789L4.70222 9.1875C5.13137 9.44747 5.48874 9.8098 5.74128 10.2441C6.00443 10.6968 6.14437 11.2108 6.14753 11.7344V12.2461L6.14167 12.4434C6.11319 12.9034 5.97962 13.3518 5.7491 13.7529C5.48842 14.2065 5.11265 14.5827 4.6612 14.8467L4.51179 14.9375C4.50757 14.94 4.50335 14.9428 4.4991 14.9453C4.26993 15.0781 4.10267 15.2969 4.03425 15.5527C3.96613 15.8079 4.00143 16.0796 4.13288 16.3086L4.35163 16.6885C4.48438 16.9177 4.70419 17.0849 4.96003 17.1533C5.21588 17.2217 5.48842 17.186 5.71785 17.0537C5.72737 17.0482 5.73744 17.0433 5.74714 17.0381L5.86726 16.9736C6.32315 16.7104 6.84084 16.5724 7.36726 16.5723C7.89365 16.5723 8.41134 16.7105 8.86726 16.9736L8.87019 16.9756L9.29695 17.2236C9.75238 17.4866 10.1313 17.8651 10.3946 18.3203C10.6579 18.7758 10.7974 19.2932 10.7979 19.8193V20C10.7979 20.2652 10.9034 20.5195 11.0909 20.707C11.2784 20.8944 11.5328 21 11.7979 21H12.2374C12.5025 21 12.7569 20.8944 12.9444 20.707C13.1319 20.5195 13.2374 20.2652 13.2374 20V19.8193C13.2379 19.2933 13.3774 18.7758 13.6407 18.3203C13.9039 17.8651 14.282 17.4866 14.7374 17.2236L15.1651 16.9756L15.168 16.9736C15.6239 16.7105 16.1417 16.5723 16.668 16.5723C17.1945 16.5723 17.7121 16.7104 18.168 16.9736L18.3175 17.0537C18.5469 17.186 18.8194 17.2217 19.0753 17.1533C19.3311 17.0849 19.5499 16.9177 19.6827 16.6885L19.8966 16.3086L19.9014 16.3008L19.9464 16.2119C20.0409 16.0026 20.0609 15.7658 20.001 15.542C19.9325 15.2863 19.7653 15.0683 19.5362 14.9355L19.4171 14.8721C19.4073 14.8669 19.3973 14.862 19.3878 14.8564C18.93 14.5921 18.5496 14.2112 18.2862 13.7529C18.0229 13.2946 17.8857 12.7746 17.8878 12.2461V11.75C17.8864 11.2228 18.0235 10.7042 18.2862 10.2471C18.5468 9.79363 18.9218 9.41629 19.3731 9.15234L19.5235 9.0625L19.5362 9.05469C19.7654 8.92192 19.9326 8.70317 20.001 8.44727C20.0692 8.19208 20.0339 7.92042 19.9024 7.69141L19.6827 7.31152C19.5499 7.08234 19.3311 6.91511 19.0753 6.84668C18.8194 6.77831 18.5469 6.81398 18.3175 6.94629C18.3079 6.95178 18.2979 6.95674 18.2882 6.96191L18.1671 7.02539C17.7112 7.28852 17.1944 7.42767 16.668 7.42773C16.1417 7.4277 15.6239 7.28948 15.168 7.02637L15.1651 7.02441L14.7374 6.77539C14.2822 6.51245 13.9038 6.13475 13.6407 5.67969C13.3774 5.22423 13.2379 4.70672 13.2374 4.18066V4C13.2374 3.73478 13.1319 3.48051 12.9444 3.29297C12.7569 3.10557 12.5025 3 12.2374 3H11.7979ZM12.0157 8C14.2248 8 16.0157 9.79086 16.0157 12C16.0157 14.2091 14.2248 16 12.0157 16C9.8066 16 8.0157 14.2091 8.0157 12C8.0157 9.79089 9.8066 8.00004 12.0157 8ZM12.0157 10C10.9112 10 10.0157 10.8955 10.0157 12C10.0157 13.1045 10.9112 14 12.0157 14C13.1203 14 14.0157 13.1046 14.0157 12C14.0157 10.8954 13.1203 10 12.0157 10Z" fill="currentColor"/>
</svg>
