<svg width="24" height="24" viewBox="0 0 24 24" fill="none" xmlns="http://www.w3.org/2000/svg">
<path d="M3 19.5001V11.5001C3 10.9478 3.44772 10.5001 4 10.5001C4.55228 10.5001 5 10.9478 5 11.5001V19.5001C5 19.7653 5.10543 20.0196 5.29297 20.2071C5.48051 20.3946 5.73478 20.5001 6 20.5001H18C18.2652 20.5001 18.5195 20.3946 18.707 20.2071C18.8946 20.0196 19 19.7653 19 19.5001V11.5001C19 10.9478 19.4477 10.5001 20 10.5001C20.5523 10.5001 21 10.9478 21 11.5001V19.5001C21 20.2957 20.6837 21.0585 20.1211 21.6212C19.5585 22.1838 18.7957 22.5001 18 22.5001H6C5.20435 22.5001 4.44152 22.1838 3.87891 21.6212C3.3163 21.0585 3 20.2957 3 19.5001ZM11 14.5001V3.91412L8.70703 6.20709C8.31651 6.59761 7.68349 6.59761 7.29297 6.20709C6.90244 5.81657 6.90244 5.18355 7.29297 4.79303L11.293 0.793027L11.3687 0.724179C11.7614 0.403783 12.3409 0.426894 12.707 0.793027L16.707 4.79303C17.0976 5.18355 17.0976 5.81657 16.707 6.20709C16.3165 6.59761 15.6835 6.59761 15.293 6.20709L13 3.91412V14.5001C13 15.0523 12.5523 15.5001 12 15.5001C11.4477 15.5001 11 15.0523 11 14.5001Z" fill="currentColor"/>
</svg>
