<svg width="24" height="24" viewBox="0 0 24 24" fill="none" xmlns="http://www.w3.org/2000/svg">
<path d="M19 5.99609C16.6805 5.99609 13.9706 4.6595 12.1104 3.03613C12.0796 3.01005 12.0403 2.99609 12 2.99609C11.9595 2.99609 11.9204 3.01081 11.8896 3.03711L11.8887 3.03613C10.0393 4.64853 7.32008 5.99609 5 5.99609V12.9961C5 15.2318 5.7706 16.8572 6.98633 18.1025C8.22945 19.3757 9.98355 20.2962 11.9961 20.9912C12.0034 20.9937 12.0113 20.9954 12.0186 20.998C14.0236 20.2983 15.7728 19.3776 17.0137 18.1045C18.229 16.8576 19 15.2319 19 12.9961V5.99609ZM14.293 9.28906C14.6835 8.89854 15.3165 8.89854 15.707 9.28906C16.0976 9.67959 16.0976 10.3126 15.707 10.7031L11.707 14.7031C11.3165 15.0936 10.6835 15.0936 10.293 14.7031L8.29297 12.7031C7.90244 12.3126 7.90244 11.6796 8.29297 11.2891C8.68349 10.8985 9.31651 10.8985 9.70703 11.2891L11 12.582L14.293 9.28906ZM21 12.9961C21 15.7602 20.021 17.8854 18.4463 19.501C16.8988 21.0886 14.8204 22.1407 12.6689 22.8906L12.6611 22.8936C12.233 23.0386 11.7688 23.0334 11.3438 22.8809V22.8818C11.3379 22.8798 11.3321 22.877 11.3262 22.875C11.3246 22.8744 11.3228 22.8746 11.3213 22.874V22.873C9.17204 22.1285 7.09956 21.0812 5.55566 19.5C3.97919 17.8854 3 15.7601 3 12.9961V5.99609C3.00012 5.46582 3.21097 4.957 3.58594 4.58203C3.96099 4.2071 4.46967 3.99609 5 3.99609C6.67637 3.99609 8.95154 2.94776 10.582 1.52344L10.5908 1.5166C10.9837 1.18093 11.4832 0.996094 12 0.996094C12.5168 0.996094 13.0163 1.18093 13.4092 1.5166L13.418 1.52344C15.0575 2.95684 17.3229 3.99609 19 3.99609C19.5303 3.99609 20.039 4.2071 20.4141 4.58203C20.789 4.957 20.9999 5.46582 21 5.99609V12.9961Z" fill="currentColor"/>
</svg>
