<svg width="24" height="24" viewBox="0 0 24 24" fill="none" xmlns="http://www.w3.org/2000/svg">
<path d="M2 18.9998V4.99976C2.00006 4.20419 2.31635 3.44122 2.87891 2.87866C3.4415 2.31612 4.2044 1.99976 5 1.99976H12C12.5522 1.99976 12.9999 2.44758 13 2.99976C13 3.55204 12.5523 3.99976 12 3.99976H5C4.73484 3.99976 4.48049 4.10526 4.29297 4.29272C4.10549 4.48021 4.00006 4.73462 4 4.99976V18.9998C4 19.265 4.10543 19.5197 4.29297 19.7073C4.48049 19.8947 4.73485 19.9998 5 19.9998H19C19.2652 19.9998 19.5195 19.8947 19.707 19.7073C19.8946 19.5197 20 19.265 20 18.9998V11.9998C20.0001 11.4476 20.4478 10.9998 21 10.9998C21.5522 10.9998 21.9999 11.4476 22 11.9998V18.9998C22 19.7954 21.6837 20.5587 21.1211 21.1213C20.5585 21.6839 19.7956 21.9998 19 21.9998H5C4.20441 21.9998 3.4415 21.6839 2.87891 21.1213C2.3163 20.5587 2 19.7954 2 18.9998ZM20.9961 4.12476C20.996 3.82751 20.8781 3.5425 20.668 3.33228C20.4577 3.12199 20.1724 3.00366 19.875 3.00366C19.5776 3.00366 19.2923 3.12199 19.082 3.33228L10.0684 12.3469C9.95004 12.4651 9.86276 12.6109 9.81543 12.7712L9.23193 14.7678L11.2285 14.1843C11.3896 14.1373 11.5365 14.05 11.6553 13.9314L20.668 4.91772C20.8782 4.70745 20.9961 4.42209 20.9961 4.12476ZM22.9961 4.12476C22.9961 4.95258 22.6674 5.74691 22.082 6.33228L13.0688 15.3464C12.7127 15.7023 12.2724 15.9621 11.7891 16.1033L11.7896 16.1038L8.9165 16.9436L8.91602 16.9441C8.65787 17.0194 8.38401 17.024 8.12354 16.9573C7.86316 16.8905 7.62564 16.7547 7.43555 16.5647C7.2454 16.3746 7.1097 16.1367 7.04297 15.8762C6.97624 15.6157 6.98086 15.3419 7.05615 15.0837L7.896 12.2102L7.89648 12.2092C8.03825 11.7264 8.29917 11.2869 8.65527 10.9314L17.668 1.91772C18.2533 1.33243 19.0472 1.00366 19.875 1.00366C20.7028 1.00366 21.4967 1.33243 22.082 1.91772C22.6673 2.50303 22.996 3.29701 22.9961 4.12476Z" fill="currentColor"/>
</svg>
