<svg width="24" height="24" viewBox="0 0 24 24" fill="none" xmlns="http://www.w3.org/2000/svg">
<path d="M12.1085 1.00391C12.321 1.01875 12.528 1.07775 12.7164 1.17725L12.8086 1.22998L12.8975 1.28955C13.0701 1.41419 13.2148 1.57356 13.3223 1.75732L13.3731 1.85107L13.3736 1.85205L15.6836 6.53125C15.7641 6.69399 15.883 6.83462 16.0298 6.94141C16.1767 7.04824 16.3472 7.11813 16.5269 7.14453H16.5264L21.6924 7.90039H21.6919C21.9742 7.94142 22.2394 8.06039 22.4576 8.24414C22.6486 8.4051 22.7969 8.61023 22.8902 8.84082L22.9268 8.94141L22.9561 9.04395C23.0163 9.28527 23.0174 9.53821 22.9576 9.78076C22.8892 10.0579 22.7445 10.3105 22.5401 10.5098L22.5396 10.5103L18.8033 14.1484C18.6732 14.2754 18.5758 14.4321 18.5196 14.605C18.4634 14.7777 18.4501 14.9615 18.4805 15.1406L19.3624 20.2808H19.3619C19.4106 20.5617 19.3803 20.8508 19.2735 21.1152C19.1661 21.3811 18.986 21.6113 18.754 21.7798C18.5219 21.9483 18.2471 22.0485 17.961 22.0684C17.6749 22.0882 17.3889 22.0273 17.1358 21.8926V21.8921L12.523 19.4668V19.4673C12.3622 19.3828 12.1832 19.3389 12.0015 19.3389C11.8198 19.3389 11.6404 19.3828 11.4795 19.4673L6.86334 21.895L6.86285 21.8945C6.61046 22.0275 6.32616 22.0881 6.04156 22.0679C5.75593 22.0476 5.48163 21.9472 5.25005 21.7788C5.01847 21.6104 4.83882 21.3802 4.7315 21.1147C4.62468 20.8504 4.59358 20.5616 4.64214 20.2808L5.523 15.1421L5.52349 15.1416C5.5542 14.9623 5.54068 14.778 5.48443 14.605C5.43518 14.4536 5.35436 14.3147 5.24761 14.1973L5.20025 14.1484L1.46441 10.5112L1.4649 10.5107C1.26031 10.3121 1.11452 10.0609 1.04546 9.78418C0.976092 9.50612 0.986305 9.214 1.07476 8.94141C1.16322 8.66882 1.32653 8.42653 1.54595 8.24219C1.76414 8.0589 2.02913 7.94019 2.31109 7.89941L7.47613 7.14453H7.4771C7.65691 7.11834 7.82764 7.04866 7.97466 6.94189C8.12176 6.83505 8.24082 6.69376 8.32134 6.53076L10.6299 1.85254L10.6304 1.85107C10.7569 1.59552 10.9526 1.38038 11.1949 1.22998L11.2872 1.17725C11.5069 1.06113 11.7524 1 12.002 1L12.1085 1.00391ZM17.856 20.5391H17.8545V20.542L17.856 20.5391ZM17.8545 20.5415V20.5391H17.856L17.8545 20.5415ZM10.1148 7.4165L10.1143 7.41699C9.89025 7.87046 9.5592 8.2628 9.14996 8.56006C8.74081 8.85721 8.26557 9.05018 7.76519 9.12305L3.54009 9.74072L6.59527 12.7153H6.59576C6.95855 13.0686 7.22968 13.5052 7.38628 13.9868C7.54287 14.4684 7.5803 14.9809 7.49468 15.48L6.77349 19.6821L10.5494 17.6968L10.5499 17.6963C10.9975 17.4612 11.4959 17.3389 12.0015 17.3389C12.507 17.3389 13.0051 17.4613 13.4527 17.6963L13.4532 17.6968L17.2305 19.6826L16.5093 15.479V15.4785C16.4241 14.9797 16.4612 14.4675 16.6177 13.9863C16.7743 13.5051 17.0458 13.0685 17.4083 12.7153L20.462 9.7417L16.2369 9.12354C15.7369 9.05015 15.2618 8.8563 14.8531 8.55908C14.4445 8.26188 14.114 7.86996 13.8902 7.41699V7.4165L12.0015 3.5918L10.1148 7.4165ZM2.53228 9.4126V9.41357L2.53375 9.4126H2.53228ZM2.53228 9.41357V9.4126H2.53375L2.53228 9.41357Z" fill="currentColor"/>
</svg>
