<svg width="24" height="24" viewBox="0 0 24 24" fill="none" xmlns="http://www.w3.org/2000/svg">
<path d="M1.87891 22.125C2.44152 22.6876 3.20435 23.0039 4 23.0039H6V9.00391H4C3.20435 9.00391 2.44151 9.3202 1.87891 9.88281C1.3163 10.4454 1 11.2083 1 12.0039V20.0039C1 20.7996 1.3163 21.5624 1.87891 22.125Z" fill="currentColor"/>
<path d="M13.8042 1.43757C13.2473 1.15992 12.6344 1.01169 12.0122 1.00398C11.6532 0.999598 11.3215 1.18797 11.1401 1.49373L11.106 1.55623L8 7.75891V23.004H17.5C18.1491 23.004 18.7805 22.7933 19.2998 22.4039C19.8191 22.0144 20.1981 21.467 20.3799 20.8438L22.71 12.8438L22.7539 12.6754C22.8448 12.2793 22.8546 11.8683 22.7817 11.4674C22.6984 11.0092 22.5094 10.5767 22.23 10.2042C21.9506 9.83166 21.5883 9.52915 21.1719 9.32088C20.7553 9.1126 20.2958 9.00399 19.8301 9.00398H15.2715L15.9712 6.11922C16.1193 5.51643 16.1302 4.88821 16.002 4.28084C15.8734 3.67197 15.6092 3.09979 15.2285 2.6075C14.8479 2.11524 14.3611 1.71523 13.8042 1.43757Z" fill="currentColor"/>
</svg>
