<svg width="24" height="24" viewBox="0 0 24 24" fill="none" xmlns="http://www.w3.org/2000/svg">
<path d="M22.1211 14.125C22.6837 13.5624 23 12.7995 23 12.0039V4.00391C23 3.20827 22.6837 2.44542 22.1211 1.88281C21.5585 1.32022 20.7956 1.00393 20 1.00391H18V15.0039H20C20.7956 15.0039 21.5585 14.6876 22.1211 14.125Z" fill="currentColor"/>
<path d="M11.9892 23.0039C12.3722 23.0086 12.7245 22.7941 12.896 22.4517L16.0019 16.249V1.00391H6.50193C5.85282 1.00391 5.22093 1.21454 4.70164 1.604C4.18245 1.99346 3.80329 2.54099 3.62156 3.16406L1.29197 11.1641C1.1616 11.6111 1.1369 12.0824 1.22019 12.5405C1.3035 12.9987 1.49254 13.4311 1.77195 13.8037C2.05135 14.1762 2.41357 14.4787 2.83006 14.687C3.24662 14.8953 3.70612 15.0039 4.17185 15.0039H8.73045L8.03123 17.8843C7.88209 18.4883 7.871 19.1183 7.99949 19.7271C8.12804 20.3359 8.39277 20.9081 8.77342 21.4004C9.15404 21.8926 9.64087 22.2927 10.1977 22.5703C10.7546 22.8479 11.3671 22.9962 11.9892 23.0039Z" fill="currentColor"/>
</svg>
