<svg width="24" height="24" viewBox="0 0 24 24" fill="none" xmlns="http://www.w3.org/2000/svg">
<path d="M21.0019 4C21.0019 3.7348 20.8965 3.4805 20.709 3.29297C20.5214 3.10545 20.2671 3.00002 20.0019 3H18.0019V13H20.0019C20.2671 13 20.5214 12.8945 20.709 12.707C20.8965 12.5195 21.0019 12.2652 21.0019 12V4ZM6.50193 3C6.28556 3 6.07493 3.07037 5.90183 3.2002C5.72879 3.33001 5.60254 3.51254 5.54197 3.72021L3.21189 11.7197V11.7202C3.16849 11.8691 3.16024 12.0261 3.18797 12.1787C3.21574 12.3315 3.2789 12.4759 3.37205 12.6001C3.46518 12.7242 3.58579 12.8251 3.72459 12.8945C3.86344 12.964 4.01661 13 4.17185 13H10.0019C10.3086 13 10.5985 13.1407 10.7881 13.3818C10.9776 13.6229 11.0459 13.9378 10.9736 14.2358L9.97361 18.356L9.97263 18.3599C9.89576 18.6713 9.89028 18.9962 9.95652 19.3101C10.0228 19.6241 10.1591 19.9194 10.3554 20.1733C10.5517 20.4272 10.8031 20.6332 11.0903 20.7764C11.1995 20.8308 11.313 20.8753 11.4292 20.9102L14.5576 14.6621C14.806 14.1635 15.1887 13.7438 15.6621 13.4502C15.7716 13.3823 15.8854 13.3225 16.0019 13.2695V3H6.50193ZM23.0019 12C23.0019 12.7956 22.6856 13.5585 22.123 14.1211C21.5604 14.6837 20.7976 15 20.0019 15H17.2422C17.0562 15.0001 16.8738 15.0519 16.7158 15.1499C16.5577 15.2479 16.4299 15.3886 16.3471 15.5552L16.3462 15.5576L12.896 22.4478C12.7245 22.7902 12.3722 23.0047 11.9892 23C11.3671 22.9923 10.7546 22.844 10.1977 22.5664C9.64087 22.2888 9.15404 21.8887 8.77342 21.3965C8.39277 20.9042 8.12804 20.332 7.99949 19.7231C7.871 19.1144 7.88209 18.4844 8.03123 17.8804L8.73045 15H4.17185C3.70612 15 3.24662 14.8914 2.83006 14.6831C2.41357 14.4748 2.05135 14.1723 1.77195 13.7998C1.49254 13.4272 1.3035 12.9948 1.22019 12.5366C1.1369 12.0785 1.1616 11.6072 1.29197 11.1602L3.62156 3.16016H3.62205C3.80378 2.53708 4.18245 1.98956 4.70164 1.6001C5.22093 1.21063 5.85282 1 6.50193 1H20.0019C20.7976 1.00002 21.5604 1.31632 22.123 1.87891C22.6856 2.44151 23.0019 3.20437 23.0019 4V12Z" fill="currentColor"/>
</svg>
