<svg width="24" height="24" viewBox="0 0 24 24" fill="none" xmlns="http://www.w3.org/2000/svg">
<path fill-rule="evenodd" clip-rule="evenodd" d="M11.9922 1.98633C12.5229 1.98633 13.0444 2.12735 13.5029 2.39453C13.9603 2.66108 14.339 3.04373 14.6006 3.50391L22.5986 17.5C22.8617 17.9558 23.0008 18.4737 23.001 19C23.001 19.5261 22.8624 20.0433 22.5996 20.499C22.3367 20.9549 21.9584 21.3342 21.5029 21.5977C21.0474 21.8611 20.5301 21.9994 20.0039 22H4.00294C3.47712 22.0032 2.95919 21.8683 2.50196 21.6084C2.04221 21.3471 1.66006 20.9685 1.39356 20.5117C1.12711 20.0549 0.985553 19.5357 0.984382 19.0068C0.983231 18.478 1.12227 17.958 1.38673 17.5L9.38477 3.50391C9.64636 3.04377 10.0251 2.66104 10.4824 2.39453C10.9408 2.12746 11.4617 1.98636 11.9922 1.98633ZM12 16C11.4478 16 11.0001 16.4478 11 17C11 17.5523 11.4477 18 12 18H12.0098C12.5621 18 13.0098 17.5523 13.0098 17C13.0097 16.4478 12.562 16 12.0098 16H12ZM12 8C11.4478 8 11.0001 8.44782 11 9V13C11 13.5523 11.4477 14 12 14C12.5523 14 13 13.5523 13 13V9C12.9999 8.44784 12.5522 8.00004 12 8Z" fill="currentColor"/>
</svg>
