<svg width="24" height="24" viewBox="0 0 24 24" fill="none" xmlns="http://www.w3.org/2000/svg">
<path d="M11.9902 1.98608C12.5209 1.98608 13.0425 2.12662 13.501 2.3938C13.9584 2.66035 14.3371 3.04342 14.5986 3.50366L22.5962 17.4998C22.8594 17.9556 22.9984 18.4729 22.9985 18.9993C22.9987 19.5256 22.8601 20.0428 22.5972 20.4988C22.3343 20.9547 21.956 21.3334 21.5005 21.5969C21.0449 21.8604 20.5278 21.9992 20.0015 21.9998H4.0005V21.9993C3.47468 22.0024 2.95724 21.868 2.50001 21.6082C2.04019 21.3468 1.65762 20.9683 1.39112 20.5115C1.12467 20.0546 0.9836 19.5354 0.982429 19.0066C0.981278 18.4777 1.11983 17.9578 1.38428 17.4998H1.38477L9.38233 3.50366C9.64392 3.04343 10.0226 2.66034 10.48 2.3938C10.9384 2.12667 11.4596 1.98612 11.9902 1.98608ZM11.9902 3.98608C11.8134 3.98612 11.6396 4.0328 11.4868 4.12183C11.334 4.21085 11.2078 4.3391 11.1206 4.49292L3.11866 18.4963L3.11622 18.5002C3.02817 18.6528 2.98205 18.826 2.98243 19.0022C2.98282 19.1785 3.02983 19.3519 3.11866 19.5042C3.20749 19.6564 3.33507 19.7823 3.48829 19.8694C3.6415 19.9565 3.815 20.0018 3.99122 20.0002C3.99422 20.0002 3.9975 19.9998 4.0005 19.9998H19.9995C20.1749 19.9996 20.3472 19.9533 20.499 19.8655C20.6508 19.7777 20.7771 19.6517 20.8648 19.4998C20.9524 19.3478 20.9986 19.1752 20.9985 18.9998C20.9985 18.8243 20.952 18.6517 20.8643 18.4998L12.8604 4.49292C12.7731 4.33907 12.6465 4.21086 12.4937 4.12183C12.3409 4.03287 12.167 3.98608 11.9902 3.98608ZM12.0103 15.9998C12.5625 15.9998 13.0101 16.4476 13.0103 16.9998C13.0103 17.552 12.5625 17.9998 12.0103 17.9998H12.0005C11.4482 17.9998 11.0005 17.552 11.0005 16.9998C11.0006 16.4476 11.4483 15.9998 12.0005 15.9998H12.0103ZM11.0005 12.9998V8.99976C11.0006 8.44757 11.4483 7.99976 12.0005 7.99976C12.5527 7.99979 13.0004 8.4476 13.0005 8.99976V12.9998C13.0005 13.552 12.5527 13.9997 12.0005 13.9998C11.4482 13.9998 11.0005 13.552 11.0005 12.9998Z" fill="currentColor"/>
</svg>
