<svg width="24" height="24" viewBox="0 0 24 24" fill="none" xmlns="http://www.w3.org/2000/svg">
<path d="M18.9999 14.4999C18.9999 13.909 18.8833 13.3237 18.6572 12.7778C18.431 12.2319 18.0999 11.7356 17.6821 11.3178C17.2642 10.9 16.768 10.5688 16.2221 10.3427C15.6761 10.1166 15.0909 9.99992 14.4999 9.99992H6.41399L9.70696 13.2929C10.0975 13.6834 10.0975 14.3164 9.70696 14.707C9.31643 15.0975 8.68342 15.0975 8.29289 14.707L3.29289 9.70696C2.90237 9.31643 2.90237 8.68342 3.29289 8.29289L8.29289 3.29289C8.68342 2.90237 9.31643 2.90237 9.70696 3.29289C10.0975 3.68342 10.0975 4.31643 9.70696 4.70696L6.41399 7.99992H14.4999C15.3535 7.99992 16.1987 8.16794 16.9872 8.49455C17.7758 8.82121 18.4925 9.30015 19.0961 9.90373C19.6997 10.5073 20.1786 11.224 20.5053 12.0126C20.8319 12.8012 20.9999 13.6464 20.9999 14.4999C20.9999 15.3535 20.8319 16.1987 20.5053 16.9872C20.1786 17.7758 19.6997 18.4925 19.0961 19.0961C18.4925 19.6997 17.7758 20.1786 16.9872 20.5053C16.1987 20.8319 15.3535 20.9999 14.4999 20.9999H10.9999C10.4476 20.9999 9.99992 20.5522 9.99992 19.9999C9.99992 19.4476 10.4476 18.9999 10.9999 18.9999H14.4999C15.0909 18.9999 15.6761 18.8833 16.2221 18.6572C16.768 18.431 17.2642 18.0999 17.6821 17.6821C18.0999 17.2642 18.431 16.768 18.6572 16.2221C18.8833 15.6761 18.9999 15.0909 18.9999 14.4999Z" fill="currentColor"/>
</svg>
