<svg width="20" height="20" viewBox="0 0 20 20" fill="none" xmlns="http://www.w3.org/2000/svg">
<path d="M13.3346 17.5V15.8333C13.3346 14.9493 12.9834 14.1014 12.3583 13.4763C11.7332 12.8512 10.8854 12.5 10.0013 12.5H5.0013C4.11725 12.5 3.2694 12.8512 2.64428 13.4763C2.01916 14.1014 1.66797 14.9493 1.66797 15.8333V17.5M13.3346 2.60667C14.0494 2.79197 14.6825 3.20939 15.1344 3.79339C15.5863 4.37738 15.8315 5.09491 15.8315 5.83333C15.8315 6.57176 15.5863 7.28928 15.1344 7.87328C14.6825 8.45728 14.0494 8.87469 13.3346 9.06M18.3346 17.5V15.8333C18.3341 15.0948 18.0883 14.3773 17.6358 13.7936C17.1833 13.2099 16.5497 12.793 15.8346 12.6083M10.8346 5.83333C10.8346 7.67428 9.34225 9.16667 7.5013 9.16667C5.66035 9.16667 4.16797 7.67428 4.16797 5.83333C4.16797 3.99238 5.66035 2.5 7.5013 2.5C9.34225 2.5 10.8346 3.99238 10.8346 5.83333Z" stroke="#7F8A94" stroke-width="2" stroke-linecap="round" stroke-linejoin="round"/>
</svg>
