<svg width="24" height="24" viewBox="0 0 24 24" fill="none" xmlns="http://www.w3.org/2000/svg">
<path d="M3 18V21H6V18H3ZM18 18V21H21V18H18ZM16 5.3252C13.3537 4.85781 10.6463 4.85781 8 5.3252V6C8 7.10457 7.10457 8 6 8H5.3252C4.85781 10.6463 4.85781 13.3537 5.3252 16H6C7.10457 16 8 16.8954 8 18V18.6738C10.6464 19.1412 13.3536 19.1412 16 18.6738V18C16 16.8954 16.8954 16 18 16H18.6748C19.1422 13.3537 19.1422 10.6463 18.6748 8H18C16.8954 8 16 7.10457 16 6V5.3252ZM3 3V6H6V3H3ZM18 3V6H21V3H18ZM23 6C23 7.10457 22.1046 8 21 8H20.7031C21.1326 10.6495 21.1326 13.3505 20.7031 16H21C22.1046 16 23 16.8954 23 18V21C23 22.1046 22.1046 23 21 23H18C16.8954 23 16 22.1046 16 21V20.7031C13.3505 21.1326 10.6495 21.1326 8 20.7031V21C8 22.1046 7.10457 23 6 23H3C1.89543 23 1 22.1046 1 21V18C1 16.8954 1.89543 16 3 16H3.29688C2.8674 13.3505 2.8674 10.6495 3.29688 8H3C1.89543 8 1 7.10457 1 6V3C1 1.89543 1.89543 1 3 1H6C7.10457 1 8 1.89543 8 3V3.2959C10.6494 2.86645 13.3506 2.86645 16 3.2959V3C16 1.89543 16.8954 1 18 1H21C22.1046 1 23 1.89543 23 3V6Z" fill="currentColor"/>
</svg>
