<svg width="16" height="16" viewBox="0 0 16 16" fill="none" xmlns="http://www.w3.org/2000/svg">
  <path fill-rule="evenodd" clip-rule="evenodd" d="M1.31738 7.9987L5.96664 13.0056C6.15454 13.2079 6.47091 13.2197 6.67326 13.0318C6.87562 12.8439 6.88733 12.5275 6.69943 12.3251L2.68202 7.9987L6.69943 3.67226C6.88733 3.4699 6.87562 3.15354 6.67326 2.96564C6.47091 2.77774 6.15454 2.78945 5.96664 2.99181L1.31738 7.9987Z" fill="#000"/>
  <path fill-rule="evenodd" clip-rule="evenodd" d="M1.4997 7.9987C1.4997 8.27484 1.72356 8.4987 1.9997 8.4987H13.9997C14.2758 8.4987 14.4997 8.27484 14.4997 7.9987C14.4997 7.72256 14.2758 7.4987 13.9997 7.4987H1.9997C1.72356 7.4987 1.4997 7.72256 1.4997 7.9987Z" fill="#000"/>
</svg>
