<svg width="32" height="32" viewBox="0 0 32 32" fill="none" xmlns="http://www.w3.org/2000/svg">
<mask id="mask0_480_18324" style="mask-type:alpha" maskUnits="userSpaceOnUse" x="10" y="10" width="12" height="12">
<path fill-rule="evenodd" clip-rule="evenodd" d="M11.7344 16L16.2276 20.7575C16.3698 20.9081 16.6071 20.9148 16.7577 20.7726C16.9082 20.6304 16.915 20.3931 16.7728 20.2425L12.766 16L16.7728 11.7575C16.915 11.6069 16.9082 11.3696 16.7577 11.2274C16.6071 11.0852 16.3698 11.0919 16.2276 11.2425L11.7344 16Z" fill="#1C1C1E"/>
<path fill-rule="evenodd" clip-rule="evenodd" d="M14.7344 16L19.2276 20.7575C19.3698 20.9081 19.6071 20.9148 19.7577 20.7726C19.9082 20.6304 19.915 20.3931 19.7728 20.2425L15.766 16L19.7728 11.7575C19.915 11.6069 19.9082 11.3696 19.7577 11.2274C19.6071 11.0852 19.3698 11.0919 19.2276 11.2425L14.7344 16Z" fill="#1C1C1E"/>
</mask>
<g mask="url(#mask0_480_18324)">
<rect x="10" y="10" width="12" height="12" fill="#484858"/>
</g>
</svg>
