<svg width="20" height="20" viewBox="0 0 20 20" fill="none" xmlns="http://www.w3.org/2000/svg">
<mask id="mask0_2644_51788" style="mask-type:alpha" maskUnits="userSpaceOnUse" x="0" y="0" width="20" height="20">
<path fill-rule="evenodd" clip-rule="evenodd" d="M2.5 4.79297C2.5 3.98755 3.15292 3.33464 3.95833 3.33464H15.625C16.4304 3.33464 17.0833 3.98755 17.0833 4.79297V15.6263C17.0833 16.4317 16.4304 17.0846 15.625 17.0846H3.95833C3.15292 17.0846 2.5 16.4317 2.5 15.6263V4.79297ZM3.95833 4.58464C3.84327 4.58464 3.75 4.67791 3.75 4.79297V15.6263C3.75 15.7414 3.84327 15.8346 3.95833 15.8346H15.625C15.7401 15.8346 15.8333 15.7414 15.8333 15.6263V4.79297C15.8333 4.67791 15.7401 4.58464 15.625 4.58464H3.95833Z" fill="#2A2A37"/>
<path fill-rule="evenodd" clip-rule="evenodd" d="M16.4583 8.33464H3.125V7.08464H16.4583V8.33464Z" fill="#2A2A37"/>
<path fill-rule="evenodd" clip-rule="evenodd" d="M5.625 1.66797C5.97018 1.66797 6.25 1.94779 6.25 2.29297V3.95964C6.25 4.30481 5.97018 4.58464 5.625 4.58464C5.27982 4.58464 5 4.30481 5 3.95964V2.29297C5 1.94779 5.27982 1.66797 5.625 1.66797Z" fill="#2A2A37"/>
<path fill-rule="evenodd" clip-rule="evenodd" d="M13.9583 1.66797C14.3035 1.66797 14.5833 1.94779 14.5833 2.29297V3.95964C14.5833 4.30481 14.3035 4.58464 13.9583 4.58464C13.6132 4.58464 13.3333 4.30481 13.3333 3.95964V2.29297C13.3333 1.94779 13.6132 1.66797 13.9583 1.66797Z" fill="#2A2A37"/>
<path fill-rule="evenodd" clip-rule="evenodd" d="M8.95833 10.6263C8.95833 10.1661 9.33143 9.79297 9.79167 9.79297C10.2519 9.79297 10.625 10.1661 10.625 10.6263C10.625 11.0865 10.2519 11.4596 9.79167 11.4596C9.33143 11.4596 8.95833 11.0865 8.95833 10.6263Z" fill="#2A2A37"/>
<path fill-rule="evenodd" clip-rule="evenodd" d="M12.2917 10.6263C12.2917 10.1661 12.6648 9.79297 13.125 9.79297C13.5852 9.79297 13.9583 10.1661 13.9583 10.6263C13.9583 11.0865 13.5852 11.4596 13.125 11.4596C12.6648 11.4596 12.2917 11.0865 12.2917 10.6263Z" fill="#2A2A37"/>
<path fill-rule="evenodd" clip-rule="evenodd" d="M5.625 13.543C5.625 13.0827 5.9981 12.7096 6.45833 12.7096C6.91857 12.7096 7.29167 13.0827 7.29167 13.543C7.29167 14.0032 6.91857 14.3763 6.45833 14.3763C5.9981 14.3763 5.625 14.0032 5.625 13.543Z" fill="#2A2A37"/>
<path fill-rule="evenodd" clip-rule="evenodd" d="M8.95833 13.543C8.95833 13.0827 9.33143 12.7096 9.79167 12.7096C10.2519 12.7096 10.625 13.0827 10.625 13.543C10.625 14.0032 10.2519 14.3763 9.79167 14.3763C9.33143 14.3763 8.95833 14.0032 8.95833 13.543Z" fill="#2A2A37"/>
</mask>
<g mask="url(#mask0_2644_51788)">
<rect width="20" height="20" fill="#2A2A37"/>
</g>
</svg>
