<svg width="27" height="27" viewBox="0 0 27 27" fill="none" xmlns="http://www.w3.org/2000/svg">
<path fill-rule="evenodd" clip-rule="evenodd" d="M13.3333 0C5.96954 0 0 5.96954 0 13.3333C0 20.6971 5.96954 26.6667 13.3333 26.6667C20.6971 26.6667 26.6667 20.6971 26.6667 13.3333C26.6667 5.96954 20.6971 0 13.3333 0Z" fill="#FFBFD6"/>
<path fill-rule="evenodd" clip-rule="evenodd" d="M19.4371 8.41098C19.9463 8.83525 20.0151 9.59193 19.5908 10.1011L12.9241 18.1011C12.7083 18.3601 12.3934 18.5163 12.0566 18.5316C11.7198 18.5469 11.3921 18.4198 11.1537 18.1814L7.15372 14.1814C6.68509 13.7127 6.68509 12.9529 7.15372 12.4843C7.62235 12.0157 8.38215 12.0157 8.85077 12.4843L11.9216 15.5551L17.747 8.56462C18.1713 8.05549 18.928 7.9867 19.4371 8.41098Z" fill="#FF2E98"/>
</svg>
