<svg width="60" height="60" viewBox="0 0 60 60" fill="none" xmlns="http://www.w3.org/2000/svg">
<mask id="mask0_2644_37469" style="mask-type:alpha" maskUnits="userSpaceOnUse" x="0" y="0" width="60" height="60">
<path fill-rule="evenodd" clip-rule="evenodd" d="M8.75 30C8.75 41.736 18.2639 51.25 30 51.25C41.736 51.25 51.25 41.736 51.25 30C51.25 18.2639 41.736 8.75 30 8.75C18.2639 8.75 8.75 18.2639 8.75 30ZM30 5C16.1929 5 5 16.1929 5 30C5 43.8071 16.1929 55 30 55C43.8071 55 55 43.8071 55 30C55 16.1929 43.8071 5 30 5Z" fill="#2A2A37"/>
<path fill-rule="evenodd" clip-rule="evenodd" d="M41.4404 20.7716C42.395 21.5671 42.524 22.9858 41.7285 23.9405L29.2285 38.9405C28.8238 39.4261 28.2335 39.7191 27.602 39.7477C26.9704 39.7764 26.356 39.5381 25.909 39.091L18.409 31.591C17.5303 30.7124 17.5303 29.2877 18.409 28.4091C19.2877 27.5304 20.7123 27.5304 21.591 28.4091L27.3488 34.1669L38.2715 21.0596C39.067 20.105 40.4858 19.976 41.4404 20.7716Z" fill="#2A2A37"/>
</mask>
<g mask="url(#mask0_2644_37469)">
<rect width="60" height="60" fill="#00BF40"/>
</g>
</svg>
