<svg width="16" height="16" viewBox="0 0 16 16" fill="none" xmlns="http://www.w3.org/2000/svg">
<path opacity="0.2" fill-rule="evenodd" clip-rule="evenodd" d="M7.99967 1.33398C4.31778 1.33398 1.33301 4.31875 1.33301 8.00065C1.33301 11.6825 4.31778 14.6673 7.99967 14.6673C11.6816 14.6673 14.6663 11.6825 14.6663 8.00065C14.6663 4.31875 11.6816 1.33398 7.99967 1.33398Z" fill="#00BF40"/>
<path fill-rule="evenodd" clip-rule="evenodd" d="M11.0518 5.53947C11.3064 5.75161 11.3408 6.12995 11.1286 6.38452L7.79531 10.3845C7.68739 10.514 7.52997 10.5922 7.36156 10.5998C7.19316 10.6074 7.02931 10.5439 6.91011 10.4247L4.91011 8.42467C4.6758 8.19036 4.6758 7.81046 4.91011 7.57614C5.14443 7.34183 5.52432 7.34183 5.75864 7.57614L7.29406 9.11156L10.2068 5.6163C10.4189 5.36173 10.7973 5.32733 11.0518 5.53947Z" fill="#00BF40"/>
</svg>
