<svg width="16" height="16" viewBox="0 0 16 16" fill="none" xmlns="http://www.w3.org/2000/svg">
<path fill-rule="evenodd" clip-rule="evenodd" d="M2.33301 8.00065C2.33301 11.1303 4.87006 13.6673 7.99967 13.6673C11.1293 13.6673 13.6663 11.1303 13.6663 8.00065C13.6663 4.87104 11.1293 2.33398 7.99967 2.33398C4.87006 2.33398 2.33301 4.87104 2.33301 8.00065ZM7.99967 1.33398C4.31778 1.33398 1.33301 4.31875 1.33301 8.00065C1.33301 11.6825 4.31778 14.6673 7.99967 14.6673C11.6816 14.6673 14.6663 11.6825 14.6663 8.00065C14.6663 4.31875 11.6816 1.33398 7.99967 1.33398Z" fill="#81818D"/>
<path fill-rule="evenodd" clip-rule="evenodd" d="M11.0508 5.53947C11.3054 5.75161 11.3398 6.12995 11.1277 6.38452L7.79433 10.3845C7.68641 10.514 7.52899 10.5922 7.36059 10.5998C7.19218 10.6074 7.02834 10.5439 6.90913 10.4247L4.90913 8.42467C4.67482 8.19036 4.67482 7.81046 4.90913 7.57614C5.14345 7.34183 5.52335 7.34183 5.75766 7.57614L7.29308 9.11156L10.2058 5.6163C10.4179 5.36173 10.7963 5.32733 11.0508 5.53947Z" fill="#81818D"/>
</svg>
