<svg width="16" height="16" viewBox="0 0 16 16" fill="none" xmlns="http://www.w3.org/2000/svg">
<path opacity="0.12" d="M7.99967 1.33398C4.31778 1.33398 1.33301 4.31875 1.33301 8.00065C1.33301 11.6825 4.31778 14.6673 7.99967 14.6673C11.6816 14.6673 14.6663 11.6825 14.6663 8.00065C14.6663 4.31875 11.6816 1.33398 7.99967 1.33398Z" fill="#FF4242"/>
<path fill-rule="evenodd" clip-rule="evenodd" d="M9.94959 6.04293C10.1448 6.23819 10.1448 6.55478 9.94959 6.75004L6.75492 9.9447C6.55966 10.14 6.24308 10.14 6.04781 9.9447C5.85255 9.74944 5.85255 9.43286 6.04781 9.2376L9.24248 6.04293C9.43774 5.84767 9.75433 5.84767 9.94959 6.04293Z" fill="#FF4242"/>
<path fill-rule="evenodd" clip-rule="evenodd" d="M6.04785 6.04289C6.24313 5.84765 6.55972 5.84769 6.75496 6.04297L9.95229 9.24097C10.1475 9.43625 10.1475 9.75283 9.95222 9.94807C9.75693 10.1433 9.44035 10.1433 9.24511 9.948L6.04778 6.75C5.85254 6.55472 5.85257 6.23814 6.04785 6.04289Z" fill="#FF4242"/>
</svg>
