<svg width="24" height="24" viewBox="0 0 24 24" fill="none" xmlns="http://www.w3.org/2000/svg">
<path fill-rule="evenodd" clip-rule="evenodd" d="M13.9191 5.1417L5.99926 13.0615C4.27864 14.7821 4.14292 17.0821 5.7125 18.6517C7.33257 20.2718 9.73178 20.1316 11.4006 18.4628L18.446 11.4174C18.7389 11.1245 19.2138 11.1245 19.5067 11.4174C19.7996 11.7103 19.7995 12.1851 19.5067 12.478L12.4612 19.5235C10.2947 21.6899 6.94207 22.0026 4.65184 19.7124C2.38619 17.4467 2.74892 14.1905 4.9386 12.0009L12.8584 4.08104C14.3634 2.57603 16.7897 2.57603 18.2947 4.08104C19.7997 5.58605 19.7997 8.01232 18.2947 9.51733L10.2358 17.5762C9.33878 18.4733 7.88439 18.4733 6.98735 17.5762C6.0903 16.6792 6.0903 15.2248 6.98734 14.3277L14.1719 7.14323C14.4647 6.85033 14.9396 6.85033 15.2325 7.14323C15.5254 7.43612 15.5254 7.91099 15.2325 8.20389L8.04801 15.3884C7.73675 15.6997 7.73675 16.2043 8.04801 16.5156C8.35926 16.8268 8.86391 16.8268 9.17516 16.5156L17.234 8.45667C18.1533 7.53744 18.1533 6.06092 17.234 5.1417C16.3148 4.22247 14.8383 4.22247 13.9191 5.1417Z" fill="#81818D"/>
</svg>
