<svg width="12" height="12" viewBox="0 0 12 12" fill="none" xmlns="http://www.w3.org/2000/svg">
<mask id="mask0_1502_42784" style="mask-type:alpha" maskUnits="userSpaceOnUse" x="0" y="0" width="12" height="12">
<path fill-rule="evenodd" clip-rule="evenodd" d="M10.2652 1.73483C10.4116 1.88128 10.4116 2.11872 10.2652 2.26517L2.26517 10.2652C2.11872 10.4116 1.88128 10.4116 1.73483 10.2652C1.58839 10.1187 1.58839 9.88128 1.73483 9.73483L9.73483 1.73483C9.88128 1.58839 10.1187 1.58839 10.2652 1.73483Z" fill="#1C1C1E"/>
<path fill-rule="evenodd" clip-rule="evenodd" d="M1.73483 1.73483C1.58839 1.88128 1.58839 2.11872 1.73483 2.26517L9.73483 10.2652C9.88128 10.4116 10.1187 10.4116 10.2652 10.2652C10.4116 10.1187 10.4116 9.88128 10.2652 9.73483L2.26517 1.73483C2.11872 1.58839 1.88128 1.58839 1.73483 1.73483Z" fill="#1C1C1E"/>
</mask>
<g mask="url(#mask0_1502_42784)">
<rect y="-0.5" width="12" height="12" fill="#111111"/>
</g>
</svg>
