<svg width="16" height="16" viewBox="0 0 16 16" fill="none" xmlns="http://www.w3.org/2000/svg">
<path fill-rule="evenodd" clip-rule="evenodd" d="M10 5H3.33333C3.14924 5 3 5.14924 3 5.33333V13.3333C3 13.5174 3.14924 13.6667 3.33333 13.6667H10C10.1841 13.6667 10.3333 13.5174 10.3333 13.3333V5.33333C10.3333 5.14924 10.1841 5 10 5ZM3.33333 4C2.59695 4 2 4.59695 2 5.33333V13.3333C2 14.0697 2.59695 14.6667 3.33333 14.6667H10C10.7364 14.6667 11.3333 14.0697 11.3333 13.3333V5.33333C11.3333 4.59695 10.7364 4 10 4H3.33333Z" fill="#2A2A37"/>
<path fill-rule="evenodd" clip-rule="evenodd" d="M5.99984 2.33398H12.6665C12.8506 2.33398 12.9998 2.48322 12.9998 2.66732V10.6673C12.9998 10.8514 12.8506 11.0007 12.6665 11.0007H12.4998C12.2237 11.0007 11.9998 11.2245 11.9998 11.5007C11.9998 11.7768 12.2237 12.0007 12.4998 12.0007H12.6665C13.4029 12.0007 13.9998 11.4037 13.9998 10.6673V2.66732C13.9998 1.93094 13.4029 1.33398 12.6665 1.33398H5.99984C5.26346 1.33398 4.6665 1.93094 4.6665 2.66732V2.83398C4.6665 3.11013 4.89036 3.33398 5.1665 3.33398C5.44265 3.33398 5.6665 3.11013 5.6665 2.83398V2.66732C5.6665 2.48322 5.81574 2.33398 5.99984 2.33398Z" fill="#2A2A37"/>
</svg>
