<svg width="24" height="24" viewBox="0 0 24 24" fill="none" xmlns="http://www.w3.org/2000/svg">
<path d="M12 4C16.4183 4 20 7.58172 20 12C20 16.4183 16.4183 20 12 20C7.58172 20 4 16.4183 4 12C4 7.58172 7.58172 4 12 4ZM15.7822 8.21973C15.4893 7.92691 15.0145 7.92686 14.7217 8.21973L12 10.9414L9.27832 8.21973C8.98544 7.92705 8.51061 7.92697 8.21777 8.21973C7.92513 8.51257 7.92513 8.98743 8.21777 9.28027L10.9395 12.002L8.21777 14.7236C7.92491 15.0165 7.92496 15.4913 8.21777 15.7842C8.51067 16.077 8.98546 16.077 9.27832 15.7842L12 13.0625L14.7217 15.7842C15.0145 16.0769 15.4893 16.0769 15.7822 15.7842C16.075 15.4913 16.075 15.0165 15.7822 14.7236L13.0605 12.002L15.7822 9.28027C16.0751 8.98741 16.075 8.51263 15.7822 8.21973Z" fill="#b0b0b0"/>
</svg>
