<svg width="24" height="24" viewBox="0 0 24 24" fill="none" xmlns="http://www.w3.org/2000/svg">
<path d="M13.7803 14.3887C13.9008 14.3163 14.0383 14.4526 13.9668 14.5732L12.6826 16.7119C12.4288 17.1347 11.8449 17.207 11.4961 16.8584C11.1476 16.5097 11.219 15.9258 11.6416 15.6719L13.7803 14.3887Z" fill="white"/>
<path fill-rule="evenodd" clip-rule="evenodd" d="M7.86328 1.51953C8.91262 1.51953 9.76367 2.37058 9.76367 3.41992V5.1123C10.0838 5.27903 10.3027 5.61408 10.3027 6H13.5273C13.5273 5.60151 13.7604 5.2574 14.0977 5.09668V3.41992C14.0977 2.37066 14.9488 1.51966 15.998 1.51953H19.4307V3.32031H15.998C15.9429 3.32044 15.8984 3.36477 15.8984 3.41992V5.09668C16.2359 5.25731 16.4697 5.60135 16.4697 6H16.6104C17.7149 6 18.6104 6.89543 18.6104 8V13.2666C19.0769 13.3512 19.4307 13.7591 19.4307 14.25C19.4306 14.7408 19.0768 15.1477 18.6104 15.2324V20.5C18.6103 21.6045 17.7149 22.5 16.6104 22.5H7.25098C6.14645 22.5 5.25104 21.6045 5.25098 20.5V15.2324C4.78466 15.1476 4.43072 14.7408 4.43066 14.25C4.43066 13.7591 4.78456 13.3513 5.25098 13.2666V8C5.25098 6.89543 6.14641 6 7.25098 6H7.36035C7.36035 5.58882 7.60817 5.23471 7.96289 5.08105V3.41992C7.96289 3.36469 7.91851 3.32031 7.86328 3.32031H4.43066V1.51953H7.86328ZM11.9307 12.5264C9.88726 12.5264 8.23066 14.1823 8.23047 16.2256C8.23047 18.269 9.88715 19.9257 11.9307 19.9258C13.9742 19.9258 15.6309 18.269 15.6309 16.2256C15.6307 14.1823 13.9741 12.5264 11.9307 12.5264ZM9.14941 8.76953C8.59715 8.76953 8.14945 9.21727 8.14941 9.76953C8.14941 10.3218 8.59713 10.7695 9.14941 10.7695C9.7015 10.7693 10.1494 10.3217 10.1494 9.76953C10.1494 9.21742 9.70148 8.76976 9.14941 8.76953ZM11.9336 8.76953C11.3813 8.76953 10.9336 9.21727 10.9336 9.76953C10.9336 10.3218 11.3813 10.7695 11.9336 10.7695C12.4858 10.7695 12.9336 10.3218 12.9336 9.76953C12.9336 9.21731 12.4858 8.7696 11.9336 8.76953ZM14.7188 8.76953C14.1665 8.76953 13.7188 9.21727 13.7188 9.76953C13.7188 10.3218 14.1665 10.7695 14.7188 10.7695C15.2709 10.7694 15.7188 10.3217 15.7188 9.76953C15.7187 9.21738 15.2709 8.7697 14.7188 8.76953Z" fill="white"/>
</svg>
