<svg width="24" height="24" viewBox="0 0 24 24" fill="none" xmlns="http://www.w3.org/2000/svg">
<path d="M2.57143 6.64286C2.57143 5.46094 3.53237 4.5 4.71429 4.5L11.7584 4.5C12.5519 4.5 13.245 4.93192 13.6133 5.57143H15.3477C16.1948 5.57143 16.9615 6.07031 17.3064 6.84375L19.0743 10.8214C19.091 10.8583 19.1044 10.8917 19.1178 10.9286H19.2584C20.4403 10.9286 21.4013 11.8895 21.4013 13.0714V14.1429C21.9939 14.1429 22.4727 14.6217 22.4727 15.2143C22.4727 15.8069 21.9939 16.2857 21.4013 16.2857H20.3298C20.3298 18.0603 18.8901 19.5 17.1156 19.5C15.341 19.5 13.9013 18.0603 13.9013 16.2857H10.0714C10.0714 18.0603 8.6317 19.5 6.85714 19.5C5.08259 19.5 3.64286 18.0603 3.64286 16.2857H2.57143C1.97879 16.2857 1.5 15.8069 1.5 15.2143C1.5 14.6217 1.97879 14.1429 2.57143 14.1429V13.0714C1.97879 13.0714 1.5 12.5926 1.5 12V8.78571C1.5 8.19308 1.97879 7.71429 2.57143 7.71429V6.64286ZM13.9013 10.9286H16.7774L15.3477 7.71429H13.9013V10.9286ZM6.85714 17.8929C7.28338 17.8929 7.69217 17.7235 7.99356 17.4221C8.29496 17.1207 8.46429 16.712 8.46429 16.2857C8.46429 15.8595 8.29496 15.4507 7.99356 15.1493C7.69217 14.8479 7.28338 14.6786 6.85714 14.6786C6.4309 14.6786 6.02212 14.8479 5.72072 15.1493C5.41932 15.4507 5.25 15.8595 5.25 16.2857C5.25 16.712 5.41932 17.1207 5.72072 17.4221C6.02212 17.7235 6.4309 17.8929 6.85714 17.8929ZM18.7227 16.2857C18.7227 15.8595 18.5534 15.4507 18.252 15.1493C17.9506 14.8479 17.5418 14.6786 17.1156 14.6786C16.6893 14.6786 16.2805 14.8479 15.9791 15.1493C15.6777 15.4507 15.5084 15.8595 15.5084 16.2857C15.5084 16.712 15.6777 17.1207 15.9791 17.4221C16.2805 17.7235 16.6893 17.8929 17.1156 17.8929C17.5418 17.8929 17.9506 17.7235 18.252 17.4221C18.5534 17.1207 18.7227 16.712 18.7227 16.2857Z" fill="white"/>
</svg>
