<svg width="24" height="24" viewBox="0 0 24 24" fill="none" xmlns="http://www.w3.org/2000/svg">
<path d="M19.35 9.77107H18.825L15.2557 5.29132C15.0589 5.04444 14.8093 4.84514 14.5254 4.70817C14.2415 4.5712 13.9306 4.50005 13.6157 4.5H6.59677C5.73806 4.5 4.96598 5.0248 4.64705 5.82535L3.075 9.84553C2.17069 10.0807 1.5 10.8981 1.5 11.8795V15.8102C1.5 16.1015 1.73494 16.3374 2.025 16.3374H3.6C3.6 18.0841 5.01028 19.5 6.75 19.5C8.48972 19.5 9.9 18.0841 9.9 16.3374H14.1C14.1 18.0841 15.5103 19.5 17.25 19.5C18.9897 19.5 20.4 18.0841 20.4 16.3374H21.975C22.2651 16.3374 22.5 16.1015 22.5 15.8102V12.9337C22.5 11.187 21.0897 9.77107 19.35 9.77107ZM6.75 17.9187C5.88145 17.9187 5.175 17.2094 5.175 16.3374C5.175 15.4653 5.88145 14.756 6.75 14.756C7.61855 14.756 8.325 15.4653 8.325 16.3374C8.325 17.2094 7.61855 17.9187 6.75 17.9187ZM9.1125 9.77107H5.33677L6.59677 6.60843H9.1125V9.77107ZM10.6875 9.77107V6.60843H13.6157L16.1357 9.77107H10.6875ZM17.25 17.9187C16.3815 17.9187 15.675 17.2094 15.675 16.3374C15.675 15.4653 16.3815 14.756 17.25 14.756C18.1185 14.756 18.825 15.4653 18.825 16.3374C18.825 17.2094 18.1185 17.9187 17.25 17.9187Z" fill="white"/>
</svg>
