<svg width="24" height="24" viewBox="0 0 24 24" fill="none" xmlns="http://www.w3.org/2000/svg">
<path d="M15.4619 8.29883C16.084 8.29904 16.5869 8.80169 16.5869 9.42383C16.5867 10.0458 16.0839 10.5486 15.4619 10.5488V11.6152C14.5453 11.855 13.7 12.3342 13.0186 13.0156C12.0095 14.0246 11.4424 15.3933 11.4424 16.8203C11.4424 16.9016 11.4436 16.9826 11.4473 17.0635C11.2882 17.1109 11.1265 17.1522 10.9619 17.1855L10.874 19.875C10.874 20.4973 10.3713 21 9.74902 21C9.12676 21 8.62402 20.4973 8.62402 19.875L8.71191 17.1855C6.14563 16.6653 4.2121 14.3948 4.21191 11.6738V10.5488C3.58978 10.5488 3.08712 10.0459 3.08691 9.42383C3.08691 8.80156 3.58965 8.29883 4.21191 8.29883H15.4619Z" fill="white"/>
<path fill-rule="evenodd" clip-rule="evenodd" d="M16.8223 12.6396C17.9309 12.6396 18.9944 13.0795 19.7783 13.8633C20.5622 14.6472 21.0029 15.7107 21.0029 16.8193C21.0029 17.9281 20.5623 18.9914 19.7783 19.7754C18.9943 20.5594 17.931 21 16.8223 21C15.7136 20.9999 14.6501 20.5593 13.8662 19.7754C13.0824 18.9914 12.6426 17.9279 12.6426 16.8193C12.6426 16.496 12.6814 16.177 12.7539 15.8672C12.7562 15.8572 12.7574 15.8469 12.7598 15.8369C12.939 15.096 13.3183 14.4112 13.8662 13.8633C14.1246 13.6049 14.4139 13.3844 14.7246 13.2041C14.7349 13.1981 14.7455 13.1924 14.7559 13.1865C14.8055 13.1583 14.8555 13.1307 14.9062 13.1045C14.9231 13.0958 14.9401 13.0875 14.957 13.0791C15.0032 13.0561 15.0497 13.034 15.0967 13.0127C15.1133 13.0052 15.1298 12.9975 15.1465 12.9902C15.2004 12.9666 15.2547 12.9441 15.3096 12.9229C15.3141 12.9211 15.3187 12.9197 15.3232 12.918C15.7975 12.7356 16.3044 12.6397 16.8223 12.6396ZM18.2129 14.4678C18.0881 14.3577 17.905 14.3516 17.7744 14.4502L14.9873 16.541C14.8686 16.631 14.8199 16.7876 14.8662 16.9297C14.9127 17.0719 15.0463 17.168 15.1973 17.168H16.2305L15.3564 18.7383C15.2752 18.8833 15.307 19.0606 15.4316 19.1709C15.5564 19.2812 15.7395 19.2871 15.8701 19.1885L18.6572 17.0986C18.7763 17.0086 18.8257 16.8512 18.7793 16.709C18.7328 16.5669 18.5991 16.4717 18.4482 16.4717H17.415L18.2881 14.9004C18.3694 14.7552 18.3377 14.5752 18.2129 14.4678Z" fill="white"/>
<path d="M6.37402 3C6.99629 3 7.49902 3.50273 7.49902 4.125V7.5H5.24902V4.125C5.24902 3.50273 5.75176 3 6.37402 3Z" fill="white"/>
<path d="M13.124 3C13.7463 3 14.249 3.50273 14.249 4.125V7.5H11.999V4.125C11.999 3.50273 12.5018 3 13.124 3Z" fill="white"/>
</svg>
