<svg width="24" height="24" viewBox="0 0 24 24" fill="none" xmlns="http://www.w3.org/2000/svg">
<path fill-rule="evenodd" clip-rule="evenodd" d="M11.7998 3C12.9042 3.00026 13.7998 3.89559 13.7998 5V11.3096C15.2363 11.3711 16.3826 12.5523 16.3828 14.0039V18.8213C16.3831 19.2399 16.723 19.5791 17.1416 19.5791C17.56 19.5788 17.8991 19.2397 17.8994 18.8213V9.16309C16.9374 9.01823 16.1994 8.19079 16.1992 7.18848V5.55566C16.1995 5.27977 16.4233 5.05573 16.6992 5.05566H16.8838V3.5C16.8838 3.22401 17.1079 3.00025 17.3838 3C17.6599 3 17.8838 3.22386 17.8838 3.5V5.05566H19.3145V3.5C19.3145 3.22386 19.5383 3 19.8145 3C20.0906 3.00001 20.3145 3.22387 20.3145 3.5V5.05566H20.499C20.775 5.05566 20.9988 5.27973 20.999 5.55566V7.18848C20.9988 8.19061 20.2615 9.018 19.2998 9.16309V18.8213C19.2995 20.0129 18.3332 20.9792 17.1416 20.9795C15.9498 20.9795 14.9837 20.0131 14.9834 18.8213V14.0039C14.9832 13.3257 14.4627 12.7684 13.7998 12.709V20C13.7998 20.5521 13.3519 20.9997 12.7998 21H3.99902C3.44688 20.9998 2.99902 20.5522 2.99902 20V5C2.99902 3.89553 3.89459 3.00016 4.99902 3H11.7998ZM8.49121 7.84766C8.49121 7.63661 8.20669 7.56905 8.1123 7.75781L5.13574 13.7109C5.06968 13.8437 5.16612 13.9997 5.31445 14H7.29102C7.40147 14 7.49121 14.0897 7.49121 14.2002V17.1523C7.49121 17.3634 7.77573 17.431 7.87012 17.2422L10.8467 11.2891C10.9127 11.1563 10.8163 11.0003 10.668 11H8.69141C8.58095 11 8.49121 10.9103 8.49121 10.7998V7.84766Z" fill="white"/>
</svg>
