<svg width="24" height="24" viewBox="0 0 24 24" fill="none" xmlns="http://www.w3.org/2000/svg">
<path fill-rule="evenodd" clip-rule="evenodd" d="M14.9297 9.76273C16.2797 9.76273 17.4852 10.6629 17.8604 12.0127L18.3994 14.2637H18.751C19.2006 14.2639 19.5008 14.5631 19.501 15.0127V15.7627C19.501 16.2126 19.2008 16.5135 18.751 16.5137V21.7637C18.7508 22.2136 18.4499 22.5137 18 22.5137H16.5C16.0503 22.5135 15.7501 22.2134 15.75 21.7637V21.0137H8.25V21.7637C8.24986 22.2134 7.94971 22.5135 7.5 22.5137H6C5.55007 22.5137 5.24916 22.2136 5.24902 21.7637V16.5137C4.79928 16.5135 4.49902 16.2126 4.49902 15.7627V15.0127C4.49925 14.5632 4.79945 14.2639 5.24902 14.2637H5.60059L6.14062 12.0127C6.31493 11.3686 6.69636 10.7991 7.22559 10.3926C7.75484 9.98624 8.40304 9.76492 9.07031 9.76273H14.9297ZM7.87402 17.2627C7.27454 17.2632 6.74947 17.7882 6.74902 18.3877C6.74902 18.9875 7.27428 19.5123 7.87402 19.5127C8.47407 19.5127 8.99902 18.9878 8.99902 18.3877C8.99857 17.788 8.47381 17.2627 7.87402 17.2627ZM16.126 17.2627C15.5262 17.2627 15.0014 17.788 15.001 18.3877C15.001 18.9878 15.5259 19.5127 16.126 19.5127C16.7258 19.5124 17.251 18.9876 17.251 18.3877C17.2505 17.7882 16.7255 17.2631 16.126 17.2627ZM9.30078 11.2627C8.62584 11.2627 8.02026 11.7129 7.87012 12.3877L7.4082 14.3047C7.3217 14.666 7.59619 15.0127 7.96777 15.0127H16.0332C16.4046 15.0125 16.6783 14.6658 16.5918 14.3047L16.1299 12.3877C15.9797 11.7129 15.3741 11.2627 14.6992 11.2627H9.30078Z" fill="white"/>
<path fill-rule="evenodd" clip-rule="evenodd" d="M7.07324 1.55082C7.83329 1.39633 8.62372 1.52155 9.29883 1.90336C9.97404 2.28526 10.4888 2.89877 10.748 3.62992H18.4297C19.0189 3.62998 19.501 4.112 19.501 4.70121C19.5008 5.29031 19.0188 5.77244 18.4297 5.7725V6.84379C18.4296 7.43294 17.9475 7.91497 17.3584 7.91508C16.7692 7.91507 16.2872 7.433 16.2871 6.84379V5.7725H10.748C10.298 7.01525 9.10857 7.91507 7.71582 7.91508C5.73378 7.91507 4.18068 6.11475 4.55566 4.07914C4.80225 2.82585 5.81989 1.79721 7.07324 1.55082ZM7.71582 3.62992C7.12657 3.62992 6.64454 4.11196 6.64453 4.70121C6.64468 5.29034 7.12665 5.7725 7.71582 5.7725C8.30498 5.77249 8.78696 5.29034 8.78711 4.70121C8.7871 4.11197 8.30506 3.62993 7.71582 3.62992Z" fill="white"/>
</svg>
