<svg width="24" height="24" viewBox="0 0 24 24" fill="none" xmlns="http://www.w3.org/2000/svg">
<path d="M11.5078 3C12.281 3 12.9082 3.62724 12.9082 4.40039V10.0508C12.9081 10.8239 12.281 11.4502 11.5078 11.4502H4.39941C3.62629 11.4502 2.99909 10.8239 2.99902 10.0508V4.40039C2.99908 3.62726 3.62628 3.00004 4.39941 3H11.5078ZM6.92871 7.94531C6.56697 7.94531 6.27344 8.23885 6.27344 8.60059C6.27355 8.96223 6.56704 9.25488 6.92871 9.25488C7.29037 9.25487 7.58387 8.96222 7.58398 8.60059C7.58398 8.23885 7.29044 7.94532 6.92871 7.94531ZM8.97852 7.94531C8.61687 7.94542 8.32324 8.23891 8.32324 8.60059C8.32336 8.96216 8.61694 9.25478 8.97852 9.25488C9.34018 9.25488 9.63367 8.96223 9.63379 8.60059C9.63379 8.23885 9.34025 7.94531 8.97852 7.94531ZM4.84766 4.50098C4.57151 4.50098 4.34766 4.72483 4.34766 5.00098V6.375C4.34766 6.65114 4.57151 6.875 4.84766 6.875H11.0596C11.3357 6.875 11.5596 6.65114 11.5596 6.375V5.00098C11.5596 4.72483 11.3357 4.50098 11.0596 4.50098H4.84766Z" fill="white"/>
<path d="M20.0781 12C20.5868 12.0003 20.999 12.4131 20.999 12.9219V20.0781C20.999 20.5869 20.5868 20.9997 20.0781 21C19.5692 21 19.1562 20.5871 19.1562 20.0781V19.6279H12.8926L13.3701 18.8008L13.6553 18.3066L13.1758 17.9971L11.9512 17.2061L13.127 15.1709L12.0879 14.5713L10.6279 17.1006L10.3428 17.5947L10.8223 17.9043L12.0449 18.6953L11.5068 19.6279H4.8418V20.0781C4.8418 20.5869 4.42965 20.9998 3.9209 21C3.41197 21 2.99902 20.5871 2.99902 20.0781V12.9219C2.99902 12.4129 3.41197 12 3.9209 12C4.42965 12.0002 4.8418 12.4131 4.8418 12.9219V13.1934H19.1562V12.9219C19.1562 12.4129 19.5692 12 20.0781 12Z" fill="white"/>
<path d="M12.9072 7.74947H13.0248C14.1276 7.74947 15.0217 6.8554 15.0217 5.75251V5.23569C15.0217 4.41823 15.6844 3.75555 16.5019 3.75555C17.3193 3.75555 17.982 4.41823 17.982 5.23569V13.5996" stroke="white" stroke-width="1.4" stroke-linecap="round"/>
</svg>
