<svg width="24" height="24" viewBox="0 0 24 24" fill="none" xmlns="http://www.w3.org/2000/svg">
<path d="M3.89902 18.3H4.84402C5.06902 19.821 6.36502 21 7.94902 21C9.53302 21 10.829 19.821 11.054 18.3H14.744C14.969 19.821 16.265 21 17.849 21C19.586 21 20.999 19.587 20.999 17.85C20.999 16.734 20.396 15.69 19.433 15.123C19.4048 15.1047 19.3746 15.0896 19.343 15.078C18.983 14.88 18.587 14.79 18.182 14.745L17.21 8.4H18.5643C19.0593 8.4 19.4643 7.995 19.4643 7.5V5.7C19.4643 5.205 19.0593 4.8 18.5643 4.8H16.607C16.238 3.729 15.23 3 14.06 3H12.908C12.411 3 12.008 3.40294 12.008 3.9C12.008 4.39706 12.411 4.8 12.908 4.8H14.06C14.2755 4.79972 14.484 4.87677 14.6475 5.01716C14.811 5.15754 14.9187 5.35193 14.951 5.565L16.409 15.051C15.995 15.267 15.626 15.564 15.338 15.951C15.212 16.122 15.113 16.302 15.014 16.491H12.899V9.291C12.899 8.796 12.494 8.391 11.999 8.391H7.49902C5.01502 8.391 2.99902 10.407 2.99902 12.891V17.391C2.99902 17.886 3.40402 18.291 3.89902 18.291V18.3ZM18.569 16.707C18.956 16.959 19.199 17.391 19.199 17.85C19.199 18.597 18.596 19.2 17.849 19.2C17.598 19.2007 17.3518 19.1313 17.1382 18.9996C16.9245 18.8679 16.7518 18.6792 16.6395 18.4547C16.5273 18.2302 16.4799 17.9789 16.5028 17.7289C16.5257 17.479 16.6179 17.2404 16.769 17.04C16.9661 16.7775 17.2516 16.5955 17.5727 16.5276C17.8938 16.4597 18.2286 16.5107 18.515 16.671C18.533 16.68 18.551 16.689 18.578 16.707H18.569ZM7.94902 19.2C7.74964 19.2001 7.55271 19.156 7.37243 19.0708C7.19215 18.9856 7.03301 18.8615 6.90647 18.7074C6.77993 18.5533 6.68914 18.3731 6.64065 18.1797C6.59215 17.9863 6.58716 17.7846 6.62602 17.589C6.67102 17.382 6.75202 17.184 6.86902 17.04C6.96802 16.905 7.09402 16.806 7.22902 16.716C7.22902 16.716 7.23802 16.716 7.24702 16.707C7.51702 16.545 7.83202 16.482 8.13802 16.518H8.20102C8.34502 16.545 8.48902 16.59 8.62402 16.662C8.64202 16.671 8.66002 16.68 8.68702 16.689C9.00202 16.896 9.21802 17.202 9.29002 17.553C9.30802 17.643 9.31702 17.742 9.31702 17.832C9.31702 18.579 8.71402 19.182 7.96702 19.182L7.94902 19.2Z" fill="white"/>
</svg>
