<svg width="24" height="24" viewBox="0 0 24 24" fill="none" xmlns="http://www.w3.org/2000/svg">
<path d="M15.5205 17.7588C17.8882 18.1821 19.5 19.019 19.5 19.9824C19.4997 21.3729 16.142 22.5 12 22.5C7.85803 22.5 4.50027 21.3729 4.5 19.9824C4.5 19.019 6.11181 18.1821 8.47949 17.7588C8.60995 17.9452 8.74058 18.1217 8.87012 18.2861C9.7989 19.4651 10.7466 20.215 10.8711 20.3115C11.2048 20.5709 11.6075 20.7001 12 20.7002C12.3929 20.7002 12.7953 20.5709 13.1289 20.3115C13.2528 20.2155 14.2017 19.4656 15.1309 18.2861C15.2603 18.1218 15.3902 17.945 15.5205 17.7588Z" fill="white"/>
<path fill-rule="evenodd" clip-rule="evenodd" d="M12 9.18945C14.133 9.18945 15.8661 11.0522 15.8662 13.3398C15.8757 15.812 13.9848 17.9111 12.9873 18.8467C12.659 19.1551 12.428 19.3379 12.3926 19.3652C12.2767 19.4551 12.1351 19.5 12 19.5C11.8649 19.5 11.7233 19.4552 11.6074 19.3652C11.5545 19.3244 11.056 18.9321 10.4521 18.2861C10.4164 18.2479 10.3812 18.208 10.3447 18.168C10.1794 17.9864 10.0069 17.7878 9.83594 17.5723C8.97594 16.4881 8.1274 14.9975 8.13379 13.3398C8.13389 11.0523 9.86708 9.18951 12 9.18945ZM12 11.7676C11.2914 11.7676 10.7122 12.3471 10.7119 13.0557C10.7119 13.7645 11.2912 14.3447 12 14.3447C12.7089 14.3447 13.2881 13.7645 13.2881 13.0557C13.2878 12.347 12.7087 11.7676 12 11.7676Z" fill="white"/>
<path d="M8.64551 1.5C8.79619 1.50004 8.94119 1.55652 9.04785 1.65723C9.15434 1.75812 9.21475 1.89551 9.21484 2.03809C9.21474 2.18064 9.15432 2.31807 9.04785 2.41895C8.66021 2.78562 8.35241 3.22107 8.14258 3.7002C7.93288 4.17913 7.8253 4.69253 7.8252 5.21094C7.8252 5.72969 7.93271 6.24439 8.14258 6.72363C8.35243 7.20278 8.66017 7.63821 9.04785 8.00488C9.10373 8.05417 9.14957 8.11366 9.18066 8.17969C9.21163 8.24558 9.22714 8.31754 9.22852 8.38965C9.22978 8.46152 9.21585 8.53292 9.1875 8.59961C9.15892 8.66655 9.11641 8.72821 9.0625 8.7793C9.00855 8.83033 8.94376 8.87038 8.87305 8.89746C8.80238 8.92445 8.72659 8.9387 8.65039 8.9375C8.57397 8.93622 8.49755 8.92006 8.42773 8.89062C8.3584 8.86132 8.296 8.81909 8.24414 8.7666C7.75091 8.29996 7.35878 7.74544 7.0918 7.13574C6.82481 6.5259 6.6875 5.87103 6.6875 5.21094C6.68761 4.55118 6.82497 3.89763 7.0918 3.28809C7.35878 2.67834 7.75088 2.1239 8.24414 1.65723C8.35073 1.55673 8.49503 1.50009 8.64551 1.5Z" fill="white"/>
<path d="M15.3545 1.5C15.505 1.50013 15.6493 1.55669 15.7559 1.65723C16.2491 2.12391 16.6412 2.67832 16.9082 3.28809C17.175 3.89762 17.3124 4.5512 17.3125 5.21094C17.3125 5.87103 17.1752 6.52591 16.9082 7.13574C16.6412 7.74547 16.2491 8.29994 15.7559 8.7666C15.704 8.81909 15.6416 8.8613 15.5723 8.89062C15.5025 8.92006 15.426 8.93622 15.3496 8.9375C15.2734 8.93874 15.1977 8.92446 15.127 8.89746C15.0562 8.8704 14.9915 8.83033 14.9375 8.7793C14.8836 8.7282 14.8411 8.66657 14.8125 8.59961C14.7841 8.53289 14.7702 8.46156 14.7715 8.38965C14.7729 8.3175 14.7883 8.24561 14.8193 8.17969C14.8504 8.11363 14.8962 8.05418 14.9521 8.00488C15.3398 7.63821 15.6476 7.20278 15.8574 6.72363C16.0673 6.2444 16.1748 5.72968 16.1748 5.21094C16.1747 4.69254 16.0671 4.17912 15.8574 3.7002C15.6476 3.22109 15.3398 2.78561 14.9521 2.41895C14.8457 2.31806 14.7853 2.18065 14.7852 2.03809C14.7853 1.8955 14.8457 1.75812 14.9521 1.65723C15.0588 1.55657 15.2038 1.50001 15.3545 1.5Z" fill="white"/>
<path d="M10.3232 3.08691C10.4738 3.08704 10.618 3.14357 10.7246 3.24414C10.8311 3.34502 10.8915 3.48244 10.8916 3.625C10.8915 3.76752 10.8311 3.90501 10.7246 4.00586C10.5573 4.16415 10.4246 4.35275 10.334 4.55957C10.2436 4.76614 10.1974 4.98737 10.1973 5.21094C10.1973 5.43484 10.2434 5.65739 10.334 5.86426C10.4246 6.07111 10.5572 6.25967 10.7246 6.41797C10.7805 6.46726 10.8263 6.52674 10.8574 6.59277C10.8884 6.65872 10.9049 6.73057 10.9062 6.80273C10.9075 6.87491 10.8938 6.94771 10.8652 7.01465C10.8367 7.08135 10.793 7.14146 10.7393 7.19238C10.6852 7.24345 10.6206 7.28446 10.5498 7.31152C10.4791 7.33848 10.4033 7.35181 10.3271 7.35059C10.2508 7.3493 10.1743 7.33313 10.1045 7.30371C10.0352 7.27438 9.97273 7.23219 9.9209 7.17969C9.36945 6.6579 9.05957 5.94885 9.05957 5.21094C9.05979 4.47331 9.36965 3.76575 9.9209 3.24414C10.0276 3.14346 10.1725 3.08691 10.3232 3.08691Z" fill="white"/>
<path d="M13.6768 3.08691C13.8275 3.08694 13.9724 3.14338 14.0791 3.24414C14.6304 3.76575 14.9402 4.47331 14.9404 5.21094C14.9404 5.94885 14.6305 6.6579 14.0791 7.17969C14.0271 7.23246 13.9632 7.27433 13.8936 7.30371C13.824 7.33294 13.7489 7.34927 13.6729 7.35059C13.5967 7.35182 13.5208 7.33842 13.4502 7.31152C13.3793 7.28444 13.3138 7.24352 13.2598 7.19238C13.2061 7.14152 13.1633 7.08122 13.1348 7.01465C13.1062 6.94771 13.0925 6.87491 13.0938 6.80273C13.0951 6.73055 13.1116 6.65873 13.1426 6.59277C13.1737 6.52677 13.2195 6.46724 13.2754 6.41797C13.4427 6.2597 13.5754 6.07105 13.666 5.86426C13.7565 5.65741 13.8027 5.43481 13.8027 5.21094C13.8026 4.98741 13.7564 4.7661 13.666 4.55957C13.5755 4.35282 13.4426 4.16412 13.2754 4.00586C13.1689 3.90501 13.1085 3.76752 13.1084 3.625C13.1085 3.48244 13.1689 3.34502 13.2754 3.24414C13.382 3.14362 13.5262 3.08698 13.6768 3.08691Z" fill="white"/>
<path d="M12 4.4209C12.2112 4.42091 12.4141 4.50598 12.5635 4.65527C12.7127 4.80459 12.7968 5.00768 12.7969 5.21875C12.7967 5.42974 12.7126 5.63293 12.5635 5.78223C12.4141 5.93141 12.2111 6.01561 12 6.01562C11.7888 6.01562 11.5859 5.93143 11.4365 5.78223C11.2874 5.63293 11.2033 5.42977 11.2031 5.21875C11.2032 5.00766 11.2873 4.8046 11.4365 4.65527C11.5859 4.50596 11.7888 4.4209 12 4.4209Z" fill="white"/>
</svg>
