<svg width="24" height="24" viewBox="0 0 24 24" fill="none" xmlns="http://www.w3.org/2000/svg">
<path fill-rule="evenodd" clip-rule="evenodd" d="M13.2354 1.5C13.4583 1.5 13.6472 1.66037 13.6855 1.87793L13.8418 2.77051C15.0557 3.01647 16.183 3.50199 17.1729 4.17383L17.9346 3.62793C18.0227 3.56495 18.1303 3.53437 18.2383 3.54297C18.3463 3.55161 18.4484 3.59861 18.5254 3.6748L20.2998 5.44922C20.4572 5.60664 20.4777 5.85405 20.3506 6.03516L19.7754 6.85352C20.3974 7.82739 20.8411 8.92523 21.0615 10.1025L22.1191 10.2754C22.2253 10.2936 22.3219 10.3495 22.3916 10.4316C22.4612 10.5138 22.5002 10.618 22.501 10.7256V13.2363C22.5002 13.3434 22.4615 13.4474 22.3926 13.5293C22.3236 13.6111 22.2283 13.6665 22.123 13.6855L20.9844 13.8857C20.7292 14.9942 20.276 16.0266 19.6611 16.9424L20.376 17.9346C20.4388 18.0226 20.4685 18.1305 20.46 18.2383C20.4513 18.3462 20.4043 18.4475 20.3281 18.5244L18.5527 20.2988C18.4769 20.3742 18.377 20.421 18.2705 20.4307C18.1639 20.4402 18.057 20.4122 17.9688 20.3516L16.9141 19.6113C16.0081 20.1831 14.9965 20.6016 13.9141 20.8301L13.6855 22.124C13.6662 22.2292 13.6103 22.3249 13.5283 22.3936C13.4462 22.4622 13.3424 22.4996 13.2354 22.5H10.7246C10.6169 22.4994 10.5129 22.4612 10.4307 22.3916C10.3486 22.3221 10.2929 22.2261 10.2744 22.1201L10.0576 20.8242C8.9866 20.5945 7.98541 20.1786 7.08789 19.6123L6.03418 20.3506C5.94624 20.4119 5.83923 20.4407 5.73242 20.4316C5.62551 20.4225 5.52462 20.3762 5.44824 20.3008L3.67285 18.5234C3.59738 18.4466 3.55067 18.3456 3.54199 18.2383C3.53347 18.131 3.56279 18.0234 3.625 17.9355L4.33691 16.9395C3.72358 16.025 3.27154 14.9941 3.0166 13.8877L1.87695 13.6855C1.77179 13.6663 1.67615 13.6112 1.60742 13.5293C1.53879 13.4474 1.5007 13.3432 1.5 13.2363V10.7256C1.5003 10.5028 1.66192 10.3121 1.88086 10.2754L2.93848 10.0986C3.15902 8.92332 3.60275 7.82698 4.22363 6.85449L3.64746 6.03223C3.58678 5.94423 3.55903 5.83696 3.56836 5.73047C3.57789 5.62418 3.62419 5.52416 3.69922 5.44824L5.47363 3.67383C5.63109 3.51661 5.88051 3.49529 6.06152 3.625L6.82812 4.17285C7.80912 3.50713 8.9255 3.02528 10.127 2.77734L10.2734 1.88379C10.2915 1.77717 10.3463 1.6794 10.4287 1.60938C10.5113 1.53938 10.6164 1.50039 10.7246 1.5H13.2354ZM12 4.70996C8.07951 4.71022 4.9016 7.88908 4.90137 11.8096C4.90149 14.4239 6.31576 16.7066 8.41992 17.9385C8.73775 17.1199 9.53196 16.5392 10.4629 16.5391H10.6104L8.52441 12.666H8.51465C7.53336 12.5661 6.75301 11.786 6.65332 10.8047L6.64258 10.5918C6.64266 9.44013 7.57686 8.50599 8.72852 8.50586L8.94141 8.5166C9.5822 8.58169 10.1359 8.93819 10.4717 9.4502H12.9219C13.1291 9.23766 13.4181 9.10467 13.7383 9.10449C13.9279 9.10449 14.1073 9.15155 14.2646 9.2334L15.2256 8.36035C15.607 8.01329 16.1898 8.01347 16.5713 8.36035L17.6875 9.37598C17.8913 9.56188 17.9064 9.87793 17.7207 10.082C17.5349 10.2858 17.2188 10.3006 17.0146 10.1152L15.8984 9.09961L14.8604 10.0439C14.8721 10.1097 14.8799 10.177 14.8799 10.2461V10.9365C14.8799 11.0056 14.8721 11.073 14.8604 11.1387L15.8984 12.084L17.0146 11.0684C17.2188 10.8827 17.5349 10.8976 17.7207 11.1016C17.9063 11.3057 17.8915 11.6218 17.6875 11.8076L16.5713 12.8232C16.1898 13.1701 15.607 13.1701 15.2256 12.8232L14.2646 11.9482C14.1071 12.0303 13.9282 12.0781 13.7383 12.0781C13.482 12.078 13.2461 11.9923 13.0557 11.8496H10.8105L13.335 16.5391H13.5381C14.4688 16.5392 15.2613 17.1202 15.5791 17.9385C17.6841 16.7068 19.0995 14.4244 19.0996 11.8096C19.0994 7.88892 15.9207 4.70996 12 4.70996ZM8.72754 9.91309C8.35303 9.91334 8.04884 10.2172 8.04883 10.5918C8.04897 10.9663 8.35311 11.2703 8.72754 11.2705C9.10219 11.2705 9.40611 10.9664 9.40625 10.5918C9.40624 10.2171 9.10226 9.91309 8.72754 9.91309Z" fill="white"/>
</svg>
