<svg width="24" height="24" viewBox="0 0 24 24" fill="none" xmlns="http://www.w3.org/2000/svg">
<path fill-rule="evenodd" clip-rule="evenodd" d="M11.8564 13.5938C11.9325 13.5042 12.0666 13.5041 12.1426 13.5938C12.55 14.0764 13.6846 15.5166 13.6846 16.5918C13.6845 17.6254 13.0334 18.276 12 18.2764C10.9661 18.2764 10.3145 17.6257 10.3145 16.5918C10.3145 15.5165 11.4491 14.0762 11.8564 13.5938ZM13.1318 16.6855C13.0545 16.6855 12.9931 16.7485 12.9775 16.8242C12.9502 16.9584 12.8834 17.0834 12.7852 17.1816C12.687 17.2797 12.5626 17.3457 12.4287 17.373C12.3529 17.3885 12.2892 17.45 12.2891 17.5273C12.2891 17.6049 12.3529 17.6693 12.4297 17.6582C12.6382 17.6278 12.8336 17.5306 12.9844 17.3799C13.135 17.229 13.2315 17.0338 13.2617 16.8252C13.2727 16.7487 13.2091 16.6859 13.1318 16.6855Z" fill="white"/>
<path fill-rule="evenodd" clip-rule="evenodd" d="M14.1934 9.30176C14.6896 9.30202 15.0928 9.70487 15.0928 10.2012H15.8682C16.9724 10.2015 17.868 11.0969 17.8682 12.2012V19.6016C17.8681 20.7059 16.9724 21.6012 15.8682 21.6016H15.0928L15.0879 21.6934C15.0417 22.1463 14.6585 22.4998 14.1934 22.5H9.80566C9.30941 22.4999 8.90749 22.0978 8.90723 21.6016H8.13086C7.02648 21.6014 6.12991 20.706 6.12988 19.6016V12.2012C6.13005 11.0969 7.02656 10.2014 8.13086 10.2012H8.90723C8.90723 9.70474 9.30925 9.30181 9.80566 9.30176H14.1934ZM12 12.248C9.98209 12.248 8.34578 13.8835 8.3457 15.9014C8.3457 17.9193 9.98205 19.5557 12 19.5557C14.0176 19.5552 15.6533 17.9191 15.6533 15.9014C15.6532 13.8837 14.0175 12.2485 12 12.248Z" fill="white"/>
<path d="M8.64551 1.5C8.79619 1.50004 8.94119 1.55652 9.04785 1.65723C9.15434 1.75812 9.21475 1.89551 9.21484 2.03809C9.21474 2.18064 9.15432 2.31807 9.04785 2.41895C8.66021 2.78562 8.35241 3.22107 8.14258 3.7002C7.93289 4.17913 7.8253 4.69253 7.8252 5.21094C7.8252 5.72969 7.93271 6.24439 8.14258 6.72363C8.35243 7.20278 8.66017 7.63821 9.04785 8.00488C9.10373 8.05417 9.14957 8.11366 9.18066 8.17969C9.21163 8.24558 9.22714 8.31754 9.22852 8.38965C9.22978 8.46152 9.21585 8.53292 9.1875 8.59961C9.15892 8.66655 9.11641 8.72821 9.0625 8.7793C9.00855 8.83033 8.94376 8.87038 8.87305 8.89746C8.80238 8.92445 8.72659 8.9387 8.65039 8.9375C8.57397 8.93622 8.49755 8.92006 8.42773 8.89062C8.3584 8.86132 8.296 8.81909 8.24414 8.7666C7.75091 8.29996 7.35878 7.74544 7.0918 7.13574C6.82481 6.5259 6.6875 5.87103 6.6875 5.21094C6.68761 4.55118 6.82497 3.89763 7.0918 3.28809C7.35878 2.67834 7.75088 2.1239 8.24414 1.65723C8.35073 1.55673 8.49503 1.50009 8.64551 1.5Z" fill="white"/>
<path d="M15.3545 1.5C15.505 1.50013 15.6493 1.55669 15.7559 1.65723C16.2491 2.12391 16.6412 2.67832 16.9082 3.28809C17.175 3.89762 17.3124 4.5512 17.3125 5.21094C17.3125 5.87103 17.1752 6.52591 16.9082 7.13574C16.6412 7.74547 16.2491 8.29994 15.7559 8.7666C15.704 8.81909 15.6416 8.8613 15.5723 8.89062C15.5025 8.92006 15.426 8.93622 15.3496 8.9375C15.2734 8.93874 15.1977 8.92446 15.127 8.89746C15.0562 8.8704 14.9915 8.83033 14.9375 8.7793C14.8836 8.7282 14.8411 8.66657 14.8125 8.59961C14.7841 8.53289 14.7702 8.46156 14.7715 8.38965C14.7729 8.3175 14.7883 8.24561 14.8193 8.17969C14.8504 8.11363 14.8962 8.05418 14.9521 8.00488C15.3398 7.63821 15.6476 7.20278 15.8574 6.72363C16.0673 6.2444 16.1748 5.72968 16.1748 5.21094C16.1747 4.69254 16.0671 4.17912 15.8574 3.7002C15.6476 3.22109 15.3398 2.78561 14.9521 2.41895C14.8457 2.31806 14.7853 2.18065 14.7852 2.03809C14.7853 1.8955 14.8457 1.75812 14.9521 1.65723C15.0588 1.55657 15.2038 1.50001 15.3545 1.5Z" fill="white"/>
<path d="M10.3232 3.08691C10.4738 3.08704 10.618 3.14357 10.7246 3.24414C10.8311 3.34502 10.8915 3.48244 10.8916 3.625C10.8915 3.76752 10.8311 3.90501 10.7246 4.00586C10.5573 4.16415 10.4246 4.35275 10.334 4.55957C10.2436 4.76614 10.1974 4.98737 10.1973 5.21094C10.1973 5.43484 10.2434 5.65739 10.334 5.86426C10.4246 6.07111 10.5572 6.25967 10.7246 6.41797C10.7805 6.46726 10.8263 6.52674 10.8574 6.59277C10.8884 6.65872 10.9049 6.73057 10.9062 6.80273C10.9075 6.87491 10.8938 6.94771 10.8652 7.01465C10.8367 7.08135 10.793 7.14146 10.7393 7.19238C10.6852 7.24345 10.6206 7.28446 10.5498 7.31152C10.4791 7.33848 10.4033 7.35181 10.3271 7.35059C10.2508 7.3493 10.1743 7.33313 10.1045 7.30371C10.0352 7.27438 9.97273 7.23219 9.9209 7.17969C9.36945 6.6579 9.05957 5.94885 9.05957 5.21094C9.05979 4.47331 9.36965 3.76575 9.9209 3.24414C10.0276 3.14346 10.1725 3.08691 10.3232 3.08691Z" fill="white"/>
<path d="M13.6768 3.08691C13.8275 3.08694 13.9724 3.14338 14.0791 3.24414C14.6304 3.76575 14.9402 4.47331 14.9404 5.21094C14.9404 5.94885 14.6305 6.6579 14.0791 7.17969C14.0271 7.23246 13.9632 7.27433 13.8936 7.30371C13.824 7.33294 13.7489 7.34927 13.6729 7.35059C13.5967 7.35182 13.5208 7.33842 13.4502 7.31152C13.3793 7.28444 13.3138 7.24352 13.2598 7.19238C13.2061 7.14152 13.1633 7.08122 13.1348 7.01465C13.1062 6.94771 13.0925 6.87491 13.0938 6.80273C13.0951 6.73055 13.1116 6.65873 13.1426 6.59277C13.1737 6.52677 13.2195 6.46724 13.2754 6.41797C13.4427 6.2597 13.5754 6.07105 13.666 5.86426C13.7565 5.65741 13.8027 5.43481 13.8027 5.21094C13.8026 4.98741 13.7564 4.7661 13.666 4.55957C13.5755 4.35282 13.4426 4.16412 13.2754 4.00586C13.1689 3.90501 13.1085 3.76752 13.1084 3.625C13.1085 3.48244 13.1689 3.34502 13.2754 3.24414C13.382 3.14362 13.5262 3.08698 13.6768 3.08691Z" fill="white"/>
<path d="M12 4.4209C12.2112 4.42091 12.4141 4.50598 12.5635 4.65527C12.7127 4.80459 12.7968 5.00768 12.7969 5.21875C12.7967 5.42974 12.7126 5.63293 12.5635 5.78223C12.4141 5.93141 12.2111 6.01561 12 6.01562C11.7888 6.01562 11.5859 5.93143 11.4365 5.78223C11.2874 5.63293 11.2033 5.42977 11.2031 5.21875C11.2032 5.00766 11.2873 4.8046 11.4365 4.65527C11.5859 4.50596 11.7888 4.4209 12 4.4209Z" fill="white"/>
</svg>
