<svg width="24" height="24" viewBox="0 0 24 24" fill="none" xmlns="http://www.w3.org/2000/svg">
<path d="M22.5029 19V7.11237C22.5029 6.98913 22.4574 6.87022 22.3751 6.77848L20.6291 4.83223C20.4394 4.62079 20.1688 4.5 19.8848 4.5H19.0186C18.4663 4.5 18.0186 4.94772 18.0186 5.5V15.0436C18.0186 15.5959 17.5709 16.0436 17.0186 16.0436H7.03546C6.48318 16.0436 6.03546 15.5959 6.03546 15.0436V5.5C6.03546 4.94772 5.58775 4.5 5.03546 4.5H4.16276C3.88251 4.5 3.61513 4.61759 3.42573 4.82414L1.63441 6.77758C1.54985 6.8698 1.50293 6.99038 1.50293 7.11551V19C1.50293 19.2761 1.72679 19.5 2.00293 19.5H22.0029C22.2791 19.5 22.5029 19.2761 22.5029 19Z" fill="white"/>
<path fill-rule="evenodd" clip-rule="evenodd" d="M15.6074 6.693C16.1597 6.693 16.6074 7.14071 16.6074 7.693V13.9508C16.6074 14.5031 16.1597 14.9508 15.6074 14.9508H8.4043C7.85202 14.9508 7.40431 14.5031 7.4043 13.9508V7.693C7.4043 7.14071 7.85201 6.693 8.4043 6.693H15.6074ZM12.0059 8.15784C11.8638 8.15784 11.7216 8.17133 11.584 8.18909C11.513 8.20245 11.4601 8.26411 11.4512 8.33948L11.3838 8.92151C11.1175 9.01033 10.8775 9.15263 10.6777 9.3346L10.1406 9.09436C10.1078 9.07927 10.0704 9.07561 10.0352 9.08362C10 9.09172 9.96833 9.11149 9.94531 9.13929C9.76346 9.35669 9.62161 9.6051 9.51953 9.86683C9.49289 9.93786 9.51944 10.0177 9.57715 10.0621L10.0518 10.4088C10.0207 10.542 10.0078 10.6798 10.0078 10.8219C10.0078 10.9595 10.0212 11.097 10.0479 11.2301L9.57715 11.5768C9.51498 11.6212 9.49289 11.701 9.51953 11.7721C9.62166 12.0385 9.7638 12.283 9.94141 12.5006C9.99028 12.5581 10.0702 12.5756 10.1367 12.5446L10.6738 12.3092C10.8781 12.4913 11.1179 12.634 11.3799 12.7184L11.4424 13.3043C11.4513 13.3796 11.5039 13.4374 11.5791 13.4508C11.7212 13.473 11.8593 13.486 12.0059 13.486C12.148 13.486 12.2901 13.4725 12.4277 13.4547C12.4987 13.4414 12.5566 13.3837 12.5654 13.3082L12.6318 12.7223C12.8982 12.6335 13.1381 12.4961 13.3379 12.3141L13.875 12.5494C13.9416 12.5805 14.0259 12.5622 14.0703 12.5045C14.2478 12.2871 14.3901 12.0432 14.4922 11.777C14.5044 11.7425 14.5055 11.7047 14.4951 11.6696C14.4847 11.6345 14.4636 11.6039 14.4346 11.5817L13.96 11.235C13.991 11.1018 14.0039 10.964 14.0039 10.8219C14.0039 10.6843 13.9905 10.5468 13.9639 10.4137L14.4346 10.067C14.4967 10.0226 14.5188 9.94276 14.4922 9.87171C14.3901 9.60529 14.2479 9.36077 14.0703 9.14319C14.0472 9.11544 14.0157 9.09553 13.9805 9.08753C13.9452 9.07956 13.9078 9.0841 13.875 9.09925L13.3379 9.3346C13.1336 9.15254 12.8938 9.00979 12.6318 8.92542L12.5654 8.33948C12.5637 8.30358 12.5495 8.26947 12.5254 8.2428C12.5012 8.21616 12.4682 8.1982 12.4326 8.193C12.2905 8.17079 12.1524 8.15784 12.0059 8.15784Z" fill="white"/>
<path d="M11.0059 10.8218C11.0059 11.3752 11.4525 11.8218 12.0059 11.8218C12.5592 11.8218 13.0059 11.3752 13.0059 10.8218C13.0059 10.2685 12.5592 9.82184 12.0059 9.82184C11.4525 9.82184 11.0059 10.2685 11.0059 10.8218Z" fill="white"/>
<path d="M7.40424 5.2C7.40424 4.8134 7.71764 4.5 8.10424 4.5H15.9074C16.294 4.5 16.6074 4.8134 16.6074 5.2C16.6074 5.5866 16.294 5.9 15.9074 5.9H8.10423C7.71764 5.9 7.40424 5.5866 7.40424 5.2Z" fill="white"/>
</svg>
