<svg width="24" height="24" viewBox="0 0 24 24" fill="none" xmlns="http://www.w3.org/2000/svg">
<path d="M12 12.2754C13.0908 12.2754 13.9746 13.1592 13.9746 14.25C13.9746 15.3408 13.0908 16.2246 12 16.2246C10.9092 16.2246 10.0254 15.3408 10.0254 14.25C10.0254 13.1592 10.9092 12.2754 12 12.2754Z" fill="white"/>
<path fill-rule="evenodd" clip-rule="evenodd" d="M17.625 3C18.2463 3 18.75 3.50368 18.75 4.125C18.75 4.74632 18.2463 5.25 17.625 5.25H13.125V7.5H17.875C18.9796 7.5 19.875 8.39543 19.875 9.5V10.875C20.4963 10.875 21 11.3787 21 12V16.5C21 17.1213 20.4963 17.625 19.875 17.625V19C19.875 20.1046 18.9796 21 17.875 21H6.125C5.02044 21 4.12501 20.1046 4.125 19V17.625C3.50368 17.625 3 17.1213 3 16.5V12C3 11.3787 3.50368 10.875 4.125 10.875V9.5C4.125 8.39543 5.02043 7.5 6.125 7.5H10.875V5.25H6.375C5.75368 5.25 5.25 4.74632 5.25 4.125C5.25 3.50368 5.75368 3 6.375 3H17.625ZM12 10.875C10.136 10.875 8.625 12.386 8.625 14.25C8.625 16.114 10.136 17.625 12 17.625C13.864 17.625 15.375 16.114 15.375 14.25C15.375 12.386 13.864 10.875 12 10.875ZM16.5 9.75C15.8787 9.75001 15.375 10.2537 15.375 10.875C15.375 11.4963 15.8787 12 16.5 12C17.1213 12 17.625 11.4963 17.625 10.875C17.625 10.2537 17.1213 9.75 16.5 9.75Z" fill="white"/>
</svg>
