<svg width="24" height="24" viewBox="0 0 24 24" fill="none" xmlns="http://www.w3.org/2000/svg">
<path d="M5.24923 21C4.72818 21 4.28228 20.8146 3.91154 20.4439C3.54081 20.0732 3.35512 19.6269 3.35449 19.1053V15.3158C3.35449 14.7947 3.54018 14.3488 3.91154 13.9781C4.28291 13.6074 4.72881 13.4217 5.24923 13.4211H14.7229V10.5789C14.7229 10.3105 14.8139 10.0857 14.9958 9.90442C15.1776 9.72316 15.4025 9.63221 15.6703 9.63158C15.9381 9.63095 16.1632 9.72189 16.3457 9.90442C16.5283 10.0869 16.6189 10.3118 16.6176 10.5789V13.4211H18.5124C19.0334 13.4211 19.4796 13.6067 19.851 13.9781C20.2224 14.3495 20.4077 14.7954 20.4071 15.3158V19.1053C20.4071 19.6263 20.2217 20.0725 19.851 20.4439C19.4803 20.8153 19.0341 21.0006 18.5124 21H5.24923ZM7.14396 18.1579C7.41239 18.1579 7.63754 18.0669 7.81944 17.8851C8.00133 17.7032 8.09196 17.4783 8.09133 17.2105C8.0907 16.9427 7.99975 16.7179 7.81849 16.536C7.63723 16.3541 7.41239 16.2632 7.14396 16.2632C6.87554 16.2632 6.6507 16.3541 6.46944 16.536C6.28818 16.7179 6.19723 16.9427 6.1966 17.2105C6.19596 17.4783 6.28691 17.7035 6.46944 17.886C6.65196 18.0685 6.87681 18.1592 7.14396 18.1579ZM10.4598 18.1579C10.7282 18.1579 10.9533 18.0669 11.1352 17.8851C11.3171 17.7032 11.4078 17.4783 11.4071 17.2105C11.4065 16.9427 11.3155 16.7179 11.1343 16.536C10.953 16.3541 10.7282 16.2632 10.4598 16.2632C10.1913 16.2632 9.96649 16.3541 9.78523 16.536C9.60396 16.7179 9.51302 16.9427 9.51238 17.2105C9.51175 17.4783 9.6027 17.7035 9.78523 17.886C9.96775 18.0685 10.1926 18.1592 10.4598 18.1579ZM13.7755 18.1579C14.044 18.1579 14.2691 18.0669 14.451 17.8851C14.6329 17.7032 14.7235 17.4783 14.7229 17.2105C14.7223 16.9427 14.6313 16.7179 14.4501 16.536C14.2688 16.3541 14.044 16.2632 13.7755 16.2632C13.5071 16.2632 13.2823 16.3541 13.101 16.536C12.9198 16.7179 12.8288 16.9427 12.8282 17.2105C12.8275 17.4783 12.9185 17.7035 13.101 17.886C13.2835 18.0685 13.5084 18.1592 13.7755 18.1579ZM15.6703 8.21053C15.4966 8.21053 15.3387 8.22632 15.1966 8.25789C15.0545 8.28947 14.9124 8.33684 14.7703 8.4C14.5176 8.51053 14.2612 8.55789 14.001 8.5421C13.7408 8.52632 13.5156 8.42368 13.3255 8.23421C13.1354 8.04474 13.0445 7.81579 13.0527 7.54737C13.0609 7.27895 13.1755 7.08158 13.3966 6.95526C13.7282 6.75 14.0875 6.59211 14.4747 6.48158C14.8619 6.37105 15.2604 6.31579 15.6703 6.31579C16.0966 6.31579 16.4992 6.37105 16.8782 6.48158C17.2571 6.59211 17.6124 6.75 17.944 6.95526C18.165 7.08158 18.2796 7.27895 18.2879 7.54737C18.2961 7.81579 18.2051 8.04474 18.015 8.23421C17.8249 8.42368 17.596 8.52632 17.3282 8.5421C17.0604 8.55789 16.7999 8.51053 16.5466 8.4C16.4203 8.33684 16.2823 8.28947 16.1326 8.25789C15.9829 8.22632 15.8288 8.21053 15.6703 8.21053ZM15.6703 4.89474C15.0545 4.89474 14.4665 4.98568 13.9063 5.16758C13.3461 5.34947 12.8288 5.61379 12.3545 5.96053C12.1334 6.11842 11.8925 6.18947 11.6316 6.17368C11.3708 6.15789 11.1539 6.06316 10.9808 5.88947C10.7913 5.7 10.6966 5.47895 10.6966 5.22632C10.6966 4.97368 10.7992 4.76842 11.0045 4.61053C11.6519 4.10526 12.3703 3.71053 13.1598 3.42632C13.9492 3.14211 14.7861 3 15.6703 3C16.5545 3 17.3913 3.14211 18.1808 3.42632C18.9703 3.71053 19.6887 4.10526 20.3361 4.61053C20.5413 4.76842 20.644 4.97368 20.644 5.22632C20.644 5.47895 20.5492 5.7 20.3597 5.88947C20.1861 6.06316 19.9688 6.15789 19.708 6.17368C19.4471 6.18947 19.2065 6.11842 18.9861 5.96053C18.5124 5.61316 17.9951 5.34884 17.4343 5.16758C16.8734 4.98632 16.2854 4.89537 15.6703 4.89474Z" fill="white"/>
</svg>
