<svg width="24" height="24" viewBox="0 0 24 24" fill="none" xmlns="http://www.w3.org/2000/svg">
<path d="M7.64769 13.9091C8.08234 15.9281 9.8652 17.4411 12.0003 17.4411C14.1355 17.4411 15.9183 15.9281 16.353 13.9091H19.5837V18.6818C19.5837 20.7905 17.8861 22.5 15.792 22.5H8.20866C6.11458 22.5 4.41699 20.7905 4.41699 18.6818V13.9091H7.64769Z" fill="white"/>
<path fill-rule="evenodd" clip-rule="evenodd" d="M12.0003 9.80473C13.7279 9.80473 15.1283 11.2148 15.1283 12.9545C15.1283 14.6942 13.7279 16.1044 12.0003 16.1044C10.2727 16.1044 8.87239 14.6942 8.87239 12.9545C8.87239 11.2148 10.2727 9.80473 12.0003 9.80473ZM13.5638 11.3904L11.7559 12.4829C11.3985 12.6991 11.338 13.1964 11.6328 13.4933C11.9277 13.7901 12.4217 13.7284 12.6363 13.3684L13.7212 11.5479C13.7822 11.4451 13.6659 11.3287 13.5638 11.3904Z" fill="white"/>
<path fill-rule="evenodd" clip-rule="evenodd" d="M16.7399 1.5C17.2634 1.5 17.6878 1.92736 17.6878 2.45455C17.6878 2.98173 17.2634 3.40909 16.7399 3.40909H15.792V5.31818L15.9873 5.32284C17.9906 5.4252 19.5837 7.0936 19.5837 9.13636V12H16.353C15.9183 9.98094 14.1355 8.468 12.0003 8.468C9.8652 8.468 8.08234 9.98094 7.64769 12H4.41699V9.13636C4.41699 7.02764 6.11458 5.31818 8.20866 5.31818V3.40909H7.26074C6.73722 3.40909 6.31283 2.98173 6.31283 2.45455C6.31283 1.92736 6.73722 1.5 7.26074 1.5H16.7399ZM10.1045 5.31818H11.0524C11.0524 4.791 11.4768 4.36364 12.0003 4.36364C12.5238 4.36364 12.9482 4.791 12.9482 5.31818H13.8962V3.40909H10.1045V5.31818Z" fill="white"/>
</svg>
