<svg width="24" height="24" viewBox="0 0 24 24" fill="none" xmlns="http://www.w3.org/2000/svg">
<path d="M12.0039 8.53027C12.5068 8.53034 13.0056 8.63952 13.459 8.85059C13.9124 9.06184 14.3121 9.37067 14.623 9.75488C14.8308 10.0122 14.7908 10.3902 14.5342 10.5986C14.2767 10.8065 13.8978 10.7668 13.6895 10.5098C13.4966 10.2716 13.2447 10.0748 12.9521 9.93848C12.6594 9.80221 12.334 9.73055 12.0039 9.73047C11.6739 9.73058 11.3484 9.80225 11.0557 9.93848C10.7633 10.0748 10.5111 10.2718 10.3184 10.5098C10.11 10.7666 9.73198 10.8072 9.47461 10.5996C9.2173 10.3913 9.17789 10.0124 9.38574 9.75488C9.69665 9.37091 10.0966 9.06175 10.5498 8.85059C11.003 8.63968 11.5012 8.53038 12.0039 8.53027Z" fill="white"/>
<path d="M12.0039 6.08398C12.7882 6.08414 13.5648 6.24857 14.2754 6.56641C14.986 6.88441 15.616 7.34858 16.1162 7.92773C16.3323 8.17836 16.3049 8.55786 16.0547 8.77441C15.804 8.99038 15.4245 8.96215 15.208 8.71191C14.8258 8.26943 14.3396 7.90929 13.7852 7.66113C13.2306 7.41312 12.6212 7.28334 12.0039 7.2832C11.3866 7.28324 10.7773 7.41319 10.2227 7.66113C9.66816 7.90918 9.18213 8.26954 8.7998 8.71191C8.58319 8.96193 8.20366 8.9895 7.95312 8.77344C7.70285 8.55693 7.67561 8.17741 7.8916 7.92676C8.39188 7.34793 9.02202 6.88323 9.73242 6.56543C10.443 6.24778 11.2197 6.08402 12.0039 6.08398Z" fill="white"/>
<path d="M12.0049 14.7031C12.1963 14.703 12.3604 14.7706 12.4951 14.9053C12.6295 15.04 12.6968 15.2036 12.6963 15.3945C12.6956 15.5855 12.6283 15.7497 12.4951 15.8848C12.3616 16.0197 12.1974 16.0866 12.0049 16.0859C11.812 16.085 11.648 16.0179 11.5146 15.8848C11.3802 15.7503 11.3136 15.5864 11.3135 15.3945C11.3136 15.2028 11.3804 15.0394 11.5146 14.9053C11.6492 14.7712 11.8133 14.7034 12.0049 14.7031Z" fill="white"/>
<path fill-rule="evenodd" clip-rule="evenodd" d="M13.2354 1.5C13.4581 1.50023 13.6473 1.66053 13.6855 1.87793L13.8418 2.77051C15.0555 3.0165 16.1831 3.50208 17.1729 4.17383L17.9346 3.62793C18.0226 3.56511 18.1305 3.53438 18.2383 3.54297C18.3461 3.55171 18.4485 3.59872 18.5254 3.6748L20.2998 5.44922C20.4569 5.60658 20.4774 5.85417 20.3506 6.03516L19.7754 6.85352C20.3974 7.82733 20.8411 8.92532 21.0615 10.1025L22.1191 10.2754C22.2251 10.2937 22.322 10.3497 22.3916 10.4316C22.461 10.5137 22.5002 10.6181 22.501 10.7256V13.2363C22.5002 13.3433 22.4613 13.4474 22.3926 13.5293C22.3238 13.611 22.2281 13.6664 22.123 13.6855L20.9844 13.8857C20.7292 14.9941 20.2759 16.0266 19.6611 16.9424L20.376 17.9346C20.4387 18.0225 20.4685 18.1306 20.46 18.2383C20.4513 18.3461 20.4041 18.4475 20.3281 18.5244L18.5527 20.2988C18.477 20.374 18.3768 20.4209 18.2705 20.4307C18.164 20.4402 18.0569 20.4121 17.9688 20.3516L16.9141 19.6113C16.0082 20.183 14.9964 20.6016 13.9141 20.8301L13.6855 22.124C13.6662 22.2291 13.6102 22.3249 13.5283 22.3936C13.4463 22.4621 13.3422 22.4995 13.2354 22.5H10.7246C10.617 22.4994 10.5129 22.461 10.4307 22.3916C10.3486 22.3221 10.2929 22.226 10.2744 22.1201L10.0576 20.8242C8.98673 20.5945 7.98532 20.1784 7.08789 19.6123L6.03418 20.3506C5.94637 20.4118 5.83907 20.4405 5.73242 20.4316C5.62562 20.4225 5.52459 20.376 5.44824 20.3008L3.67285 18.5234C3.59739 18.4467 3.55068 18.3456 3.54199 18.2383C3.53347 18.131 3.56279 18.0234 3.625 17.9355L4.33691 16.9395C3.7236 16.025 3.27154 14.9941 3.0166 13.8877L1.87695 13.6855C1.77189 13.6663 1.67614 13.6111 1.60742 13.5293C1.53879 13.4474 1.49972 13.3432 1.49902 13.2363V10.7256C1.49933 10.5028 1.66192 10.3121 1.88086 10.2754L2.93848 10.0986C3.15903 8.92335 3.60277 7.82696 4.22363 6.85449L3.64746 6.03223C3.58678 5.94423 3.55903 5.83696 3.56836 5.73047C3.5779 5.6242 3.6242 5.52415 3.69922 5.44824L5.47363 3.67383C5.6311 3.51683 5.8806 3.49536 6.06152 3.625L6.82812 4.17285C7.80904 3.50725 8.92563 3.02525 10.127 2.77734L10.2734 1.88379C10.2915 1.7772 10.3463 1.67939 10.4287 1.60938C10.5112 1.53953 10.6165 1.50039 10.7246 1.5H13.2354ZM12 4.70996C8.07951 4.71022 4.9016 7.88908 4.90137 11.8096C4.9015 14.638 6.55562 17.0787 8.94922 18.2197V12.7793C8.9493 12.5259 9.04013 12.3083 9.2207 12.1279C9.40125 11.948 9.61823 11.8578 9.87109 11.8574H14.1377C14.3909 11.8576 14.6085 11.9475 14.7891 12.1279C14.9695 12.3085 15.0598 12.5263 15.0596 12.7793V18.2158C17.4485 17.0729 19.0995 14.6344 19.0996 11.8096C19.0994 7.88908 15.9205 4.71022 12 4.70996ZM12.0049 14.0117C11.6209 14.0117 11.2933 14.1463 11.0244 14.415C10.7558 14.6838 10.6212 15.0107 10.6211 15.3945C10.6212 15.7783 10.7559 16.1053 11.0244 16.374C11.2933 16.6427 11.6209 16.7783 12.0049 16.7783C12.3886 16.7781 12.7157 16.6427 12.9844 16.374C13.2528 16.1053 13.3876 15.7783 13.3877 15.3945C13.3876 15.0107 13.2529 14.6838 12.9844 14.415C12.7156 14.1463 12.3887 14.0119 12.0049 14.0117Z" fill="white"/>
</svg>
