<svg width="24" height="24" viewBox="0 0 24 24" fill="none" xmlns="http://www.w3.org/2000/svg">
<path d="M12 1.5C6.2145 1.5 1.5 6.2145 1.5 12C1.5 17.7855 6.2145 22.5 12 22.5C17.7855 22.5 22.5 17.7855 22.5 12C22.5 6.2145 17.7855 1.5 12 1.5ZM12 3.6C15.8955 3.6 19.161 6.267 20.1165 9.8685L15.906 9.3435C13.3125 9.018 10.6875 9.018 8.094 9.3435L3.8835 9.8685C4.8285 6.267 8.1045 3.6 12 3.6ZM13.575 12C13.575 12.8715 12.8715 13.575 12 13.575C11.1285 13.575 10.425 12.8715 10.425 12C10.425 11.1285 11.1285 10.425 12 10.425C12.8715 10.425 13.575 11.1285 13.575 12ZM3.6 12L5.3535 12.294C8.0625 12.7455 10.1625 14.898 10.551 17.6175L10.9395 20.3265C6.813 19.8015 3.6 16.2735 3.6 12ZM13.0605 20.3265L13.449 17.6175C13.6372 16.293 14.2425 15.0629 15.1771 14.1057C16.1117 13.1485 17.3269 12.5139 18.6465 12.294L20.4 12C20.4 16.2735 17.1975 19.8015 13.0605 20.3265Z" fill="white"/>
</svg>
