<svg width="24" height="24" viewBox="0 0 24 24" fill="none" xmlns="http://www.w3.org/2000/svg">
<path d="M13.8 10.2V8.832C13.8 8.193 13.161 7.761 12.567 7.995L9.3 9.3V8.868C9.3 8.22 8.643 7.779 8.049 8.04L4.089 9.732C3.432 10.02 3 10.668 3 11.388V19.2C3 20.19 3.81 21 4.8 21H19.2C20.19 21 21 20.19 21 19.2V10.2H13.8ZM9.3 16.5C9.3 16.995 8.895 17.4 8.4 17.4C7.905 17.4 7.5 16.995 7.5 16.5V14.7C7.5 14.205 7.905 13.8 8.4 13.8C8.895 13.8 9.3 14.205 9.3 14.7V16.5ZM12.9 16.5C12.9 16.995 12.495 17.4 12 17.4C11.505 17.4 11.1 16.995 11.1 16.5V14.7C11.1 14.205 11.505 13.8 12 13.8C12.495 13.8 12.9 14.205 12.9 14.7V16.5ZM16.5 16.5C16.5 16.995 16.095 17.4 15.6 17.4C15.105 17.4 14.7 16.995 14.7 16.5V14.7C14.7 14.205 15.105 13.8 15.6 13.8C16.095 13.8 16.5 14.205 16.5 14.7V16.5ZM19.308 3H18.201C17.742 3 17.364 3.342 17.31 3.792L16.68 8.85H20.82L20.199 3.792C20.145 3.342 19.758 3 19.308 3Z" fill="white"/>
</svg>
