<svg width="24" height="24" viewBox="0 0 24 24" fill="none" xmlns="http://www.w3.org/2000/svg">
<path d="M14.6631 18.4932C14.8354 18.5061 14.9717 18.6486 14.9717 18.8242C14.9717 19.0601 14.848 19.2663 14.6631 19.3848V21H9.33496V19.3799C9.15447 19.2606 9.03516 19.0568 9.03516 18.8242C9.03517 18.6514 9.16652 18.5109 9.33496 18.4941V18.4912H14.6631V18.4932Z" fill="white"/>
<path fill-rule="evenodd" clip-rule="evenodd" d="M16.3828 3C16.797 3.00007 17.1328 3.33583 17.1328 3.75C17.1328 4.16417 16.797 4.49993 16.3828 4.5H15.0068L12.582 6.9248V7.70215H13.0205C13.4593 7.70215 13.8428 7.93441 14.0576 8.28223H17.2344C17.3534 8.09998 17.5581 7.97852 17.792 7.97852C17.9402 7.97868 18.0636 8.07605 18.1064 8.20996V13.6826C18.0639 13.817 17.9405 13.9149 17.792 13.915C17.5581 13.915 17.3534 13.7936 17.2344 13.6113H15.1631C14.8869 13.6113 14.6631 13.8352 14.6631 14.1113V16.6143C14.8482 16.7327 14.9717 16.9397 14.9717 17.1758C14.9717 17.3255 14.8723 17.4496 14.7363 17.4912H9.26855C9.13329 17.4493 9.03517 17.3251 9.03516 17.1758C9.03516 16.943 9.15422 16.7384 9.33496 16.6191V14.1113C9.33496 13.8352 9.1111 13.6113 8.83496 13.6113H6.77148C6.65251 13.7936 6.4478 13.915 6.21387 13.915C6.03995 13.9149 5.89883 13.7814 5.88379 13.6113H5.88086V8.28223H5.88379C5.89889 8.11223 6.03999 7.97868 6.21387 7.97852C6.44777 7.97852 6.6525 8.09996 6.77148 8.28223H9.95605C10.1709 7.93444 10.5543 7.70215 10.9932 7.70215H11.4316V6.9248L9.00684 4.5H7.63086C7.21665 4.5 6.88086 4.16421 6.88086 3.75C6.88086 3.33579 7.21665 3 7.63086 3H16.3828ZM11.4316 5.2959V4.64648C11.4317 4.5956 11.4407 4.54698 11.4531 4.5H10.6357L11.4316 5.2959ZM12.5605 4.5C12.573 4.54698 12.582 4.59561 12.582 4.64648V5.2959L13.3779 4.5H12.5605Z" fill="white"/>
<path d="M4.56543 7.97852C4.7138 7.97852 4.83785 8.07592 4.88086 8.20996V13.6826C4.83816 13.8171 4.71416 13.915 4.56543 13.915C4.33149 13.9149 4.12671 13.7937 4.00781 13.6113H2.99902V8.28223H4.00781C4.12672 8.09988 4.33153 7.97861 4.56543 7.97852Z" fill="white"/>
<path d="M19.4404 7.97852C19.6743 7.97863 19.8792 8.09988 19.998 8.28223H20.999V13.6113H19.998C19.8792 13.7937 19.6744 13.9149 19.4404 13.915C19.2664 13.915 19.1244 13.7815 19.1094 13.6113H19.1064V8.28223H19.1094C19.1245 8.11211 19.2664 7.97852 19.4404 7.97852Z" fill="white"/>
</svg>
