<svg width="21" height="22" viewBox="0 0 21 22" fill="none" xmlns="http://www.w3.org/2000/svg">
  <path d="M2.27371 21.6C1.64842 21.6 1.11345 21.3776 0.668574 20.9327C0.223698 20.4878 0.000852675 19.9524 0 19.3263V14.779C0 14.1537 0.222844 13.6186 0.668574 13.1737C1.1143 12.7289 1.64928 12.506 2.27371 12.5052H13.6421V9.09477C13.6421 8.77263 13.7513 8.50281 13.9696 8.28532C14.1878 8.06783 14.4576 7.95869 14.779 7.95794C15.1003 7.95718 15.3705 8.06632 15.5895 8.28532C15.8085 8.50432 15.9173 8.77414 15.9158 9.09477V12.5052H18.1895C18.8147 12.5052 19.3502 12.728 19.7958 13.1737C20.2415 13.6194 20.4639 14.1544 20.4632 14.779V19.3263C20.4632 19.9516 20.2407 20.487 19.7958 20.9327C19.351 21.3783 18.8155 21.6008 18.1895 21.6H2.27371ZM4.54737 18.1895C4.8695 18.1895 5.13968 18.0804 5.35796 17.8621C5.57625 17.6438 5.68501 17.374 5.68425 17.0526C5.68349 16.7312 5.57435 16.4614 5.35686 16.2431C5.13937 16.0248 4.86955 15.9157 4.54737 15.9157C4.22524 15.9157 3.95543 16.0248 3.73794 16.2431C3.52045 16.4614 3.41131 16.7312 3.41055 17.0526C3.40979 17.374 3.51894 17.6442 3.73794 17.8632C3.95694 18.0822 4.22675 18.1909 4.54737 18.1895ZM8.52635 18.1895C8.84848 18.1895 9.11866 18.0804 9.33695 17.8621C9.55523 17.6438 9.66399 17.374 9.66323 17.0526C9.66247 16.7312 9.55333 16.4614 9.33584 16.2431C9.11835 16.0248 8.84853 15.9157 8.52635 15.9157C8.20421 15.9157 7.9344 16.0248 7.71691 16.2431C7.49942 16.4614 7.39028 16.7312 7.38952 17.0526C7.38876 17.374 7.49791 17.6442 7.71691 17.8632C7.93591 18.0822 8.20573 18.1909 8.52635 18.1895ZM12.5053 18.1895C12.8275 18.1895 13.0976 18.0804 13.3159 17.8621C13.5342 17.6438 13.643 17.374 13.6422 17.0526C13.6414 16.7312 13.5323 16.4614 13.3148 16.2431C13.0973 16.0248 12.8275 15.9157 12.5053 15.9157C12.1832 15.9157 11.9134 16.0248 11.6959 16.2431C11.4784 16.4614 11.3692 16.7312 11.3685 17.0526C11.3677 17.374 11.4769 17.6442 11.6959 17.8632C11.9149 18.0822 12.1847 18.1909 12.5053 18.1895ZM14.779 6.25267C14.5705 6.25267 14.3811 6.27161 14.2105 6.3095C14.04 6.34739 13.8695 6.40425 13.699 6.47998C13.3958 6.61261 13.0881 6.66945 12.7758 6.65051C12.4636 6.63157 12.1934 6.50842 11.9653 6.28106C11.7371 6.05371 11.628 5.77894 11.6379 5.45685C11.6477 5.13471 11.7853 4.89785 12.0505 4.74631C12.4484 4.49999 12.8797 4.31052 13.3443 4.17789C13.8088 4.04525 14.2871 3.97894 14.779 3.97894C15.2905 3.97894 15.7737 4.04525 16.2284 4.17789C16.6832 4.31052 17.1095 4.49999 17.5074 4.74631C17.7726 4.89785 17.9102 5.13471 17.92 5.45685C17.9299 5.77894 17.8208 6.05371 17.5926 6.28106C17.3645 6.50842 17.0898 6.63157 16.7684 6.65051C16.4471 6.66945 16.1344 6.61261 15.8305 6.47998C15.6789 6.40425 15.5134 6.34739 15.3337 6.3095C15.1541 6.27161 14.9692 6.25267 14.779 6.25267ZM14.779 2.27398C14.04 2.27398 13.3344 2.38312 12.6622 2.60141C11.9899 2.8197 11.3692 3.13687 10.8 3.55293C10.5347 3.74239 10.2456 3.82764 9.93262 3.8087C9.61958 3.78976 9.35918 3.67608 9.15154 3.46767C8.92419 3.24031 8.8105 2.97504 8.8105 2.67187C8.8105 2.3687 8.93365 2.12239 9.17995 1.93292C9.95677 1.32656 10.819 0.852858 11.7663 0.511807C12.7137 0.170757 13.7179 0.000231266 14.779 0.000231266C15.84 0.000231266 16.8442 0.170757 17.7916 0.511807C18.7389 0.852858 19.6011 1.32656 20.3779 1.93292C20.6242 2.12239 20.7474 2.3687 20.7474 2.67187C20.7474 2.97504 20.6337 3.24031 20.4063 3.46767C20.1979 3.67608 19.9372 3.78976 19.6242 3.8087C19.3112 3.82764 19.0224 3.74239 18.7579 3.55293C18.1895 3.13611 17.5688 2.81894 16.8957 2.60141C16.2227 2.38388 15.5171 2.27474 14.779 2.27398Z" fill="#000000"/>
</svg>
