<svg width="24" height="24" viewBox="0 0 24 24" fill="none" xmlns="http://www.w3.org/2000/svg">
<path fill-rule="evenodd" clip-rule="evenodd" d="M14.9297 9.7627C16.2797 9.7627 17.4852 10.6628 17.8604 12.0127L18.3994 14.2637H18.751C19.2006 14.2638 19.5008 14.563 19.501 15.0127V15.7627C19.501 16.2126 19.2008 16.5135 18.751 16.5137V21.7637C18.7508 22.2135 18.4499 22.5137 18 22.5137H16.5C16.0503 22.5135 15.7502 22.2134 15.75 21.7637V21.0137H8.25V21.7637C8.24984 22.2134 7.9497 22.5135 7.5 22.5137H6C5.55008 22.5137 5.24918 22.2135 5.24902 21.7637V16.5137C4.79928 16.5134 4.49902 16.2126 4.49902 15.7627V15.0127C4.49923 14.5631 4.79944 14.2639 5.24902 14.2637H5.60059L6.14062 12.0127C6.31493 11.3686 6.69635 10.7991 7.22559 10.3926C7.75484 9.98619 8.40303 9.76488 9.07031 9.7627H14.9297ZM7.87402 17.2627C7.27452 17.2631 6.74945 17.7882 6.74902 18.3877C6.74902 18.9875 7.27428 19.5123 7.87402 19.5127C8.47407 19.5127 8.99902 18.9877 8.99902 18.3877C8.9986 17.788 8.47383 17.2627 7.87402 17.2627ZM16.126 17.2627C15.5262 17.2627 15.0014 17.788 15.001 18.3877C15.001 18.9877 15.5259 19.5127 16.126 19.5127C16.7258 19.5124 17.251 18.9875 17.251 18.3877C17.2506 17.7881 16.7255 17.263 16.126 17.2627ZM9.30078 11.2627C8.62583 11.2627 8.02024 11.7128 7.87012 12.3877L7.4082 14.3047C7.32172 14.6659 7.59621 15.0127 7.96777 15.0127H16.0332C16.4046 15.0125 16.6783 14.6658 16.5918 14.3047L16.1299 12.3877C15.9797 11.7128 15.3742 11.2627 14.6992 11.2627H9.30078Z" fill="white"/>
<path d="M8.64844 1.5C8.79912 1.50004 8.94412 1.55652 9.05078 1.65723C9.15727 1.75812 9.21768 1.89551 9.21777 2.03809C9.21766 2.18064 9.15725 2.31807 9.05078 2.41895C8.66314 2.78562 8.35534 3.22107 8.14551 3.7002C7.93581 4.17913 7.82823 4.69253 7.82812 5.21094C7.82812 5.72969 7.93564 6.24439 8.14551 6.72363C8.35536 7.20278 8.6631 7.63821 9.05078 8.00488C9.10666 8.05417 9.1525 8.11366 9.18359 8.17969C9.21456 8.24558 9.23007 8.31754 9.23145 8.38965C9.23271 8.46152 9.21878 8.53292 9.19043 8.59961C9.16185 8.66655 9.11934 8.72821 9.06543 8.7793C9.01148 8.83033 8.94669 8.87038 8.87598 8.89746C8.80531 8.92445 8.72952 8.9387 8.65332 8.9375C8.5769 8.93622 8.50048 8.92006 8.43066 8.89062C8.36133 8.86132 8.29893 8.81909 8.24707 8.7666C7.75384 8.29996 7.36171 7.74544 7.09473 7.13574C6.82774 6.5259 6.69043 5.87103 6.69043 5.21094C6.69054 4.55118 6.8279 3.89763 7.09473 3.28809C7.36171 2.67834 7.75381 2.1239 8.24707 1.65723C8.35366 1.55673 8.49796 1.50009 8.64844 1.5Z" fill="white"/>
<path d="M15.3574 1.5C15.5079 1.50013 15.6522 1.55669 15.7588 1.65723C16.2521 2.12391 16.6441 2.67832 16.9111 3.28809C17.1779 3.89762 17.3153 4.5512 17.3154 5.21094C17.3154 5.87103 17.1781 6.52591 16.9111 7.13574C16.6441 7.74547 16.252 8.29994 15.7588 8.7666C15.707 8.81909 15.6445 8.8613 15.5752 8.89062C15.5054 8.92006 15.429 8.93622 15.3525 8.9375C15.2763 8.93874 15.2006 8.92446 15.1299 8.89746C15.0592 8.8704 14.9944 8.83033 14.9404 8.7793C14.8865 8.7282 14.844 8.66657 14.8154 8.59961C14.7871 8.53289 14.7731 8.46156 14.7744 8.38965C14.7758 8.3175 14.7913 8.24561 14.8223 8.17969C14.8534 8.11363 14.8992 8.05418 14.9551 8.00488C15.3428 7.63821 15.6505 7.20278 15.8604 6.72363C16.0702 6.2444 16.1777 5.72968 16.1777 5.21094C16.1776 4.69254 16.07 4.17912 15.8604 3.7002C15.6505 3.22109 15.3427 2.78561 14.9551 2.41895C14.8486 2.31806 14.7882 2.18065 14.7881 2.03809C14.7882 1.8955 14.8486 1.75812 14.9551 1.65723C15.0618 1.55657 15.2068 1.50001 15.3574 1.5Z" fill="white"/>
<path d="M10.3262 3.08691C10.4767 3.08704 10.621 3.14357 10.7275 3.24414C10.834 3.34502 10.8944 3.48244 10.8945 3.625C10.8944 3.76752 10.834 3.90501 10.7275 4.00586C10.5602 4.16415 10.4275 4.35275 10.3369 4.55957C10.2465 4.76614 10.2003 4.98737 10.2002 5.21094C10.2002 5.43484 10.2464 5.65739 10.3369 5.86426C10.4275 6.07111 10.5602 6.25967 10.7275 6.41797C10.7834 6.46726 10.8292 6.52674 10.8604 6.59277C10.8914 6.65872 10.9078 6.73057 10.9092 6.80273C10.9105 6.87491 10.8967 6.94771 10.8682 7.01465C10.8396 7.08135 10.7959 7.14146 10.7422 7.19238C10.6882 7.24345 10.6235 7.28446 10.5527 7.31152C10.4821 7.33848 10.4063 7.35181 10.3301 7.35059C10.2537 7.3493 10.1772 7.33313 10.1074 7.30371C10.0381 7.27438 9.97566 7.23219 9.92383 7.17969C9.37238 6.6579 9.0625 5.94885 9.0625 5.21094C9.06272 4.47331 9.37258 3.76575 9.92383 3.24414C10.0305 3.14346 10.1755 3.08691 10.3262 3.08691Z" fill="white"/>
<path d="M13.6797 3.08691C13.8304 3.08694 13.9754 3.14338 14.082 3.24414C14.6333 3.76575 14.9431 4.47331 14.9434 5.21094C14.9434 5.94885 14.6335 6.6579 14.082 7.17969C14.03 7.23246 13.9662 7.27433 13.8965 7.30371C13.8269 7.33294 13.7519 7.34927 13.6758 7.35059C13.5997 7.35182 13.5237 7.33842 13.4531 7.31152C13.3823 7.28444 13.3167 7.24352 13.2627 7.19238C13.2091 7.14152 13.1662 7.08122 13.1377 7.01465C13.1091 6.94771 13.0954 6.87491 13.0967 6.80273C13.098 6.73055 13.1145 6.65873 13.1455 6.59277C13.1766 6.52677 13.2224 6.46724 13.2783 6.41797C13.4456 6.2597 13.5784 6.07105 13.6689 5.86426C13.7595 5.65741 13.8057 5.43481 13.8057 5.21094C13.8056 4.98741 13.7593 4.7661 13.6689 4.55957C13.5784 4.35282 13.4456 4.16412 13.2783 4.00586C13.1719 3.90501 13.1115 3.76752 13.1113 3.625C13.1114 3.48244 13.1718 3.34502 13.2783 3.24414C13.3849 3.14362 13.5292 3.08698 13.6797 3.08691Z" fill="white"/>
<path d="M12.0029 4.4209C12.2141 4.42091 12.417 4.50598 12.5664 4.65527C12.7156 4.80459 12.7997 5.00768 12.7998 5.21875C12.7997 5.42974 12.7155 5.63293 12.5664 5.78223C12.417 5.93141 12.2141 6.01561 12.0029 6.01562C11.7918 6.01562 11.5889 5.93143 11.4395 5.78223C11.2903 5.63293 11.2062 5.42977 11.2061 5.21875C11.2062 5.00766 11.2902 4.8046 11.4395 4.65527C11.5889 4.50596 11.7917 4.4209 12.0029 4.4209Z" fill="white"/>
</svg>
