<svg width="24" height="24" viewBox="0 0 24 24" fill="none" xmlns="http://www.w3.org/2000/svg">
<path d="M12 1.5C17.7992 1.50004 22.5 6.2008 22.5 12C22.5 17.7992 17.7992 22.5 12 22.5C11.0111 22.5 10.0553 22.3595 9.14813 22.1039C8.81483 21.3544 8.19226 19.6857 8.52264 18.2767C9.17536 18.3714 9.83348 18.4216 10.4927 18.4279C12.03 18.4279 13.1228 18.0867 13.9329 17.3551C14.6585 16.6996 15.0599 15.8175 15.4838 14.8852C16.1308 13.4604 16.8641 11.8456 18.9932 10.5991C19.053 10.564 19.104 10.5142 19.1406 10.4542C19.177 10.3943 19.1989 10.326 19.2034 10.2556C19.2078 10.1848 19.195 10.1136 19.1662 10.0492C19.1375 9.98483 19.0931 9.92917 19.038 9.88641V9.88385C17.5917 8.76056 15.3649 8.08942 13.0818 8.08942C10.259 8.08953 7.95891 9.10037 6.77179 10.8618C6.21417 11.6887 5.90506 12.6694 5.85406 13.7739C5.81309 14.668 5.94305 15.6484 6.23954 16.6985C6.26737 16.7971 6.40598 16.7991 6.44082 16.7028C7.58067 13.5515 10.2481 11.0228 13.4469 10.3838C13.6876 10.3357 13.7651 10.6874 13.5417 10.789C12.2413 11.3802 10.3441 12.4896 8.94177 14.3533C8.40579 15.0605 7.97619 15.8461 7.66644 16.6835C7.1703 17.8951 6.66971 19.7938 7.00891 21.2413C3.72781 19.4656 1.50002 15.9928 1.5 12C1.5 6.20078 6.20078 1.5 12 1.5Z" fill="white"/>
</svg>
