<svg width="24" height="24" viewBox="0 0 24 24" fill="none" xmlns="http://www.w3.org/2000/svg">
<path fill-rule="evenodd" clip-rule="evenodd" d="M13.2354 1.5C13.4581 1.50023 13.6473 1.66053 13.6855 1.87793L13.8418 2.77051C15.0555 3.0165 16.1831 3.50208 17.1729 4.17383L17.9346 3.62793C18.0226 3.56511 18.1305 3.53438 18.2383 3.54297C18.3461 3.55171 18.4485 3.59872 18.5254 3.6748L20.2998 5.44922C20.4569 5.60658 20.4774 5.85417 20.3506 6.03516L19.7754 6.85352C20.3974 7.82733 20.8411 8.92532 21.0615 10.1025L22.1191 10.2754C22.2251 10.2937 22.322 10.3497 22.3916 10.4316C22.461 10.5137 22.5002 10.6181 22.501 10.7256V13.2363C22.5002 13.3433 22.4613 13.4474 22.3926 13.5293C22.3238 13.611 22.2281 13.6664 22.123 13.6855L20.9844 13.8857C20.7292 14.9941 20.2759 16.0266 19.6611 16.9424L20.376 17.9346C20.4387 18.0225 20.4685 18.1306 20.46 18.2383C20.4513 18.3461 20.4041 18.4475 20.3281 18.5244L18.5527 20.2988C18.477 20.374 18.3768 20.4209 18.2705 20.4307C18.164 20.4402 18.0569 20.4121 17.9688 20.3516L16.9141 19.6113C16.0082 20.183 14.9964 20.6016 13.9141 20.8301L13.6855 22.124C13.6662 22.2291 13.6102 22.3249 13.5283 22.3936C13.4463 22.4621 13.3422 22.4995 13.2354 22.5H10.7246C10.617 22.4994 10.5129 22.461 10.4307 22.3916C10.3486 22.3221 10.2929 22.226 10.2744 22.1201L10.0576 20.8242C8.98673 20.5945 7.98532 20.1784 7.08789 19.6123L6.03418 20.3506C5.94637 20.4118 5.83907 20.4405 5.73242 20.4316C5.62562 20.4225 5.52459 20.376 5.44824 20.3008L3.67285 18.5234C3.59739 18.4467 3.55068 18.3456 3.54199 18.2383C3.53347 18.131 3.56279 18.0234 3.625 17.9355L4.33691 16.9395C3.7236 16.025 3.27154 14.9941 3.0166 13.8877L1.87695 13.6855C1.77189 13.6663 1.67614 13.6111 1.60742 13.5293C1.53879 13.4474 1.49972 13.3432 1.49902 13.2363V10.7256C1.49933 10.5028 1.66192 10.3121 1.88086 10.2754L2.93848 10.0986C3.15903 8.92335 3.60277 7.82696 4.22363 6.85449L3.64746 6.03223C3.58678 5.94423 3.55903 5.83696 3.56836 5.73047C3.5779 5.6242 3.6242 5.52415 3.69922 5.44824L5.47363 3.67383C5.6311 3.51683 5.8806 3.49536 6.06152 3.625L6.82812 4.17285C7.80904 3.50725 8.92563 3.02525 10.127 2.77734L10.2734 1.88379C10.2915 1.7772 10.3463 1.67939 10.4287 1.60938C10.5112 1.53953 10.6165 1.50039 10.7246 1.5H13.2354ZM10.7832 18.208H13.2158V16.1807H10.7832V18.208ZM12 4.70996C8.07951 4.71022 4.9016 7.88908 4.90137 11.8096C4.90148 14.2213 6.10507 16.35 7.94336 17.6328V8.47461H7.53809C7.43073 8.47459 7.32698 8.43127 7.25098 8.35547C7.17528 8.2796 7.13299 8.17651 7.13281 8.06934C7.13281 7.96188 7.17506 7.85826 7.25098 7.78223C7.32701 7.70625 7.4306 7.66311 7.53809 7.66309H16.4609C16.5683 7.66324 16.6721 7.7063 16.748 7.78223C16.8237 7.85823 16.8662 7.96206 16.8662 8.06934C16.866 8.17646 16.8237 8.27961 16.748 8.35547C16.6721 8.4314 16.5683 8.47446 16.4609 8.47461H16.0557V17.6338C17.8946 16.351 19.0995 14.2217 19.0996 11.8096C19.0994 7.88908 15.9205 4.71022 12 4.70996ZM9.97168 13.7471C9.86416 13.7471 9.76062 13.7902 9.68457 13.8662C9.60878 13.9422 9.56647 14.045 9.56641 14.1523C9.56648 14.2598 9.60864 14.3635 9.68457 14.4395C9.7606 14.5153 9.86429 14.5586 9.97168 14.5586H11.1885C11.2958 14.5584 11.3997 14.5154 11.4756 14.4395C11.5514 14.3635 11.5937 14.2597 11.5938 14.1523C11.5937 14.0452 11.5511 13.9421 11.4756 13.8662C11.3997 13.7903 11.2958 13.7472 11.1885 13.7471H9.97168ZM12.8105 13.7471C12.7031 13.7471 12.5995 13.7902 12.5234 13.8662C12.4477 13.9422 12.4053 14.0451 12.4053 14.1523C12.4053 14.2597 12.4476 14.3635 12.5234 14.4395C12.5994 14.5152 12.7032 14.5586 12.8105 14.5586H14.0273C14.1347 14.5585 14.2385 14.5154 14.3145 14.4395C14.3903 14.3635 14.4325 14.2597 14.4326 14.1523C14.4325 14.0452 14.39 13.9421 14.3145 13.8662C14.2385 13.7903 14.1347 13.7472 14.0273 13.7471H12.8105ZM9.97168 11.7188C9.86416 11.7188 9.76062 11.7619 9.68457 11.8379C9.60858 11.9139 9.56641 12.0175 9.56641 12.125C9.56655 12.2322 9.60884 12.3352 9.68457 12.4111C9.7606 12.487 9.86429 12.5303 9.97168 12.5303H11.1885C11.2958 12.5301 11.3997 12.4871 11.4756 12.4111C11.5512 12.3353 11.5936 12.2321 11.5938 12.125C11.5938 12.0177 11.5513 11.9139 11.4756 11.8379C11.3997 11.762 11.2958 11.7189 11.1885 11.7188H9.97168ZM12.8105 11.7188C12.7031 11.7188 12.5995 11.7619 12.5234 11.8379C12.4475 11.9139 12.4053 12.0175 12.4053 12.125C12.4054 12.2322 12.4478 12.3352 12.5234 12.4111C12.5994 12.4869 12.7032 12.5302 12.8105 12.5303H14.0273C14.1347 12.5301 14.2385 12.4871 14.3145 12.4111C14.3901 12.3352 14.4325 12.2322 14.4326 12.125C14.4326 12.0177 14.3902 11.9139 14.3145 11.8379C14.2385 11.7619 14.1347 11.7189 14.0273 11.7188H12.8105ZM9.97168 9.69141C9.86421 9.69141 9.76061 9.73364 9.68457 9.80957C9.60854 9.8856 9.56645 9.98917 9.56641 10.0967C9.56648 10.2041 9.6086 10.3078 9.68457 10.3838C9.7606 10.4596 9.86429 10.502 9.97168 10.502H11.1885C11.2958 10.5018 11.3997 10.4597 11.4756 10.3838C11.5514 10.3078 11.5937 10.204 11.5938 10.0967C11.5937 9.98935 11.5514 9.88556 11.4756 9.80957C11.3997 9.73366 11.2958 9.69157 11.1885 9.69141H9.97168ZM12.8105 9.69141C12.7031 9.69144 12.5995 9.73361 12.5234 9.80957C12.4474 9.8856 12.4053 9.98917 12.4053 10.0967C12.4053 10.2041 12.4475 10.3078 12.5234 10.3838C12.5994 10.4596 12.7032 10.5019 12.8105 10.502H14.0273C14.1347 10.5018 14.2385 10.4597 14.3145 10.3838C14.3904 10.3078 14.4325 10.2041 14.4326 10.0967C14.4326 9.98935 14.3902 9.88556 14.3145 9.80957C14.2385 9.73369 14.1347 9.69153 14.0273 9.69141H12.8105Z" fill="white"/>
</svg>
