<svg width="24" height="24" viewBox="0 0 24 24" fill="none" xmlns="http://www.w3.org/2000/svg">
<path d="M12.3633 6.56934C12.4732 6.40498 12.7295 6.48295 12.7295 6.68066V10.1699C12.7297 10.2802 12.8194 10.3691 12.9297 10.3691H15.9902C16.1499 10.3693 16.245 10.5479 16.1562 10.6807L11.6426 17.4307C11.5327 17.595 11.2764 17.517 11.2764 17.3193V13.8301C11.2762 13.7198 11.1865 13.6309 11.0762 13.6309H8.01562C7.85596 13.6307 7.76091 13.4521 7.84961 13.3193L12.3633 6.56934Z" fill="white"/>
<path fill-rule="evenodd" clip-rule="evenodd" d="M13.2354 1.5C13.4581 1.50023 13.6473 1.66053 13.6855 1.87793L13.8418 2.77051C15.0555 3.0165 16.1831 3.50208 17.1729 4.17383L17.9346 3.62793C18.0226 3.56511 18.1305 3.53438 18.2383 3.54297C18.3461 3.55171 18.4485 3.59872 18.5254 3.6748L20.2998 5.44922C20.4569 5.60658 20.4774 5.85417 20.3506 6.03516L19.7754 6.85352C20.3974 7.82733 20.8411 8.92532 21.0615 10.1025L22.1191 10.2754C22.2251 10.2937 22.322 10.3497 22.3916 10.4316C22.461 10.5137 22.5002 10.6181 22.501 10.7256V13.2363C22.5002 13.3433 22.4613 13.4474 22.3926 13.5293C22.3238 13.611 22.2281 13.6664 22.123 13.6855L20.9844 13.8857C20.7292 14.9941 20.2759 16.0266 19.6611 16.9424L20.376 17.9346C20.4387 18.0225 20.4685 18.1306 20.46 18.2383C20.4513 18.3461 20.4041 18.4475 20.3281 18.5244L18.5527 20.2988C18.477 20.374 18.3768 20.4209 18.2705 20.4307C18.164 20.4402 18.0569 20.4121 17.9688 20.3516L16.9141 19.6113C16.0082 20.183 14.9964 20.6016 13.9141 20.8301L13.6855 22.124C13.6662 22.2291 13.6102 22.3249 13.5283 22.3936C13.4463 22.4621 13.3422 22.4995 13.2354 22.5H10.7246C10.617 22.4994 10.5129 22.461 10.4307 22.3916C10.3486 22.3221 10.2929 22.226 10.2744 22.1201L10.0576 20.8242C8.98673 20.5945 7.98532 20.1784 7.08789 19.6123L6.03418 20.3506C5.94637 20.4118 5.83907 20.4405 5.73242 20.4316C5.62562 20.4225 5.52459 20.376 5.44824 20.3008L3.67285 18.5234C3.59739 18.4467 3.55068 18.3456 3.54199 18.2383C3.53347 18.131 3.56279 18.0234 3.625 17.9355L4.33691 16.9395C3.7236 16.025 3.27154 14.9941 3.0166 13.8877L1.87695 13.6855C1.77189 13.6663 1.67614 13.6111 1.60742 13.5293C1.53879 13.4474 1.49972 13.3432 1.49902 13.2363V10.7256C1.49933 10.5028 1.66192 10.3121 1.88086 10.2754L2.93848 10.0986C3.15903 8.92335 3.60277 7.82696 4.22363 6.85449L3.64746 6.03223C3.58678 5.94423 3.55903 5.83696 3.56836 5.73047C3.5779 5.6242 3.6242 5.52415 3.69922 5.44824L5.47363 3.67383C5.6311 3.51683 5.8806 3.49536 6.06152 3.625L6.82812 4.17285C7.80904 3.50725 8.92563 3.02525 10.127 2.77734L10.2734 1.88379C10.2915 1.7772 10.3463 1.67939 10.4287 1.60938C10.5112 1.53953 10.6165 1.50039 10.7246 1.5H13.2354ZM12 4.70996C8.07951 4.71022 4.9016 7.88908 4.90137 11.8096C4.90155 15.7301 8.07948 18.9079 12 18.9082C15.9205 18.9079 19.0994 15.7301 19.0996 11.8096C19.0994 7.88908 15.9205 4.71022 12 4.70996Z" fill="white"/>
</svg>
