<svg width="16" height="16" viewBox="0 0 16 16" fill="none" xmlns="http://www.w3.org/2000/svg">
<mask id="mask0_2498_21899" style="mask-type:alpha" maskUnits="userSpaceOnUse" x="0" y="0" width="16" height="16">
<path d="M8.00033 2.16797C7.72418 2.16797 7.50033 2.39183 7.50033 2.66797V9.46106L6.35391 8.31445C6.15866 8.11917 5.84208 8.11914 5.6468 8.31439C5.45152 8.50963 5.4515 8.82621 5.64674 9.02149L7.6464 11.0215C7.69363 11.0687 7.74935 11.1055 7.80996 11.1305C7.85521 11.1491 7.90378 11.1613 7.95455 11.1659C7.96958 11.1673 7.98473 11.168 7.99994 11.168C8.14361 11.168 8.27351 11.1074 8.36471 11.0103L10.3538 9.02155C10.5491 8.82631 10.5492 8.50972 10.3539 8.31445C10.1587 8.11917 9.84208 8.11914 9.6468 8.31439L8.50033 9.46067V2.66797C8.50033 2.39183 8.27647 2.16797 8.00033 2.16797Z" fill="#2A2A37"/>
<path d="M2.66699 10.168C2.94313 10.168 3.16699 10.3918 3.16699 10.668V12.668C3.16699 12.76 3.24161 12.8346 3.33366 12.8346H12.667C12.759 12.8346 12.8337 12.76 12.8337 12.668V10.668C12.8337 10.3918 13.0575 10.168 13.3337 10.168C13.6098 10.168 13.8337 10.3918 13.8337 10.668V12.668C13.8337 13.3123 13.3113 13.8346 12.667 13.8346H3.33366C2.68933 13.8346 2.16699 13.3123 2.16699 12.668V10.668C2.16699 10.3918 2.39085 10.168 2.66699 10.168Z" fill="#2A2A37"/>
</mask>
<g mask="url(#mask0_2498_21899)">
<rect width="16" height="16" fill="#2A2A37"/>
</g>
</svg>
