<svg width="16" height="16" viewBox="0 0 16 16" fill="none" xmlns="http://www.w3.org/2000/svg">
  <mask id="mask0_896_77237" style="mask-type: alpha" maskUnits="userSpaceOnUse" x="0" y="0" width="16" height="16">
    <path
      fill-rule="evenodd"
      clip-rule="evenodd"
      d="M2.1665 3.9999C2.1665 3.35557 2.68884 2.83323 3.33317 2.83323H7.17188C7.44802 2.83323 7.67188 3.05709 7.67188 3.33323C7.67188 3.60937 7.44802 3.83323 7.17188 3.83323H3.33317C3.24112 3.83323 3.1665 3.90785 3.1665 3.9999V12.6666C3.1665 12.7586 3.24112 12.8332 3.33317 12.8332H11.9998C12.0919 12.8332 12.1665 12.7586 12.1665 12.6666V8.83861C12.1665 8.56247 12.3904 8.33861 12.6665 8.33861C12.9426 8.33861 13.1665 8.56247 13.1665 8.83861V12.6666C13.1665 13.3109 12.6442 13.8332 11.9998 13.8332H3.33317C2.68884 13.8332 2.1665 13.3109 2.1665 12.6666V3.9999Z"
      fill="#2A2A37"
    />
    <path
      fill-rule="evenodd"
      clip-rule="evenodd"
      d="M11.7844 3.15819C11.7193 3.0931 11.6137 3.0931 11.5487 3.15819L6.47124 8.2356L6.25576 9.74398L7.76413 9.52849L12.8415 4.45108C12.9066 4.386 12.9066 4.28047 12.8415 4.21538L11.7844 3.15819ZM10.8415 2.45108C11.2972 1.99547 12.0359 1.99547 12.4915 2.45108L13.5487 3.50827C14.0043 3.96389 14.0043 4.70258 13.5487 5.15819L8.35339 10.3535C8.27689 10.43 8.17765 10.4796 8.07055 10.4949L5.73721 10.8282C5.58142 10.8505 5.42423 10.7981 5.31295 10.6868C5.20167 10.5755 5.14927 10.4183 5.17153 10.2625L5.50486 7.92919C5.52016 7.82209 5.56979 7.72284 5.64628 7.64635L10.8415 2.45108Z"
      fill="#2A2A37"
    />
  </mask>
  <g mask="url(#mask0_896_77237)">
    <rect width="16" height="16" fill="white" />
  </g>
</svg>
