<svg width="16" height="16" viewBox="0 0 16 16" fill="none" xmlns="http://www.w3.org/2000/svg">
<g clip-path="url(#clip0_1792_42638)">
<path d="M10.6667 2.66797H6.00007C5.68002 2.6678 5.36461 2.74444 5.08032 2.89146C4.79603 3.03848 4.55118 3.25157 4.36633 3.51284C4.18148 3.77411 4.06204 4.07593 4.01802 4.39294C3.97401 4.70995 4.00672 5.03289 4.11341 5.33464" stroke="#484858" stroke-width="1.66667" stroke-linecap="round" stroke-linejoin="round"/>
<path d="M9.33333 8C10.0406 8 10.7189 8.28095 11.219 8.78105C11.719 9.28115 12 9.95942 12 10.6667C12 11.3739 11.719 12.0522 11.219 12.5523C10.7189 13.0524 10.0406 13.3333 9.33333 13.3333H4" stroke="#484858" stroke-width="1.66667" stroke-linecap="round" stroke-linejoin="round"/>
<path d="M2.66699 8H13.3337" stroke="#484858" stroke-width="1.66667" stroke-linecap="round" stroke-linejoin="round"/>
</g>
<defs>
<clipPath id="clip0_1792_42638">
<rect width="16" height="16" fill="white"/>
</clipPath>
</defs>
</svg>
