<svg width="16" height="16" viewBox="0 0 16 16" fill="none" xmlns="http://www.w3.org/2000/svg">
<path d="M5.99967 11.3346H4.66634C3.78229 11.3346 2.93444 10.9834 2.30932 10.3583C1.6842 9.7332 1.33301 8.88536 1.33301 8.0013C1.33301 7.11725 1.6842 6.2694 2.30932 5.64428C2.93444 5.01916 3.78229 4.66797 4.66634 4.66797H5.99967" stroke="#484858" stroke-width="1.66667" stroke-linecap="round" stroke-linejoin="round"/>
<path d="M10 4.66797H11.3333C12.2174 4.66797 13.0652 5.01916 13.6904 5.64428C14.3155 6.2694 14.6667 7.11725 14.6667 8.0013C14.6667 8.88536 14.3155 9.7332 13.6904 10.3583C13.0652 10.9834 12.2174 11.3346 11.3333 11.3346H10" stroke="#484858" stroke-width="1.66667" stroke-linecap="round" stroke-linejoin="round"/>
<path d="M5.33301 8H10.6663" stroke="#484858" stroke-width="1.66667" stroke-linecap="round" stroke-linejoin="round"/>
</svg>
