<svg width="16" height="16" viewBox="0 0 16 16" fill="none" xmlns="http://www.w3.org/2000/svg">
<g clip-path="url(#clip0_1792_42622)">
<path d="M9.33333 8.0013C10.0406 8.0013 10.7189 7.72035 11.219 7.22025C11.719 6.72016 12 6.04188 12 5.33464C12 4.62739 11.719 3.94911 11.219 3.44902C10.7189 2.94892 10.0406 2.66797 9.33333 2.66797H4V8.0013" stroke="#484858" stroke-width="1.66667" stroke-linecap="round" stroke-linejoin="round"/>
<path d="M10 13.3333C10.7072 13.3333 11.3855 13.0524 11.8856 12.5523C12.3857 12.0522 12.6667 11.3739 12.6667 10.6667C12.6667 9.95942 12.3857 9.28115 11.8856 8.78105C11.3855 8.28095 10.7072 8 10 8H4V13.3333H10Z" stroke="#484858" stroke-width="1.66667" stroke-linecap="round" stroke-linejoin="round"/>
</g>
<defs>
<clipPath id="clip0_1792_42622">
<rect width="16" height="16" fill="white"/>
</clipPath>
</defs>
</svg>
