<svg width="16" height="16" viewBox="0 0 16 16" fill="none" xmlns="http://www.w3.org/2000/svg">
<path d="M4 3C4 2.44772 4.44772 2 5 2H9V5H4V3Z" fill="#21A366"/>
<rect x="4" y="5" width="5" height="3" fill="#107C41"/>
<rect x="4" y="8" width="5" height="3" fill="#185C37"/>
<path d="M4 11H9V14H5C4.44772 14 4 13.5523 4 13V11Z" fill="#185C37"/>
<path d="M9 2H13C13.5523 2 14 2.44772 14 3V5H9V2Z" fill="#33C481"/>
<rect x="9" y="5" width="5" height="3" fill="#21A366"/>
<rect x="9" y="8" width="5" height="3" fill="#107C41"/>
<path d="M1 5.5C1 4.94772 1.44772 4.5 2 4.5H6.5C7.05228 4.5 7.5 4.94772 7.5 5.5V10.5C7.5 11.0523 7.05228 11.5 6.5 11.5H2C1.44772 11.5 1 11.0523 1 10.5V5.5Z" fill="#0B2A1A"/>
<path d="M9 11H14V13C14 13.5523 13.5523 14 13 14H9V11Z" fill="#185C37"/>
<rect y="4" width="7" height="7" rx="1" fill="#0F783E"/>
<path d="M5.5 5.5H4.5L1.5 9.5H2.5L5.5 5.5Z" fill="white"/>
<path d="M1.5 5.5H2.5L5.5 9.5H4.5L1.5 5.5Z" fill="white"/>
</svg>
