<svg width="16" height="16" viewBox="0 0 16 16" fill="none" xmlns="http://www.w3.org/2000/svg">
<g clip-path="url(#clip0_2563_20908)">
<path d="M2 12.1667V3.83333C2 2.82081 2.82081 2 3.83333 2H7.33333L7.38411 2.0026C7.63633 2.02813 7.83333 2.24106 7.83333 2.5C7.83333 2.75894 7.63633 2.97187 7.38411 2.9974L7.33333 3H3.83333C3.3731 3 3 3.3731 3 3.83333V12.1667C3 12.6269 3.3731 13 3.83333 13H12.1667C12.6268 12.9998 13 12.6268 13 12.1667V8.66667C13 8.39052 13.2239 8.16667 13.5 8.16667C13.776 8.16684 14 8.39063 14 8.66667V12.1667C14 13.1791 13.179 13.9998 12.1667 14H3.83333C2.82081 14 2 13.1792 2 12.1667Z" fill="#2A2A37"/>
<path d="M13.9993 6.05859C13.9993 6.33474 13.7755 6.55859 13.4993 6.55859C13.2233 6.55848 12.9993 6.33467 12.9993 6.05859V3.70703L6.41211 10.2949C6.21688 10.49 5.90031 10.49 5.70508 10.2949C5.50985 10.0997 5.50993 9.78316 5.70508 9.58789L12.2923 3H9.94076C9.66465 2.99996 9.44076 2.77612 9.44076 2.5C9.44076 2.22388 9.66465 2.00004 9.94076 2H13.9993V6.05859Z" fill="#2A2A37"/>
</g>
<defs>
<clipPath id="clip0_2563_20908">
<rect width="16" height="16" fill="white"/>
</clipPath>
</defs>
</svg>
