<svg width="24" height="24" viewBox="0 0 24 24" fill="none" xmlns="http://www.w3.org/2000/svg">
<mask id="mask0_2151_12680" style="mask-type:alpha" maskUnits="userSpaceOnUse" x="0" y="0" width="24" height="24">
<path fill-rule="evenodd" clip-rule="evenodd" d="M2.8308 12C2.9193 12.1752 3.04942 12.4192 3.22259 12.7101C3.59325 13.3328 4.15645 14.1624 4.9246 14.9897C6.46133 16.6446 8.77611 18.25 12 18.25C13.9327 18.25 15.5306 17.6749 16.8308 16.8637C17.1822 16.6444 17.6449 16.7516 17.8641 17.103C18.0834 17.4544 17.9762 17.9171 17.6248 18.1363C16.1178 19.0765 14.2482 19.75 12 19.75C8.22389 19.75 5.53867 17.8554 3.8254 16.0103C2.96855 15.0876 2.34425 14.1672 1.93366 13.4774C1.72794 13.1318 1.57469 12.8421 1.47176 12.6362C1.42026 12.5332 1.38127 12.451 1.35453 12.3931C1.34115 12.3642 1.33083 12.3412 1.32353 12.3248L1.31483 12.3051L1.31218 12.299L1.31127 12.2969C1.31127 12.2969 1.31064 12.2954 2 12L1.31064 12.2954C1.22979 12.1068 1.22979 11.8932 1.31064 11.7046L2 12C1.31064 11.7046 1.31064 11.7046 1.31064 11.7046L1.31157 11.7024L1.31301 11.6991L1.31747 11.6889L1.33269 11.6547C1.34564 11.626 1.36424 11.5855 1.38856 11.5343C1.43719 11.4319 1.50881 11.2867 1.60407 11.1074C1.79443 10.7491 2.08027 10.2528 2.46726 9.68962C3.23833 8.56751 4.42704 7.15643 6.08392 6.05162C6.42854 5.82183 6.8942 5.91491 7.124 6.25954C7.3538 6.60416 7.26071 7.06982 6.91608 7.29962C5.46733 8.26565 4.40605 9.51676 3.70352 10.5391C3.35371 11.0482 3.09686 11.4947 2.92872 11.8112C2.89176 11.8807 2.85914 11.9439 2.8308 12ZM19.1147 16.0496C19.4182 16.3314 19.8927 16.3139 20.1746 16.0103C21.0315 15.0876 21.6558 14.1672 22.0663 13.4774C22.2721 13.1318 22.4253 12.8421 22.5282 12.6362C22.5797 12.5332 22.6187 12.451 22.6455 12.3931C22.6588 12.3642 22.6692 12.3412 22.6765 12.3248L22.6852 12.3051L22.6878 12.299L22.6887 12.2969L22.6892 12.2957C22.6892 12.2957 22.6894 12.2954 22 12C22.6894 11.7046 22.6891 11.7039 22.6891 11.7039L22.6878 11.701L22.6852 11.6949L22.6765 11.6752C22.6692 11.6588 22.6588 11.6358 22.6455 11.6069C22.6187 11.549 22.5797 11.4668 22.5282 11.3638C22.4253 11.1579 22.2721 10.8682 22.0663 10.5226C21.6558 9.83284 21.0315 8.91243 20.1746 7.98966C18.4613 6.1446 15.7761 4.25 12 4.25C11.0365 4.25 10.1401 4.37378 9.31024 4.59081C8.90951 4.69561 8.6696 5.10543 8.7744 5.50616C8.8792 5.9069 9.28902 6.1468 9.68976 6.042C10.3976 5.8569 11.1664 5.75 12 5.75C15.2239 5.75 17.5387 7.3554 19.0754 9.01034C19.8435 9.83757 20.4067 10.6672 20.7774 11.2899C20.9506 11.5808 21.0807 11.8248 21.1692 12C21.0807 12.1752 20.9506 12.4192 20.7774 12.7101C20.4067 13.3328 19.8435 14.1624 19.0754 14.9897C18.7936 15.2932 18.8111 15.7677 19.1147 16.0496ZM22 12L22.6891 11.7039C22.7699 11.8926 22.7701 12.1071 22.6892 12.2957L22 12Z" fill="#2A2A37"/>
<path fill-rule="evenodd" clip-rule="evenodd" d="M3.46967 3.46967C3.76256 3.17678 4.23744 3.17678 4.53033 3.46967L20.5303 19.4697C20.8232 19.7626 20.8232 20.2374 20.5303 20.5303C20.2374 20.8232 19.7626 20.8232 19.4697 20.5303L3.46967 4.53033C3.17678 4.23744 3.17678 3.76256 3.46967 3.46967Z" fill="#2A2A37"/>
<path fill-rule="evenodd" clip-rule="evenodd" d="M8.5003 12C8.5003 11.0717 8.86905 10.1815 9.52543 9.52513L10.5861 10.5858C10.211 10.9609 10.0003 11.4696 10.0003 12C10.0003 12.5304 10.211 13.0391 10.5861 13.4142C10.9612 13.7893 11.4699 14 12.0003 14C12.5307 14 13.0394 13.7893 13.4145 13.4142L14.4752 14.4749C13.8188 15.1313 12.9286 15.5 12.0003 15.5C11.072 15.5 10.1818 15.1313 9.52543 14.4749C8.86905 13.8185 8.5003 12.9283 8.5003 12Z" fill="#2A2A37"/>
</mask>
<g mask="url(#mask0_2151_12680)">
<rect y="-0.5" width="24" height="24" fill="#2A2A37"/>
</g>
</svg>
