<svg width="24" height="24" viewBox="0 0 24 24" fill="none" xmlns="http://www.w3.org/2000/svg">
<mask id="mask0_2151_12618" style="mask-type:alpha" maskUnits="userSpaceOnUse" x="0" y="0" width="24" height="24">
<path fill-rule="evenodd" clip-rule="evenodd" d="M11.9999 15.5C13.9329 15.5 15.4999 13.933 15.4999 12C15.4999 10.067 13.9329 8.5 11.9999 8.5C10.0669 8.5 8.49986 10.067 8.49986 12C8.49986 13.933 10.0669 15.5 11.9999 15.5ZM13.9999 12C13.9999 13.1046 13.1044 14 11.9999 14C10.8953 14 9.99986 13.1046 9.99986 12C9.99986 10.8954 10.8953 10 11.9999 10C13.1044 10 13.9999 10.8954 13.9999 12Z" fill="#2A2A37"/>
<path fill-rule="evenodd" clip-rule="evenodd" d="M22.6889 11.7039C22.6891 11.7042 22.6892 11.7046 21.9999 12C22.6892 12.2954 22.6891 12.2958 22.6889 12.2961L22.6877 12.299L22.685 12.3051L22.6763 12.3248C22.669 12.3412 22.6587 12.3642 22.6453 12.3931C22.6186 12.451 22.5796 12.5332 22.5281 12.6362C22.4252 12.8421 22.2719 13.1318 22.0662 13.4774C21.6556 14.1672 21.0313 15.0876 20.1745 16.0103C18.4612 17.8554 15.776 19.75 11.9999 19.75C8.22375 19.75 5.53853 17.8554 3.82527 16.0103C2.96841 15.0876 2.34411 14.1672 1.93352 13.4774C1.7278 13.1318 1.57455 12.8421 1.47162 12.6362C1.42012 12.5332 1.38113 12.451 1.35439 12.3931C1.34101 12.3642 1.33069 12.3412 1.32339 12.3248L1.31469 12.3051L1.31204 12.299L1.31113 12.2969C1.31098 12.2966 1.3105 12.2954 1.99986 12C1.3105 11.7046 1.31064 11.7042 1.31078 11.7039L1.31204 11.701L1.31469 11.6949L1.32339 11.6752C1.33069 11.6588 1.34101 11.6358 1.35439 11.6069C1.38113 11.549 1.42012 11.4668 1.47162 11.3638C1.57455 11.1579 1.7278 10.8682 1.93352 10.5226C2.34411 9.83284 2.96841 8.91243 3.82527 7.98966C5.53853 6.1446 8.22375 4.25 11.9999 4.25C15.776 4.25 18.4612 6.1446 20.1745 7.98966C21.0313 8.91243 21.6556 9.83284 22.0662 10.5226C22.2719 10.8682 22.4252 11.1579 22.5281 11.3638C22.5796 11.4668 22.6186 11.549 22.6453 11.6069C22.6587 11.6358 22.669 11.6588 22.6763 11.6752L22.685 11.6949L22.6877 11.701L22.6889 11.7039ZM3.22246 11.2899C3.04928 11.5808 2.91916 11.8248 2.83067 12C2.91916 12.1752 3.04928 12.4192 3.22246 12.7101C3.59311 13.3328 4.15631 14.1624 4.92446 14.9897C6.46119 16.6446 8.77597 18.25 11.9999 18.25C15.2238 18.25 17.5385 16.6446 19.0753 14.9897C19.8434 14.1624 20.4066 13.3328 20.7773 12.7101C20.9504 12.4192 21.0806 12.1752 21.1691 12C21.0806 11.8248 20.9504 11.5808 20.7773 11.2899C20.4066 10.6672 19.8434 9.83757 19.0753 9.01034C17.5385 7.3554 15.2238 5.75 11.9999 5.75C8.77597 5.75 6.46119 7.3554 4.92446 9.01034C4.15631 9.83757 3.59311 10.6672 3.22246 11.2899Z" fill="#2A2A37"/>
<path d="M1.99986 12L1.3105 12.2954C1.22965 12.1068 1.22993 11.8926 1.31078 11.7039L1.99986 12Z" fill="#2A2A37"/>
<path d="M21.9999 12L22.6889 12.2961C22.7698 12.1074 22.7698 11.8926 22.6889 11.7039L21.9999 12Z" fill="#2A2A37"/>
</mask>
<g mask="url(#mask0_2151_12618)">
<rect y="-0.5" width="24" height="24" fill="#2A2A37"/>
</g>
</svg>
