<svg width="20" height="20" viewBox="0 0 20 20" fill="none" xmlns="http://www.w3.org/2000/svg">
  <path fill-rule="evenodd" clip-rule="evenodd" d="M9.16667 6.04159C9.16667 5.69641 9.44649 5.41659 9.79167 5.41659H16.4583C16.8035 5.41659 17.0833 5.69641 17.0833 6.04159C17.0833 6.38676 16.8035 6.66659 16.4583 6.66659H9.79167C9.44649 6.66659 9.16667 6.38676 9.16667 6.04159Z" fill="#000"/>
  <path fill-rule="evenodd" clip-rule="evenodd" d="M2.5 6.04159C2.5 5.69641 2.77982 5.41659 3.125 5.41659H5.625C5.97018 5.41659 6.25 5.69641 6.25 6.04159C6.25 6.38676 5.97018 6.66659 5.625 6.66659H3.125C2.77982 6.66659 2.5 6.38676 2.5 6.04159Z" fill="#000"/>
  <path fill-rule="evenodd" clip-rule="evenodd" d="M2.5 13.5416C2.5 13.1964 2.77982 12.9166 3.125 12.9166H9.79167C10.1368 12.9166 10.4167 13.1964 10.4167 13.5416C10.4167 13.8868 10.1368 14.1666 9.79167 14.1666H3.125C2.77982 14.1666 2.5 13.8868 2.5 13.5416Z" fill="#000"/>
  <path fill-rule="evenodd" clip-rule="evenodd" d="M13.3333 13.5416C13.3333 13.1964 13.6132 12.9166 13.9583 12.9166H16.4583C16.8035 12.9166 17.0833 13.1964 17.0833 13.5416C17.0833 13.8868 16.8035 14.1666 16.4583 14.1666H13.9583C13.6132 14.1666 13.3333 13.8868 13.3333 13.5416Z" fill="#000"/>
  <path fill-rule="evenodd" clip-rule="evenodd" d="M5 6.04159C5 4.54594 6.21269 3.33325 7.70833 3.33325C9.20398 3.33325 10.4167 4.54594 10.4167 6.04159C10.4167 7.53723 9.20398 8.74992 7.70833 8.74992C6.21269 8.74992 5 7.53723 5 6.04159ZM7.70833 4.58325C6.90305 4.58325 6.25 5.2363 6.25 6.04159C6.25 6.84687 6.90305 7.49992 7.70833 7.49992C8.51362 7.49992 9.16667 6.84687 9.16667 6.04159C9.16667 5.2363 8.51362 4.58325 7.70833 4.58325Z" fill="#000"/>
  <path fill-rule="evenodd" clip-rule="evenodd" d="M9.16667 13.5416C9.16667 12.0459 10.3794 10.8333 11.875 10.8333C13.3706 10.8333 14.5833 12.0459 14.5833 13.5416C14.5833 15.0372 13.3706 16.2499 11.875 16.2499C10.3794 16.2499 9.16667 15.0372 9.16667 13.5416ZM11.875 12.0833C11.0697 12.0833 10.4167 12.7363 10.4167 13.5416C10.4167 14.3469 11.0697 14.9999 11.875 14.9999C12.6803 14.9999 13.3333 14.3469 13.3333 13.5416C13.3333 12.7363 12.6803 12.0833 11.875 12.0833Z" fill="#000"/>
</svg>
