<svg width="24" height="24" viewBox="0 0 24 24" fill="none" xmlns="http://www.w3.org/2000/svg">
<path fill-rule="evenodd" clip-rule="evenodd" d="M12 3.5C7.30521 3.5 3.5 7.30521 3.5 12C3.5 16.6938 7.30527 20.5 12 20.5C16.6938 20.5 20.5 16.6938 20.5 12C20.5 7.30527 16.6938 3.5 12 3.5ZM2 12C2 6.47679 6.47679 2 12 2C17.5222 2 22 6.47673 22 12C22 17.5222 17.5222 22 12 22C6.47673 22 2 17.5222 2 12Z" fill="#81818D"/>
<path fill-rule="evenodd" clip-rule="evenodd" d="M11.9961 7.45312C12.4103 7.45312 12.7461 7.78891 12.7461 8.20312V12.6221C12.7461 13.0363 12.4103 13.3721 11.9961 13.3721C11.5819 13.3721 11.2461 13.0363 11.2461 12.6221V8.20312C11.2461 7.78891 11.5819 7.45312 11.9961 7.45312Z" fill="#81818D"/>
<path fill-rule="evenodd" clip-rule="evenodd" d="M11.245 15.7969C11.245 15.3827 11.5808 15.0469 11.995 15.0469H12.005C12.4192 15.0469 12.755 15.3827 12.755 15.7969C12.755 16.2111 12.4192 16.5469 12.005 16.5469H11.995C11.5808 16.5469 11.245 16.2111 11.245 15.7969Z" fill="#81818D"/>
</svg>
