<svg width="32" height="32" viewBox="0 0 32 32" fill="none" xmlns="http://www.w3.org/2000/svg">
<path d="M2.6665 7.66602C2.6665 7.11373 3.11422 6.66602 3.6665 6.66602H28.3332C28.8855 6.66602 29.3332 7.11373 29.3332 7.66602C29.3332 8.2183 28.8855 8.66602 28.3332 8.66602H3.6665C3.11422 8.66602 2.6665 8.2183 2.6665 7.66602Z" fill="#2A2A37"/>
<path d="M2.6665 15.9993C2.6665 15.4471 3.11422 14.9993 3.6665 14.9993H28.3332C28.8855 14.9993 29.3332 15.4471 29.3332 15.9993C29.3332 16.5516 28.8855 16.9993 28.3332 16.9993H3.6665C3.11422 16.9993 2.6665 16.5516 2.6665 15.9993Z" fill="#2A2A37"/>
<path d="M2.6665 24.3327C2.6665 23.7804 3.11422 23.3327 3.6665 23.3327H28.3332C28.8855 23.3327 29.3332 23.7804 29.3332 24.3327C29.3332 24.885 28.8855 25.3327 28.3332 25.3327H3.6665C3.11422 25.3327 2.6665 24.885 2.6665 24.3327Z" fill="#2A2A37"/>
</svg>
