<svg width="40" height="40" viewBox="0 0 40 40" fill="none" xmlns="http://www.w3.org/2000/svg">
<g clip-path="url(#clip0_689_112288)">
<path d="M0.193359 35.7147V7.14282C0.193378 6.05755 0.624745 5.01697 1.39215 4.24957C2.15955 3.48217 3.20013 3.0508 4.2854 3.05078H8.57161C9.25347 3.05101 9.80658 3.60384 9.80658 4.28575C9.80658 4.96766 9.25347 5.52049 8.57161 5.52072H4.2854C3.8552 5.52074 3.44267 5.69169 3.13847 5.99589C2.83427 6.30009 2.66332 6.71262 2.6633 7.14282V35.7147C2.66341 36.1448 2.83435 36.5575 3.13847 36.8617C3.44265 37.1658 3.85528 37.3368 4.2854 37.3368H15.7137C16.3957 37.3368 16.9487 37.8897 16.9487 38.5718C16.9485 39.2537 16.3956 39.8068 15.7137 39.8068H4.2854C3.20021 39.8068 2.15953 39.3753 1.39215 38.608C0.624825 37.8407 0.193469 36.7999 0.193359 35.7147Z" fill="#81818D"/>
<path d="M28.7644 12.857V7.14282C28.7644 6.71272 28.5933 6.30007 28.2892 5.99589C27.9851 5.69179 27.5723 5.52085 27.1423 5.52072H22.8561C22.174 5.52072 21.6211 4.9678 21.6211 4.28575C21.6211 3.6037 22.174 3.05078 22.8561 3.05078H27.1423C28.2274 3.05091 29.2682 3.48227 30.0355 4.24957C30.8028 5.01695 31.2343 6.05765 31.2343 7.14282V12.857C31.2343 13.5389 30.6812 14.0917 29.9993 14.0919C29.3173 14.0919 28.7644 13.539 28.7644 12.857Z" fill="#81818D"/>
<path d="M21.6213 4.2854C21.6213 3.38953 20.8951 2.6633 19.9992 2.6633H11.428C10.5321 2.66334 9.80591 3.38955 9.80587 4.2854V5.71454C9.80614 6.61019 10.5323 7.3366 11.428 7.33664H19.9992C20.8949 7.33664 21.621 6.61021 21.6213 5.71454V4.2854ZM24.0912 5.71454C24.091 7.97432 22.259 9.80658 19.9992 9.80658H11.428C9.16816 9.80654 7.3362 7.9743 7.33594 5.71454V4.2854C7.33598 2.02545 9.16802 0.193398 11.428 0.193359H19.9992C22.2592 0.193359 24.0912 2.02542 24.0912 4.2854V5.71454Z" fill="#81818D"/>
<path d="M37.3372 29.2858C37.3369 24.8397 33.7319 21.2356 29.2858 21.2356C24.8399 21.2359 21.2359 24.8399 21.2356 29.2858C21.2356 33.7319 24.8397 37.3369 29.2858 37.3372C33.7321 37.3372 37.3372 33.7321 37.3372 29.2858ZM39.8071 29.2858C39.8071 35.0962 35.0962 39.8071 29.2858 39.8071C23.4756 39.8068 18.7656 35.096 18.7656 29.2858C18.7659 23.4758 23.4758 18.7659 29.2858 18.7656C35.096 18.7656 39.8068 23.4756 39.8071 29.2858Z" fill="#81818D"/>
<path d="M34.9834 21.8401C35.4657 21.358 36.2475 21.3579 36.7297 21.8401C37.2117 22.3224 37.2117 23.1042 36.7297 23.5865L23.5865 36.7297C23.1042 37.2117 22.3224 37.2117 21.8401 36.7297C21.3579 36.2475 21.358 35.4657 21.8401 34.9834L34.9834 21.8401Z" fill="#81818D"/>
</g>
<defs>
<clipPath id="clip0_689_112288">
<rect width="40" height="40" fill="white"/>
</clipPath>
</defs>
</svg>
