<svg width="24" height="24" viewBox="0 0 24 24" fill="none" xmlns="http://www.w3.org/2000/svg">
<path opacity="0.2" fill-rule="evenodd" clip-rule="evenodd" d="M12 2C6.47715 2 2 6.47715 2 12C2 17.5228 6.47715 22 12 22C17.5228 22 22 17.5228 22 12C22 6.47715 17.5228 2 12 2Z" fill="#00BF40"/>
<path fill-rule="evenodd" clip-rule="evenodd" d="M16.5777 8.30823C16.9596 8.62644 17.0112 9.19395 16.693 9.5758L11.693 15.5758C11.5311 15.7701 11.295 15.8872 11.0423 15.8987C10.7897 15.9102 10.544 15.8148 10.3652 15.636L7.36517 12.636C7.01369 12.2846 7.01369 11.7147 7.36517 11.3632C7.71664 11.0118 8.28649 11.0118 8.63796 11.3632L10.9411 13.6664L15.3102 8.42347C15.6284 8.04162 16.1959 7.99003 16.5777 8.30823Z" fill="#00BF40"/>
</svg>
