<svg width="24" height="24" viewBox="0 0 24 24" fill="none" xmlns="http://www.w3.org/2000/svg">
<path opacity="0.12" d="M12 2C17.5222 2 22 6.47673 22 12C22 17.5222 17.5222 22 12 22C6.47673 22 2 17.5222 2 12C2 6.47679 6.47679 2 12 2Z" fill="#FF4242"/>
<path fill-rule="evenodd" clip-rule="evenodd" d="M11.9952 7.45312C12.4094 7.45312 12.7452 7.78891 12.7452 8.20312V12.6221C12.7452 13.0363 12.4094 13.3721 11.9952 13.3721C11.581 13.3721 11.2452 13.0363 11.2452 12.6221V8.20312C11.2452 7.78891 11.581 7.45312 11.9952 7.45312Z" fill="#FF4242"/>
<path fill-rule="evenodd" clip-rule="evenodd" d="M11.2441 15.7969C11.2441 15.3827 11.5799 15.0469 11.9941 15.0469H12.0041C12.4184 15.0469 12.7541 15.3827 12.7541 15.7969C12.7541 16.2111 12.4184 16.5469 12.0041 16.5469H11.9941C11.5799 16.5469 11.2441 16.2111 11.2441 15.7969Z" fill="#FF4242"/>
</svg>
