<svg width="16" height="16" viewBox="0 0 16 16" fill="none" xmlns="http://www.w3.org/2000/svg">
<mask id="mask0_2642_26042" style="mask-type:alpha" maskUnits="userSpaceOnUse" x="0" y="0" width="16" height="16">
<path fill-rule="evenodd" clip-rule="evenodd" d="M12.4467 1.73778C12.1923 1.65512 11.9182 1.65512 11.6638 1.73778C11.4824 1.79673 11.3422 1.89701 11.2287 1.99329C11.1247 2.08158 11.0107 2.19568 10.8908 2.31558L10.8768 2.32962L2.06641 11.14V13.933H4.85937L13.6697 5.12259L13.6837 5.10857C13.8036 4.98869 13.9178 4.8746 14.006 4.7706C14.1023 4.65719 14.2026 4.51695 14.2616 4.33551C14.3442 4.0811 14.3442 3.80706 14.2616 3.55266C14.2026 3.37122 14.1023 3.23098 14.006 3.11757C13.9178 3.01357 13.8037 2.89949 13.6838 2.77962L13.2197 2.31559C13.0999 2.19569 12.9858 2.08158 12.8818 1.99329C12.7684 1.89701 12.6281 1.79673 12.4467 1.73778ZM12.0081 2.8953C12.0341 2.86926 12.0764 2.86926 12.1024 2.8953L13.104 3.89693C13.1301 3.92297 13.1301 3.96518 13.104 3.99121L4.36231 12.733H3.26639V11.637L12.0081 2.8953Z" fill="#2A2A37"/>
</mask>
<g mask="url(#mask0_2642_26042)">
<rect width="16" height="16" fill="#2A2A37"/>
</g>
</svg>
