<svg width="16" height="16" viewBox="0 0 16 16" fill="none" xmlns="http://www.w3.org/2000/svg">
<mask id="mask0_2460_33236" style="mask-type:alpha" maskUnits="userSpaceOnUse" x="0" y="0" width="16" height="16">
<path d="M12.1673 6.66667C12.1673 4.36548 10.3018 2.5 8.00065 2.5C5.69946 2.5 3.83398 4.36548 3.83398 6.66667V6.86393L3.83854 7.05924C3.88218 8.0327 4.2505 8.96576 4.88802 9.70768L8.00065 13.3288L11.1133 9.70768C11.7508 8.96576 12.1191 8.0327 12.1628 7.05924L12.1673 6.86393V6.66667ZM9.50065 6.66667C9.50065 5.83824 8.82908 5.16667 8.00065 5.16667C7.17222 5.16667 6.50065 5.83824 6.50065 6.66667C6.50065 7.49509 7.17222 8.16667 8.00065 8.16667C8.82908 8.16667 9.50065 7.49509 9.50065 6.66667ZM10.5007 6.66667C10.5007 8.04738 9.38136 9.16667 8.00065 9.16667C6.61994 9.16667 5.50065 8.04738 5.50065 6.66667C5.50065 5.28595 6.61994 4.16667 8.00065 4.16667C9.38136 4.16667 10.5007 5.28595 10.5007 6.66667ZM13.1673 6.86393L13.1621 7.10417C13.1084 8.30086 12.6549 9.44807 11.8711 10.36L8.37956 14.4225C8.28458 14.5329 8.14625 14.5964 8.00065 14.5964C7.85505 14.5964 7.71672 14.5329 7.62174 14.4225L4.13021 10.36C3.34644 9.44807 2.89286 8.30086 2.83919 7.10417L2.83398 6.86393V6.66667C2.83398 3.8132 5.14718 1.5 8.00065 1.5C10.8541 1.5 13.1673 3.8132 13.1673 6.66667V6.86393Z" fill="#2A2A37"/>
</mask>
<g mask="url(#mask0_2460_33236)">
<rect width="16" height="16" fill="#2A2A37"/>
</g>
</svg>
