<svg width="16" height="16" viewBox="0 0 16 16" fill="none" xmlns="http://www.w3.org/2000/svg">
<mask id="mask0_2844_2258" style="mask-type:alpha" maskUnits="userSpaceOnUse" x="0" y="0" width="16" height="16">
<path fill-rule="evenodd" clip-rule="evenodd" d="M2.66699 7.9987C2.66699 7.63051 2.96547 7.33203 3.33366 7.33203H12.667C13.0352 7.33203 13.3337 7.63051 13.3337 7.9987C13.3337 8.36689 13.0352 8.66536 12.667 8.66536H3.33366C2.96547 8.66536 2.66699 8.36689 2.66699 7.9987Z" fill="#2A2A37"/>
<path fill-rule="evenodd" clip-rule="evenodd" d="M8.00033 2.66602C8.36852 2.66602 8.66699 2.96449 8.66699 3.33268L8.66699 12.666C8.66699 13.0342 8.36851 13.3327 8.00033 13.3327C7.63214 13.3327 7.33366 13.0342 7.33366 12.666L7.33366 3.33268C7.33366 2.96449 7.63214 2.66602 8.00033 2.66602Z" fill="#2A2A37"/>
</mask>
<g mask="url(#mask0_2844_2258)">
<rect width="16" height="16" fill="#2A2A37"/>
</g>
</svg>
