<svg width="16" height="16" viewBox="0 0 16 16" fill="none" xmlns="http://www.w3.org/2000/svg">
<path fill-rule="evenodd" clip-rule="evenodd" d="M13.3332 2.83367C13.057 2.83367 12.8332 3.05752 12.8332 3.33367V5.50033H10.6665C10.3904 5.50033 10.1665 5.72419 10.1665 6.00033C10.1665 6.27647 10.3904 6.50033 10.6665 6.50033H13.3332C13.6093 6.50033 13.8332 6.27647 13.8332 6.00033V3.33367C13.8332 3.05752 13.6093 2.83367 13.3332 2.83367Z" fill="black"/>
<path fill-rule="evenodd" clip-rule="evenodd" d="M10.1419 3.66759C9.1518 3.17809 8.02391 3.04247 6.94599 3.28329C5.86807 3.52411 4.90515 4.12684 4.21751 4.99117C3.52986 5.85549 3.15899 6.92926 3.16662 8.03372C3.17425 9.13819 3.55992 10.2067 4.25944 11.0615C4.95896 11.9162 5.93012 12.5056 7.01127 12.7315C8.09241 12.9574 9.21832 12.8062 10.2016 12.3031C11.1848 11.7999 11.9661 10.9752 12.4153 9.96623C12.5276 9.71396 12.8232 9.6005 13.0754 9.71282C13.3277 9.82514 13.4412 10.1207 13.3289 10.373C12.7867 11.5907 11.8438 12.5861 10.6571 13.1933C9.47042 13.8005 8.11157 13.983 6.80674 13.7103C5.50191 13.4377 4.32981 12.7264 3.48557 11.6948C2.64132 10.6632 2.17585 9.37361 2.16664 8.04063C2.15743 6.70765 2.60504 5.41173 3.43495 4.36858C4.26487 3.32543 5.42702 2.59799 6.72796 2.30735C8.02889 2.0167 9.39014 2.18039 10.5851 2.77116C11.78 3.36193 12.7366 4.34414 13.2956 5.5543C13.4114 5.80499 13.302 6.10209 13.0513 6.21788C12.8006 6.33367 12.5035 6.22431 12.3877 5.97362C11.9246 4.97092 11.132 4.15708 10.1419 3.66759Z" fill="black"/>
</svg>
