<svg width="24" height="24" viewBox="0 0 24 24" fill="none" xmlns="http://www.w3.org/2000/svg">
<path fill-rule="evenodd" clip-rule="evenodd" d="M10.5 16.5C13.8137 16.5 16.5 13.8137 16.5 10.5C16.5 7.18629 13.8137 4.5 10.5 4.5C7.18629 4.5 4.5 7.18629 4.5 10.5C4.5 13.8137 7.18629 16.5 10.5 16.5ZM10.5 18C14.6421 18 18 14.6421 18 10.5C18 6.35786 14.6421 3 10.5 3C6.35786 3 3 6.35786 3 10.5C3 14.6421 6.35786 18 10.5 18Z" fill="#2A2A37"/>
<path fill-rule="evenodd" clip-rule="evenodd" d="M19.4697 20.5303L14.4697 15.5303L15.5303 14.4697L20.5303 19.4697C20.8232 19.7626 20.8232 20.2374 20.5303 20.5303C20.2374 20.8232 19.7626 20.8232 19.4697 20.5303Z" fill="#2A2A37"/>
</svg>
