<svg width="20" height="20" viewBox="0 0 20 20" fill="none" xmlns="http://www.w3.org/2000/svg">
  <path fill-rule="evenodd" clip-rule="evenodd" d="M8.75 13.75C11.5114 13.75 13.75 11.5114 13.75 8.75C13.75 5.98858 11.5114 3.75 8.75 3.75C5.98858 3.75 3.75 5.98858 3.75 8.75C3.75 11.5114 5.98858 13.75 8.75 13.75ZM8.75 15C12.2018 15 15 12.2018 15 8.75C15 5.29822 12.2018 2.5 8.75 2.5C5.29822 2.5 2.5 5.29822 2.5 8.75C2.5 12.2018 5.29822 15 8.75 15Z" fill="#000"/>
  <path fill-rule="evenodd" clip-rule="evenodd" d="M16.2247 17.1086L12.0581 12.9419L12.9419 12.0581L17.1086 16.2247C17.3527 16.4688 17.3527 16.8645 17.1086 17.1086C16.8645 17.3527 16.4688 17.3527 16.2247 17.1086Z" fill="#000"/>
</svg>
