<svg width="40" height="40" viewBox="0 0 40 40" fill="none" xmlns="http://www.w3.org/2000/svg">
<g clip-path="url(#clip0_689_112283)">
<path d="M37.3379 14.2857C37.3379 7.86709 32.1341 2.66345 25.7154 2.6633C19.2967 2.6633 14.093 7.867 14.093 14.2857C14.0931 20.7044 19.2968 25.9082 25.7154 25.9082C32.134 25.9081 37.3377 20.7043 37.3379 14.2857ZM39.8078 14.2857C39.8077 22.0684 33.4981 28.378 25.7154 28.3781C17.9327 28.3781 11.6232 22.0685 11.623 14.2857C11.623 6.50289 17.9326 0.193359 25.7154 0.193359C33.4982 0.193511 39.8078 6.50299 39.8078 14.2857Z" fill="#81818D"/>
<path d="M23.8595 7.65938C24.6293 7.38432 25.4509 7.28412 26.2643 7.36512C27.0775 7.44613 27.8627 7.70605 28.563 8.12732C29.2633 8.5487 29.8616 9.12068 30.3141 9.80128C30.6918 10.3693 30.5372 11.1362 29.9692 11.5138C29.4013 11.8911 28.6354 11.7367 28.2579 11.1689C28.0078 10.7927 27.6765 10.4768 27.2894 10.2439C26.9025 10.0112 26.4688 9.86654 26.0195 9.82179C25.57 9.77703 25.1158 9.83262 24.6905 9.9846C24.2651 10.1366 23.8786 10.3815 23.5592 10.701C23.0771 11.1833 22.2953 11.1841 21.8129 10.7022C21.3305 10.22 21.3307 9.43703 21.8129 8.95465C22.3907 8.37668 23.0899 7.93439 23.8595 7.65938Z" fill="#81818D"/>
<path d="M16.5413 23.1704C17.0459 22.7121 17.8265 22.7493 18.2852 23.2536C18.7438 23.7584 18.7068 24.5401 18.202 24.9987L2.25953 39.4843C1.75476 39.9429 0.973087 39.9058 0.514411 39.4011C0.0557785 38.8963 0.0929249 38.1146 0.597626 37.656L16.5413 23.1704Z" fill="#81818D"/>
</g>
<defs>
<clipPath id="clip0_689_112283">
<rect width="40" height="40" fill="white"/>
</clipPath>
</defs>
</svg>
