<svg xmlns="http://www.w3.org/2000/svg" width="16" height="16" viewBox="0 0 16 16" fill="none">
<mask id="mask0_2380_35150" style="mask-type:alpha" maskUnits="userSpaceOnUse" x="0" y="0" width="16" height="16">
<path fill-rule="evenodd" clip-rule="evenodd" d="M6.33497 1.14731C6.4109 0.957483 6.59476 0.833008 6.79921 0.833008H9.19921C9.40366 0.833008 9.58752 0.957483 9.66345 1.14731L10.2512 2.61681C10.7118 2.80965 11.1422 3.05976 11.5335 3.3581L13.1016 3.13218C13.304 3.10302 13.5037 3.2 13.6059 3.37707L14.8059 5.45553C14.9082 5.63259 14.8923 5.85405 14.7659 6.01472L13.7866 7.25922C13.8174 7.5019 13.8332 7.74905 13.8332 7.99967C13.8332 8.25037 13.8173 8.49759 13.7866 8.74033L14.7659 9.98486C14.8923 10.1455 14.9082 10.367 14.8059 10.5441L13.6059 12.6225C13.5037 12.7996 13.304 12.8966 13.1016 12.8674L11.5333 12.6414C11.1422 12.9395 10.7122 13.1895 10.252 13.3822L9.6641 14.852C9.58817 15.0419 9.40431 15.1663 9.19986 15.1663H6.79986C6.59541 15.1663 6.41155 15.0419 6.33562 14.852L5.74769 13.3822C5.28734 13.1894 4.85715 12.9393 4.46598 12.6411L2.89744 12.8671C2.69508 12.8962 2.49536 12.7993 2.39313 12.6222L1.19313 10.5437C1.0909 10.3667 1.10678 10.1452 1.23321 9.98454L2.21303 8.73934C2.18233 8.49691 2.16653 8.25003 2.16653 7.99967C2.16653 7.74944 2.18231 7.50268 2.21299 7.26036L1.23255 6.01439C1.10612 5.85372 1.09025 5.63226 1.19248 5.4552L2.39248 3.37674C2.4947 3.19968 2.69443 3.10269 2.89679 3.13185L4.46633 3.35798C4.85719 3.06003 5.28699 2.81019 5.74691 2.61746L6.33497 1.14731ZM7.13772 1.83301L6.59551 3.18855C6.54324 3.31923 6.4383 3.42183 6.30647 3.47115C5.80118 3.66019 5.33565 3.93159 4.92632 4.26927C4.81767 4.35891 4.67625 4.39855 4.53683 4.37847L3.08925 4.1699L2.22776 5.66204L3.13167 6.81076C3.21859 6.92122 3.255 7.06316 3.23199 7.20182C3.18896 7.46105 3.16653 7.72756 3.16653 7.99967C3.16653 8.2719 3.18898 8.5385 3.23204 8.79783C3.25506 8.9365 3.21865 9.07846 3.13173 9.18893L2.22841 10.3369L3.0899 11.829L4.5365 11.6206C4.67593 11.6005 4.81736 11.6402 4.92602 11.7298C5.33561 12.0678 5.80148 12.3394 6.30717 12.5285C6.43903 12.5778 6.54399 12.6804 6.59628 12.8111L7.13838 14.1663H8.86134L9.40344 12.8111C9.45573 12.6804 9.56069 12.5778 9.69255 12.5285C10.1981 12.3394 10.6638 12.068 11.0733 11.7302C11.182 11.6405 11.3234 11.6009 11.4628 11.621L12.9092 11.8294L13.7707 10.3372L12.8678 9.18988C12.7809 9.07938 12.7445 8.93739 12.7675 8.7987C12.8107 8.53909 12.8332 8.2722 12.8332 7.99967C12.8332 7.72721 12.8107 7.46037 12.7676 7.20083C12.7445 7.06214 12.7809 6.92015 12.8679 6.80966L13.7707 5.66236L12.9092 4.17023L11.463 4.37858C11.3236 4.39867 11.1822 4.35902 11.0735 4.26938C10.6638 3.93134 10.1977 3.65972 9.69186 3.47063C9.55997 3.42133 9.45497 3.31871 9.40268 3.18797L8.86069 1.83301H7.13772Z" fill="#2A2A37"/>
<path fill-rule="evenodd" clip-rule="evenodd" d="M8 6.5C7.17157 6.5 6.5 7.17157 6.5 8C6.5 8.82843 7.17157 9.5 8 9.5C8.82843 9.5 9.5 8.82843 9.5 8C9.5 7.17157 8.82843 6.5 8 6.5ZM5.5 8C5.5 6.61929 6.61929 5.5 8 5.5C9.38071 5.5 10.5 6.61929 10.5 8C10.5 9.38071 9.38071 10.5 8 10.5C6.61929 10.5 5.5 9.38071 5.5 8Z" fill="#2A2A37"/>
</mask>
<g mask="url(#mask0_2380_35150)">
<rect width="16" height="16" fill="#2A2A37"/>
</g>
</svg>
