<svg width="16" height="16" viewBox="0 0 16 16" fill="none" xmlns="http://www.w3.org/2000/svg">
<mask id="mask0_2277_40833" style="mask-type:alpha" maskUnits="userSpaceOnUse" x="0" y="0" width="16" height="16">
<path fill-rule="evenodd" clip-rule="evenodd" d="M2.5 4C2.5 3.72386 2.72386 3.5 3 3.5H13C13.2761 3.5 13.5 3.72386 13.5 4C13.5 4.27614 13.2761 4.5 13 4.5H3C2.72386 4.5 2.5 4.27614 2.5 4Z" fill="#2A2A37"/>
<path fill-rule="evenodd" clip-rule="evenodd" d="M3.98215 3.83365C4.25812 3.8238 4.48983 4.03952 4.49968 4.31549L4.81006 13.0059C4.81326 13.0956 4.88688 13.1667 4.97662 13.1667H11.0234C11.1131 13.1667 11.1867 13.0956 11.1899 13.0059L11.5003 4.31549C11.5102 4.03952 11.7419 3.8238 12.0178 3.83365C12.2938 3.84351 12.5095 4.07521 12.4997 4.35118L12.1893 13.0416C12.1669 13.6694 11.6515 14.1667 11.0234 14.1667H4.97662C4.34849 14.1667 3.83311 13.6694 3.81069 13.0416L3.50032 4.35118C3.49046 4.07521 3.70619 3.84351 3.98215 3.83365Z" fill="#2A2A37"/>
<path fill-rule="evenodd" clip-rule="evenodd" d="M6.66667 2.5C6.57462 2.5 6.5 2.57462 6.5 2.66667V4C6.5 4.27614 6.27614 4.5 6 4.5C5.72386 4.5 5.5 4.27614 5.5 4V2.66667C5.5 2.02233 6.02233 1.5 6.66667 1.5H9.33333C9.97767 1.5 10.5 2.02233 10.5 2.66667V4C10.5 4.27614 10.2761 4.5 10 4.5C9.72386 4.5 9.5 4.27614 9.5 4V2.66667C9.5 2.57462 9.42538 2.5 9.33333 2.5H6.66667Z" fill="#2A2A37"/>
<path fill-rule="evenodd" clip-rule="evenodd" d="M6.66667 6.16667C6.94281 6.16667 7.16667 6.39052 7.16667 6.66667V10.6667C7.16667 10.9428 6.94281 11.1667 6.66667 11.1667C6.39052 11.1667 6.16667 10.9428 6.16667 10.6667V6.66667C6.16667 6.39052 6.39052 6.16667 6.66667 6.16667Z" fill="#2A2A37"/>
<path fill-rule="evenodd" clip-rule="evenodd" d="M9.33333 6.16667C9.60948 6.16667 9.83333 6.39052 9.83333 6.66667V10.6667C9.83333 10.9428 9.60948 11.1667 9.33333 11.1667C9.05719 11.1667 8.83333 10.9428 8.83333 10.6667V6.66667C8.83333 6.39052 9.05719 6.16667 9.33333 6.16667Z" fill="#2A2A37"/>
</mask>
<g mask="url(#mask0_2277_40833)">
<rect width="16" height="16" fill="#2A2A37"/>
</g>
</svg>
