<svg width="24" height="24" viewBox="0 0 24 24" fill="none" xmlns="http://www.w3.org/2000/svg">
  <path d="M13.5507 10.1017C13.0276 9.49138 12.766 9.18622 12.4548 9.07442C12.1816 8.97628 11.8828 8.97628 11.6096 9.07442C11.2984 9.18622 11.0368 9.49138 10.5137 10.1017L7.36215 13.7785C6.46166 14.8291 6.01142 15.3544 6.00039 15.7991C5.9908 16.1856 6.1606 16.5548 6.46029 16.799C6.80513 17.0801 7.49697 17.0801 8.88066 17.0801H15.1838C16.5674 17.0801 17.2593 17.0801 17.6041 16.799C17.9038 16.5548 18.0736 16.1856 18.064 15.7991C18.053 15.3544 17.6027 14.8291 16.7023 13.7785L13.5507 10.1017Z" fill="#FF4242"/>
</svg>
