<svg width="24" height="24" viewBox="0 0 24 24" fill="none" xmlns="http://www.w3.org/2000/svg">
  <mask id="mask_trend_down" style="mask-type:alpha" maskUnits="userSpaceOnUse" x="0" y="0" width="24" height="24">
    <path d="M13.5507 15.9784C13.0276 16.5887 12.766 16.8939 12.4548 17.0057C12.1816 17.1038 11.8828 17.1038 11.6096 17.0057C11.2984 16.8939 11.0368 16.5887 10.5137 15.9784L7.36215 12.3016C6.46166 11.251 6.01142 10.7257 6.00039 10.281C5.9908 9.89449 6.1606 9.5253 6.46029 9.28105C6.80513 9 7.49697 9 8.88066 9H15.1838C16.5674 9 17.2593 9 17.6041 9.28105C17.9038 9.5253 18.0736 9.89449 18.064 10.281C18.053 10.7257 17.6027 11.251 16.7023 12.3016L13.5507 15.9784Z" fill="#2A2A37"/>
  </mask>
  <g mask="url(#mask_trend_down)">
    <rect y="-0.5" width="24" height="24" fill="#0066FF"/>
  </g>
</svg>
