<svg width="16" height="16" viewBox="0 0 16 16" fill="none" xmlns="http://www.w3.org/2000/svg">
<mask id="mask0_2460_53849" style="mask-type:alpha" maskUnits="userSpaceOnUse" x="0" y="0" width="16" height="16">
<path d="M13.335 9.91695C13.7489 9.9173 14.085 10.253 14.085 10.6669V12.3339C14.0847 13.3 13.301 14.0836 12.335 14.0839H3.66797C2.70162 14.0839 1.91821 13.3002 1.91797 12.3339V10.6669C1.91797 10.2527 2.25376 9.91695 2.66797 9.91695C3.08203 9.91712 3.41797 10.2528 3.41797 10.6669V12.3339C3.41821 12.4718 3.53005 12.5839 3.66797 12.5839H12.335C12.4726 12.5836 12.5847 12.4716 12.585 12.3339V10.6669C12.585 10.2527 12.9207 9.91695 13.335 9.91695ZM7.57617 2.91011C7.81049 2.6758 8.19049 2.6758 8.4248 2.91011L10.0918 4.57613C10.326 4.81039 10.3259 5.19045 10.0918 5.42476C9.85747 5.65867 9.47735 5.65888 9.24316 5.42476L8.60059 4.78218V10.0009C8.60017 10.3318 8.33194 10.6004 8.00098 10.6005C7.67001 10.6004 7.40081 10.3318 7.40039 10.0009V4.78218L6.75781 5.42476C6.52353 5.65845 6.14431 5.65867 5.91016 5.42476C5.67597 5.19057 5.67623 4.81047 5.91016 4.57613L7.57617 2.91011Z" fill="#111111"/>
</mask>
<g mask="url(#mask0_2460_53849)">
<rect width="16" height="16" fill="#2A2A37"/>
</g>
</svg>
