<svg width="32" height="32" viewBox="0 0 32 32" fill="none" xmlns="http://www.w3.org/2000/svg">
<circle cx="16" cy="16" r="16" fill="#B0B0B0"/>
<mask id="mask0_803_2128" style="mask-type:alpha" maskUnits="userSpaceOnUse" x="0" y="0" width="32" height="32">
<circle cx="16" cy="16" r="16" fill="#F1F1F5"/>
</mask>
<g mask="url(#mask0_803_2128)">
<path fill-rule="evenodd" clip-rule="evenodd" d="M16 20.0166C21.5227 20.0166 25.9998 24.4939 26 30.0166V30.9434C26 31.9185 25.2095 32.7088 24.2344 32.709H7.76562C6.79048 32.7088 6.00001 31.9185 6 30.9434V30.0166C6.00018 24.4939 10.4773 20.0166 16 20.0166ZM15.9971 8C18.9708 8.00016 21.3818 10.411 21.3818 13.3848C21.3818 16.3584 18.9707 18.7694 15.9971 18.7695C13.0233 18.7695 10.6124 16.3585 10.6123 13.3848C10.6123 10.4109 13.0232 8 15.9971 8Z" fill="white"/>
</g>
<circle cx="16" cy="16" r="15.5" stroke="#E5E5EC"/>
</svg>
