<svg width="48" height="48" viewBox="0 0 48 48" fill="none" xmlns="http://www.w3.org/2000/svg">
<path d="M41.3487 15.5992C43.6965 15.5992 45.5997 13.7188 45.5997 11.3992C45.5997 9.07962 43.6965 7.19922 41.3487 7.19922C39.0009 7.19922 37.0977 9.07962 37.0977 11.3992C37.0977 13.7188 39.0009 15.5992 41.3487 15.5992Z" fill="url(#paint0_linear_2279_8261)"/>
<path d="M41.3486 18.3984C43.4356 18.3984 45.1269 20.0695 45.1269 22.1314V37.0644C45.1269 39.1263 43.4356 40.7973 41.3486 40.7973C39.2617 40.7973 37.5703 39.1263 37.5703 37.0644V22.1314C37.5703 20.0695 39.2617 18.3984 41.3486 18.3984Z" fill="url(#paint1_linear_2279_8261)"/>
<path d="M31.4976 32.6381C29.8006 30.9615 29.8006 28.2432 31.4976 26.5666L33.6277 24.7757C35.1036 23.3175 35.1036 20.9543 33.6277 19.496C32.1517 18.0378 29.7598 18.0378 28.2839 19.496L26.4712 21.6005C24.7742 23.2771 22.0229 23.2771 20.3259 21.6005L18.5133 19.496C17.0373 18.0378 14.6454 18.0378 13.1695 19.496C11.6935 20.9543 11.6935 23.3175 13.1695 24.7757L15.2995 26.5666C16.9965 28.2432 16.9965 30.9615 15.2995 32.6381L13.1695 34.429C11.6935 35.8872 11.6935 38.2504 13.1695 39.7087C14.6454 41.1669 17.0373 41.1669 18.5133 39.7087L20.3259 37.6042C22.0229 35.9275 24.7742 35.9275 26.4712 37.6042L28.2839 39.7087C29.7598 41.1669 32.1517 41.1669 33.6277 39.7087C35.1036 38.2504 35.1036 35.8872 33.6277 34.429L31.4976 32.6381Z" fill="url(#paint2_linear_2279_8261)"/>
<path d="M5.45025 15.5992C7.79802 15.5992 9.70127 13.7188 9.70127 11.3992C9.70127 9.07962 7.79802 7.19922 5.45025 7.19922C3.10247 7.19922 1.19922 9.07962 1.19922 11.3992C1.19922 13.7188 3.10247 15.5992 5.45025 15.5992Z" fill="url(#paint3_linear_2279_8261)"/>
<path d="M5.45019 18.3984C3.36322 18.3984 1.67188 20.0695 1.67188 22.1314V37.0644C1.67188 39.1263 3.36322 40.7973 5.45019 40.7973C7.53716 40.7973 9.2285 39.1263 9.2285 37.0644V22.1314C9.2285 20.0695 7.53716 18.3984 5.45019 18.3984Z" fill="url(#paint4_linear_2279_8261)"/>
<defs>
<linearGradient id="paint0_linear_2279_8261" x1="41.3487" y1="40.8104" x2="41.3487" y2="18.3712" gradientUnits="userSpaceOnUse">
<stop stop-color="#FF19F5"/>
<stop offset="0.2" stop-color="#FA1BF5"/>
<stop offset="0.4" stop-color="#EE22F6"/>
<stop offset="0.61" stop-color="#D92DF8"/>
<stop offset="0.82" stop-color="#BC3DFB"/>
<stop offset="1" stop-color="#9E4EFF"/>
</linearGradient>
<linearGradient id="paint1_linear_2279_8261" x1="41.3486" y1="40.7984" x2="41.3486" y2="18.3581" gradientUnits="userSpaceOnUse">
<stop stop-color="#FF19F5"/>
<stop offset="0.2" stop-color="#FA1BF5"/>
<stop offset="0.4" stop-color="#EE22F6"/>
<stop offset="0.61" stop-color="#D92DF8"/>
<stop offset="0.82" stop-color="#BC3DFB"/>
<stop offset="1" stop-color="#9E4EFF"/>
</linearGradient>
<linearGradient id="paint2_linear_2279_8261" x1="23.398" y1="40.8018" x2="23.398" y2="18.3615" gradientUnits="userSpaceOnUse">
<stop stop-color="#FF19F5"/>
<stop offset="0.2" stop-color="#FA1BF5"/>
<stop offset="0.4" stop-color="#EE22F6"/>
<stop offset="0.61" stop-color="#D92DF8"/>
<stop offset="0.82" stop-color="#BC3DFB"/>
<stop offset="1" stop-color="#9E4EFF"/>
</linearGradient>
<linearGradient id="paint3_linear_2279_8261" x1="5.45025" y1="40.8104" x2="5.45025" y2="18.3712" gradientUnits="userSpaceOnUse">
<stop stop-color="#FF19F5"/>
<stop offset="0.2" stop-color="#FA1BF5"/>
<stop offset="0.4" stop-color="#EE22F6"/>
<stop offset="0.61" stop-color="#D92DF8"/>
<stop offset="0.82" stop-color="#BC3DFB"/>
<stop offset="1" stop-color="#9E4EFF"/>
</linearGradient>
<linearGradient id="paint4_linear_2279_8261" x1="5.45019" y1="40.7984" x2="5.45019" y2="18.3581" gradientUnits="userSpaceOnUse">
<stop stop-color="#FF19F5"/>
<stop offset="0.2" stop-color="#FA1BF5"/>
<stop offset="0.4" stop-color="#EE22F6"/>
<stop offset="0.61" stop-color="#D92DF8"/>
<stop offset="0.82" stop-color="#BC3DFB"/>
<stop offset="1" stop-color="#9E4EFF"/>
</linearGradient>
</defs>
</svg>
